<ttFont>
    <TTGlyph name="A" xMin="-47" yMin="-23" xMax="1737" yMax="1495">
      <contour>
        <pt x="410" y="526" on="1"/>
        <pt x="588" y="506" on="0"/>
        <pt x="685" y="506" on="1"/>
        <pt x="834" y="506" on="0"/>
        <pt x="1001" y="526" on="1"/>
        <pt x="891" y="863" on="0"/>
        <pt x="707" y="1135" on="1"/>
        <pt x="522" y="821" on="0"/>
      </contour>
      <contour>
        <pt x="1235" y="111" on="1"/>
        <pt x="1319" y="113" on="1"/>
        <pt x="1350" y="113" on="1"/>
        <pt x="1365" y="113" on="0"/>
        <pt x="1380" y="111" on="1"/>
        <pt x="1203" y="866" on="0"/>
        <pt x="844" y="1354" on="1"/>
        <pt x="766" y="1233" on="1"/>
        <pt x="972" y="951" on="0"/>
        <pt x="1098" y="569" on="1"/>
        <pt x="1215" y="204" on="0"/>
      </contour>
      <contour>
        <pt x="526" y="-23" on="1"/>
        <pt x="423" y="8" on="0"/>
        <pt x="109" y="8" on="0"/>
        <pt x="6" y="-23" on="1"/>
        <pt x="-17" y="-23" on="0"/>
        <pt x="-47" y="9" on="0"/>
        <pt x="-47" y="29" on="1"/>
        <pt x="-47" y="71" on="0"/>
        <pt x="-4" y="82" on="1"/>
        <pt x="65" y="100" on="0"/>
        <pt x="178" y="109" on="1"/>
        <pt x="310" y="751" on="0"/>
        <pt x="797" y="1473" on="1"/>
        <pt x="813" y="1495" on="0"/>
        <pt x="833" y="1495" on="1"/>
        <pt x="867" y="1495" on="0"/>
        <pt x="881" y="1477" on="1"/>
        <pt x="1297" y="946" on="0"/>
        <pt x="1489" y="106" on="1"/>
        <pt x="1591" y="97" on="0"/>
        <pt x="1692" y="82" on="1"/>
        <pt x="1712" y="79" on="0"/>
        <pt x="1737" y="49" on="0"/>
        <pt x="1737" y="9" on="0"/>
        <pt x="1702" y="-23" on="0"/>
        <pt x="1692" y="-23" on="1"/>
        <pt x="1678" y="-23" on="0"/>
        <pt x="1631" y="-14" on="1"/>
        <pt x="1437" y="21" on="0"/>
        <pt x="1148" y="0" on="1"/>
        <pt x="1063" y="-6" on="0"/>
        <pt x="977" y="-22" on="0"/>
        <pt x="973" y="-23" on="0"/>
        <pt x="949" y="-23" on="0"/>
        <pt x="918" y="11" on="0"/>
        <pt x="918" y="49" on="0"/>
        <pt x="943" y="79" on="0"/>
        <pt x="1003" y="90" on="0"/>
        <pt x="1085" y="99" on="0"/>
        <pt x="1128" y="104" on="1"/>
        <pt x="1084" y="271" on="0"/>
        <pt x="1034" y="426" on="1"/>
        <pt x="857" y="401" on="0"/>
        <pt x="563" y="401" on="0"/>
        <pt x="373" y="426" on="1"/>
        <pt x="320" y="268" on="0"/>
        <pt x="287" y="113" on="1"/>
        <pt x="414" y="109" on="0"/>
        <pt x="539" y="82" on="1"/>
        <pt x="557" y="79" on="0"/>
        <pt x="580" y="49" on="0"/>
        <pt x="580" y="8" on="0"/>
        <pt x="545" y="-23" on="0"/>
      </contour>
    </TTGlyph>
    <TTGlyph name="AE" xMin="-41" yMin="-23" xMax="2017" yMax="1475">
      <contour>
        <pt x="526" y="-23" on="1"/>
        <pt x="423" y="8" on="0"/>
        <pt x="109" y="8" on="0"/>
        <pt x="6" y="-23" on="1"/>
        <pt x="-17" y="-23" on="0"/>
        <pt x="-43" y="9" on="0"/>
        <pt x="-41" y="29" on="1"/>
        <pt x="-37" y="71" on="0"/>
        <pt x="7" y="82" on="1"/>
        <pt x="76" y="99" on="0"/>
        <pt x="193" y="109" on="1"/>
        <pt x="345" y="590" on="0"/>
        <pt x="668" y="1064" on="1"/>
        <pt x="781" y="1228" on="0"/>
        <pt x="924" y="1411" on="1"/>
        <pt x="944" y="1434" on="0"/>
        <pt x="969" y="1434" on="1"/>
        <pt x="1567" y="1434" on="0"/>
        <pt x="1872" y="1475" on="1"/>
        <pt x="1880" y="1475" on="1"/>
        <pt x="1900" y="1475" on="0"/>
        <pt x="1928" y="1448" on="0"/>
        <pt x="1931" y="1430" on="1"/>
        <pt x="1974" y="1092" on="1"/>
        <pt x="1974" y="1085" on="1"/>
        <pt x="1974" y="1062" on="0"/>
        <pt x="1941" y="1034" on="0"/>
        <pt x="1902" y="1034" on="0"/>
        <pt x="1873" y="1059" on="0"/>
        <pt x="1870" y="1079" on="1"/>
        <pt x="1833" y="1364" on="1"/>
        <pt x="1717" y="1348" on="0"/>
        <pt x="1486" y="1344" on="0"/>
        <pt x="1366" y="1337" on="1"/>
        <pt x="1366" y="664" on="1"/>
        <pt x="1579" y="673" on="0"/>
        <pt x="1702" y="696" on="1"/>
        <pt x="1712" y="696" on="1"/>
        <pt x="1734" y="696" on="0"/>
        <pt x="1765" y="665" on="0"/>
        <pt x="1765" y="645" on="1"/>
        <pt x="1765" y="603" on="0"/>
        <pt x="1722" y="592" on="1"/>
        <pt x="1604" y="569" on="0"/>
        <pt x="1366" y="559" on="1"/>
        <pt x="1366" y="104" on="1"/>
        <pt x="1395" y="104" on="1"/>
        <pt x="1662" y="104" on="0"/>
        <pt x="1876" y="90" on="1"/>
        <pt x="1913" y="358" on="1"/>
        <pt x="1916" y="378" on="0"/>
        <pt x="1945" y="403" on="0"/>
        <pt x="1989" y="403" on="0"/>
        <pt x="2017" y="369" on="0"/>
        <pt x="2017" y="352" on="1"/>
        <pt x="2017" y="344" on="1"/>
        <pt x="1974" y="27" on="1"/>
        <pt x="1971" y="7" on="0"/>
        <pt x="1941" y="-18" on="0"/>
        <pt x="1921" y="-18" on="1"/>
        <pt x="1919" y="-18" on="1"/>
        <pt x="1652" y="0" on="0"/>
        <pt x="1136" y="0" on="0"/>
        <pt x="893" y="-18" on="1"/>
        <pt x="889" y="-18" on="1"/>
        <pt x="866" y="-16" on="0"/>
        <pt x="836" y="12" on="0"/>
        <pt x="836" y="55" on="0"/>
        <pt x="863" y="84" on="0"/>
        <pt x="917" y="89" on="0"/>
        <pt x="982" y="92" on="0"/>
        <pt x="1014" y="94" on="1"/>
        <pt x="1014" y="422" on="1"/>
        <pt x="842" y="401" on="0"/>
        <pt x="608" y="401" on="0"/>
        <pt x="420" y="426" on="1"/>
        <pt x="358" y="283" on="0"/>
        <pt x="301" y="113" on="1"/>
        <pt x="430" y="109" on="0"/>
        <pt x="551" y="82" on="1"/>
        <pt x="568" y="79" on="0"/>
        <pt x="588" y="49" on="0"/>
        <pt x="583" y="8" on="0"/>
        <pt x="545" y="-23" on="0"/>
      </contour>
      <contour>
        <pt x="1014" y="1327" on="1"/>
        <pt x="987" y="1331" on="1"/>
        <pt x="774" y="1096" on="0"/>
        <pt x="526" y="640" on="1"/>
        <pt x="491" y="576" on="0"/>
        <pt x="467" y="526" on="1"/>
        <pt x="627" y="506" on="0"/>
        <pt x="860" y="506" on="0"/>
        <pt x="1014" y="522" on="1"/>
      </contour>
      <contour>
        <pt x="1262" y="1333" on="1"/>
        <pt x="1190" y="1329" on="0"/>
        <pt x="1118" y="1329" on="1"/>
        <pt x="1118" y="100" on="1"/>
        <pt x="1262" y="104" on="1"/>
      </contour>
    </TTGlyph>
    <TTGlyph name="AEacute" xMin="-41" yMin="-23" xMax="2017" yMax="2074">
      <component glyphName="AE" x="0" y="0" flags="0x1204"/>
      <component glyphName="acute" x="1174" y="352" flags="0x1004"/>
    </TTGlyph>
    <TTGlyph name="Aacute" xMin="-47" yMin="-23" xMax="1737" yMax="2123">
      <component glyphName="A" x="0" y="0" flags="0x1204"/>
      <component glyphName="acute" x="829" y="401" flags="0x1004"/>
    </TTGlyph>
    <TTGlyph name="Abreve" xMin="-47" yMin="-23" xMax="1737" yMax="2028">
      <component glyphName="A" x="0" y="0" flags="0x1204"/>
      <component glyphName="breve" x="498" y="381" flags="0x1004"/>
    </TTGlyph>
    <TTGlyph name="Acircumflex" xMin="-47" yMin="-23" xMax="1737" yMax="2064">
      <component glyphName="A" x="0" y="0" flags="0x1204"/>
      <component glyphName="circumflex" x="473" y="344" flags="0x1004"/>
    </TTGlyph>
    <TTGlyph name="Adieresis" xMin="-47" yMin="-23" xMax="1737" yMax="1767">
      <component glyphName="A" x="0" y="0" flags="0x1004"/>
      <component glyphName="dieresis" x="473" y="182" flags="0x1004"/>
    </TTGlyph>
    <TTGlyph name="Agrave" xMin="-47" yMin="-23" xMax="1737" yMax="2130">
      <component glyphName="A" x="0" y="0" flags="0x1204"/>
      <component glyphName="grave" x="199" y="408" flags="0x1004"/>
    </TTGlyph>
    <TTGlyph name="Amacron" xMin="-47" yMin="-23" xMax="1737" yMax="1855">
      <component glyphName="A" x="0" y="0" flags="0x1204"/>
      <component glyphName="macron" x="489" y="274" flags="0x1004"/>
    </TTGlyph>
    <TTGlyph name="Aogonek" xMin="-47" yMin="-580" xMax="1737" yMax="1495">
      <contour>
        <pt x="526" y="-23" on="1"/>
        <pt x="423" y="8" on="0"/>
        <pt x="109" y="8" on="0"/>
        <pt x="6" y="-23" on="1"/>
        <pt x="-17" y="-23" on="0"/>
        <pt x="-47" y="9" on="0"/>
        <pt x="-47" y="29" on="1"/>
        <pt x="-47" y="71" on="0"/>
        <pt x="-4" y="82" on="1"/>
        <pt x="65" y="100" on="0"/>
        <pt x="178" y="109" on="1"/>
        <pt x="310" y="751" on="0"/>
        <pt x="797" y="1473" on="1"/>
        <pt x="813" y="1495" on="0"/>
        <pt x="833" y="1495" on="1"/>
        <pt x="867" y="1495" on="0"/>
        <pt x="881" y="1477" on="1"/>
        <pt x="1297" y="946" on="0"/>
        <pt x="1489" y="106" on="1"/>
        <pt x="1591" y="97" on="0"/>
        <pt x="1692" y="82" on="1"/>
        <pt x="1712" y="79" on="0"/>
        <pt x="1737" y="49" on="0"/>
        <pt x="1737" y="9" on="0"/>
        <pt x="1702" y="-23" on="0"/>
        <pt x="1692" y="-23" on="1"/>
        <pt x="1678" y="-23" on="0"/>
        <pt x="1636" y="-16" on="1"/>
        <pt x="1542" y="1" on="0"/>
        <pt x="1449" y="3" on="1"/>
        <pt x="1355" y="4" on="1"/>
        <pt x="1354" y="4" on="1"/>
        <pt x="1237" y="-69" on="0"/>
        <pt x="1237" y="-178" on="1"/>
        <pt x="1237" y="-233" on="0"/>
        <pt x="1262" y="-271" on="1"/>
        <pt x="1306" y="-340" on="0"/>
        <pt x="1358" y="-340" on="1"/>
        <pt x="1409" y="-340" on="0"/>
        <pt x="1464" y="-285" on="1"/>
        <pt x="1477" y="-272" on="0"/>
        <pt x="1498" y="-246" on="0"/>
        <pt x="1547" y="-246" on="0"/>
        <pt x="1577" y="-280" on="0"/>
        <pt x="1577" y="-297" on="1"/>
        <pt x="1569" y="-355" on="0"/>
        <pt x="1495" y="-468" on="0"/>
        <pt x="1452" y="-504" on="1"/>
        <pt x="1363" y="-580" on="0"/>
        <pt x="1255" y="-580" on="1"/>
        <pt x="1144" y="-580" on="0"/>
        <pt x="1062" y="-490" on="1"/>
        <pt x="983" y="-401" on="0"/>
        <pt x="983" y="-295" on="1"/>
        <pt x="983" y="-134" on="0"/>
        <pt x="1151" y="0" on="1"/>
        <pt x="1048" y="-7" on="0"/>
        <pt x="977" y="-22" on="0"/>
        <pt x="973" y="-23" on="0"/>
        <pt x="949" y="-23" on="0"/>
        <pt x="918" y="11" on="0"/>
        <pt x="918" y="49" on="0"/>
        <pt x="943" y="79" on="0"/>
        <pt x="1003" y="90" on="0"/>
        <pt x="1085" y="99" on="0"/>
        <pt x="1128" y="104" on="1"/>
        <pt x="1084" y="271" on="0"/>
        <pt x="1034" y="426" on="1"/>
        <pt x="857" y="401" on="0"/>
        <pt x="563" y="401" on="0"/>
        <pt x="373" y="426" on="1"/>
        <pt x="320" y="268" on="0"/>
        <pt x="287" y="113" on="1"/>
        <pt x="414" y="109" on="0"/>
        <pt x="539" y="82" on="1"/>
        <pt x="557" y="79" on="0"/>
        <pt x="580" y="49" on="0"/>
        <pt x="580" y="8" on="0"/>
        <pt x="545" y="-23" on="0"/>
      </contour>
      <contour>
        <pt x="410" y="526" on="1"/>
        <pt x="588" y="506" on="0"/>
        <pt x="685" y="506" on="1"/>
        <pt x="834" y="506" on="0"/>
        <pt x="1001" y="526" on="1"/>
        <pt x="891" y="863" on="0"/>
        <pt x="707" y="1135" on="1"/>
        <pt x="522" y="821" on="0"/>
      </contour>
      <contour>
        <pt x="1235" y="111" on="1"/>
        <pt x="1319" y="113" on="1"/>
        <pt x="1350" y="113" on="1"/>
        <pt x="1365" y="113" on="0"/>
        <pt x="1380" y="111" on="1"/>
        <pt x="1203" y="866" on="0"/>
        <pt x="844" y="1354" on="1"/>
        <pt x="766" y="1233" on="1"/>
        <pt x="972" y="951" on="0"/>
        <pt x="1098" y="569" on="1"/>
        <pt x="1215" y="204" on="0"/>
      </contour>
      <contour>
        <pt x="1130" y="-172" on="1"/>
        <pt x="1090" y="-234" on="0"/>
        <pt x="1090" y="-330" on="0"/>
        <pt x="1117" y="-394" on="0"/>
        <pt x="1140" y="-420" on="1"/>
        <pt x="1190" y="-475" on="0"/>
        <pt x="1255" y="-475" on="1"/>
        <pt x="1303" y="-475" on="0"/>
        <pt x="1354" y="-444" on="1"/>
        <pt x="1258" y="-438" on="0"/>
        <pt x="1192" y="-354" on="1"/>
        <pt x="1130" y="-275" on="0"/>
        <pt x="1130" y="-178" on="1"/>
      </contour>
    </TTGlyph>
    <TTGlyph name="Aring" xMin="-45" yMin="-23" xMax="1739" yMax="1939">
      <contour>
        <pt x="412" y="526" on="1"/>
        <pt x="590" y="506" on="0"/>
        <pt x="687" y="506" on="1"/>
        <pt x="835" y="506" on="0"/>
        <pt x="1004" y="526" on="1"/>
        <pt x="894" y="860" on="0"/>
        <pt x="709" y="1135" on="1"/>
        <pt x="524" y="821" on="0"/>
      </contour>
      <contour>
        <pt x="1237" y="111" on="1"/>
        <pt x="1321" y="113" on="1"/>
        <pt x="1352" y="113" on="1"/>
        <pt x="1367" y="113" on="0"/>
        <pt x="1382" y="111" on="1"/>
        <pt x="1205" y="866" on="0"/>
        <pt x="846" y="1354" on="1"/>
        <pt x="768" y="1233" on="1"/>
        <pt x="974" y="951" on="0"/>
        <pt x="1100" y="569" on="1"/>
        <pt x="1217" y="204" on="0"/>
      </contour>
      <contour>
        <pt x="641" y="1681" on="0"/>
        <pt x="641" y="1598" on="0"/>
        <pt x="652" y="1543" on="0"/>
        <pt x="664" y="1520" on="1"/>
        <pt x="691" y="1466" on="0"/>
        <pt x="743" y="1466" on="1"/>
        <pt x="799" y="1466" on="0"/>
        <pt x="832" y="1524" on="1"/>
        <pt x="858" y="1570" on="0"/>
        <pt x="858" y="1613" on="1"/>
        <pt x="858" y="1689" on="0"/>
        <pt x="791" y="1786" on="0"/>
        <pt x="687" y="1786" on="0"/>
      </contour>
      <contour>
        <pt x="881" y="1833" on="1"/>
        <pt x="963" y="1753" on="0"/>
        <pt x="963" y="1630" on="1"/>
        <pt x="963" y="1493" on="0"/>
        <pt x="881" y="1417" on="1"/>
        <pt x="962" y="1427" on="0"/>
        <pt x="1051" y="1534" on="0"/>
        <pt x="1051" y="1712" on="0"/>
        <pt x="959" y="1822" on="0"/>
      </contour>
      <contour>
        <pt x="528" y="-23" on="1"/>
        <pt x="425" y="8" on="0"/>
        <pt x="111" y="8" on="0"/>
        <pt x="8" y="-23" on="1"/>
        <pt x="-15" y="-23" on="0"/>
        <pt x="-45" y="9" on="0"/>
        <pt x="-45" y="29" on="1"/>
        <pt x="-45" y="71" on="0"/>
        <pt x="-2" y="82" on="1"/>
        <pt x="67" y="100" on="0"/>
        <pt x="180" y="109" on="1"/>
        <pt x="303" y="703" on="0"/>
        <pt x="711" y="1337" on="1"/>
        <pt x="587" y="1396" on="0"/>
        <pt x="549" y="1534" on="1"/>
        <pt x="537" y="1577" on="0"/>
        <pt x="537" y="1691" on="0"/>
        <pt x="585" y="1807" on="0"/>
        <pt x="627" y="1849" on="1"/>
        <pt x="717" y="1939" on="0"/>
        <pt x="846" y="1939" on="1"/>
        <pt x="982" y="1939" on="0"/>
        <pt x="1157" y="1764" on="0"/>
        <pt x="1157" y="1624" on="1"/>
        <pt x="1157" y="1521" on="0"/>
        <pt x="1066" y="1370" on="0"/>
        <pt x="985" y="1335" on="1"/>
        <pt x="1321" y="844" on="0"/>
        <pt x="1491" y="106" on="1"/>
        <pt x="1624" y="93" on="0"/>
        <pt x="1669" y="86" on="1"/>
        <pt x="1739" y="75" on="0"/>
        <pt x="1739" y="31" on="1"/>
        <pt x="1739" y="9" on="0"/>
        <pt x="1704" y="-23" on="0"/>
        <pt x="1679" y="-23" on="0"/>
        <pt x="1632" y="-14" on="1"/>
        <pt x="1440" y="21" on="0"/>
        <pt x="1150" y="0" on="1"/>
        <pt x="1065" y="-6" on="0"/>
        <pt x="979" y="-22" on="0"/>
        <pt x="975" y="-23" on="0"/>
        <pt x="951" y="-23" on="0"/>
        <pt x="920" y="11" on="0"/>
        <pt x="920" y="49" on="0"/>
        <pt x="945" y="79" on="0"/>
        <pt x="1005" y="90" on="0"/>
        <pt x="1087" y="99" on="0"/>
        <pt x="1130" y="104" on="1"/>
        <pt x="1086" y="271" on="0"/>
        <pt x="1036" y="426" on="1"/>
        <pt x="859" y="401" on="0"/>
        <pt x="565" y="401" on="0"/>
        <pt x="375" y="426" on="1"/>
        <pt x="322" y="268" on="0"/>
        <pt x="289" y="113" on="1"/>
        <pt x="416" y="109" on="0"/>
        <pt x="541" y="82" on="1"/>
        <pt x="559" y="79" on="0"/>
        <pt x="582" y="49" on="0"/>
        <pt x="582" y="8" on="0"/>
        <pt x="547" y="-23" on="0"/>
      </contour>
    </TTGlyph>
    <TTGlyph name="Atilde" xMin="-47" yMin="-23" xMax="1737" yMax="2073">
      <component glyphName="A" x="0" y="0" flags="0x1004"/>
      <component glyphName="tilde" x="457" y="344" flags="0x1004"/>
    </TTGlyph>
    <TTGlyph name="B" xMin="98" yMin="-57" xMax="1391" yMax="1491">
      <contour>
        <pt x="504" y="1384" on="1"/>
        <pt x="428" y="1381" on="0"/>
        <pt x="362" y="1372" on="1"/>
        <pt x="361" y="1308" on="0"/>
        <pt x="361" y="1145" on="0"/>
        <pt x="362" y="960" on="0"/>
        <pt x="364" y="763" on="0"/>
        <pt x="367" y="568" on="0"/>
        <pt x="370" y="384" on="0"/>
        <pt x="372" y="304" on="1"/>
        <pt x="375" y="119" on="0"/>
        <pt x="375" y="63" on="1"/>
        <pt x="430" y="57" on="0"/>
        <pt x="504" y="51" on="1"/>
      </contour>
      <contour>
        <pt x="666" y="608" on="1"/>
        <pt x="666" y="608" on="0"/>
        <pt x="608" y="606" on="1"/>
        <pt x="608" y="47" on="1"/>
        <pt x="655" y="47" on="1"/>
        <pt x="994" y="47" on="0"/>
        <pt x="1102" y="195" on="1"/>
        <pt x="1143" y="250" on="0"/>
        <pt x="1143" y="395" on="0"/>
        <pt x="1096" y="483" on="0"/>
        <pt x="1018" y="544" on="0"/>
        <pt x="917" y="581" on="0"/>
        <pt x="864" y="591" on="1"/>
        <pt x="774" y="608" on="0"/>
      </contour>
      <contour>
        <pt x="733" y="715" on="1"/>
        <pt x="1286" y="715" on="0"/>
        <pt x="1286" y="1044" on="1"/>
        <pt x="1286" y="1175" on="0"/>
        <pt x="1164" y="1262" on="1"/>
        <pt x="1011" y="1370" on="0"/>
        <pt x="742" y="1385" on="1"/>
        <pt x="668" y="1389" on="0"/>
        <pt x="608" y="1386" on="1"/>
        <pt x="608" y="715" on="1"/>
      </contour>
      <contour>
        <pt x="256" y="1356" on="1"/>
        <pt x="152" y="1331" on="1"/>
        <pt x="129" y="1331" on="0"/>
        <pt x="98" y="1364" on="0"/>
        <pt x="98" y="1382" on="1"/>
        <pt x="98" y="1421" on="0"/>
        <pt x="135" y="1436" on="1"/>
        <pt x="330" y="1491" on="0"/>
        <pt x="594" y="1491" on="1"/>
        <pt x="899" y="1491" on="0"/>
        <pt x="1110" y="1408" on="1"/>
        <pt x="1283" y="1340" on="0"/>
        <pt x="1354" y="1208" on="1"/>
        <pt x="1391" y="1138" on="0"/>
        <pt x="1391" y="964" on="0"/>
        <pt x="1336" y="831" on="0"/>
        <pt x="1288" y="780" on="1"/>
        <pt x="1190" y="678" on="0"/>
        <pt x="1030" y="651" on="1"/>
        <pt x="1185" y="595" on="0"/>
        <pt x="1234" y="440" on="1"/>
        <pt x="1249" y="391" on="0"/>
        <pt x="1249" y="257" on="0"/>
        <pt x="1205" y="142" on="0"/>
        <pt x="1124" y="57" on="0"/>
        <pt x="1012" y="0" on="0"/>
        <pt x="945" y="-18" on="1"/>
        <pt x="818" y="-51" on="0"/>
        <pt x="643" y="-57" on="1"/>
        <pt x="423" y="-59" on="0"/>
        <pt x="254" y="-21" on="1"/>
        <pt x="155" y="1" on="0"/>
        <pt x="127" y="20" on="1"/>
        <pt x="98" y="34" on="0"/>
        <pt x="98" y="89" on="0"/>
        <pt x="133" y="119" on="0"/>
        <pt x="146" y="119" on="1"/>
        <pt x="164" y="119" on="0"/>
        <pt x="170" y="116" on="1"/>
        <pt x="203" y="100" on="0"/>
        <pt x="268" y="84" on="1"/>
        <pt x="267" y="142" on="0"/>
        <pt x="265" y="328" on="0"/>
        <pt x="262" y="555" on="0"/>
        <pt x="259" y="806" on="0"/>
        <pt x="257" y="1050" on="0"/>
        <pt x="255" y="1272" on="0"/>
      </contour>
    </TTGlyph>
    <TTGlyph name="C" xMin="102" yMin="-42" xMax="1466" yMax="1491">
      <contour>
        <pt x="551" y="1315" on="1"/>
        <pt x="207" y="1145" on="0"/>
        <pt x="207" y="684" on="1"/>
        <pt x="207" y="376" on="0"/>
        <pt x="386" y="217" on="1"/>
        <pt x="445" y="164" on="0"/>
        <pt x="526" y="121" on="1"/>
        <pt x="356" y="327" on="0"/>
        <pt x="356" y="721" on="1"/>
        <pt x="356" y="1112" on="0"/>
      </contour>
      <contour>
        <pt x="866" y="1491" on="1"/>
        <pt x="1145" y="1491" on="0"/>
        <pt x="1309" y="1296" on="1"/>
        <pt x="1364" y="1454" on="1"/>
        <pt x="1377" y="1491" on="0"/>
        <pt x="1435" y="1491" on="0"/>
        <pt x="1466" y="1458" on="0"/>
        <pt x="1466" y="1429" on="0"/>
        <pt x="1462" y="1421" on="1"/>
        <pt x="1303" y="956" on="1"/>
        <pt x="1293" y="922" on="0"/>
        <pt x="1230" y="922" on="0"/>
        <pt x="1200" y="956" on="0"/>
        <pt x="1200" y="981" on="0"/>
        <pt x="1204" y="989" on="1"/>
        <pt x="1268" y="1176" on="1"/>
        <pt x="1183" y="1312" on="0"/>
        <pt x="1041" y="1362" on="1"/>
        <pt x="994" y="1378" on="0"/>
        <pt x="855" y="1378" on="0"/>
        <pt x="712" y="1322" on="0"/>
        <pt x="605" y="1226" on="0"/>
        <pt x="529" y="1097" on="0"/>
        <pt x="506" y="1024" on="1"/>
        <pt x="461" y="886" on="0"/>
        <pt x="461" y="721" on="1"/>
        <pt x="461" y="478" on="0"/>
        <pt x="537" y="294" on="1"/>
        <pt x="596" y="152" on="0"/>
        <pt x="704" y="92" on="1"/>
        <pt x="760" y="61" on="0"/>
        <pt x="921" y="61" on="0"/>
        <pt x="1078" y="111" on="0"/>
        <pt x="1142" y="158" on="1"/>
        <pt x="1277" y="255" on="0"/>
        <pt x="1331" y="414" on="1"/>
        <pt x="1342" y="455" on="0"/>
        <pt x="1404" y="455" on="0"/>
        <pt x="1434" y="421" on="0"/>
        <pt x="1434" y="401" on="1"/>
        <pt x="1434" y="389" on="1"/>
        <pt x="1433" y="387" on="0"/>
        <pt x="1422" y="351" on="0"/>
        <pt x="1410" y="322" on="1"/>
        <pt x="1315" y="107" on="0"/>
        <pt x="1102" y="13" on="1"/>
        <pt x="974" y="-43" on="0"/>
        <pt x="663" y="-40" on="0"/>
        <pt x="392" y="65" on="0"/>
        <pt x="298" y="160" on="1"/>
        <pt x="102" y="355" on="0"/>
        <pt x="102" y="684" on="1"/>
        <pt x="102" y="1107" on="0"/>
        <pt x="352" y="1316" on="1"/>
        <pt x="563" y="1491" on="0"/>
      </contour>
    </TTGlyph>
    <TTGlyph name="Cacute" xMin="102" yMin="-42" xMax="1466" yMax="2130">
      <component glyphName="C" x="0" y="0" flags="0x1204"/>
      <component glyphName="acute" x="805" y="408" flags="0x1004"/>
    </TTGlyph>
    <TTGlyph name="Ccaron" xMin="102" yMin="-42" xMax="1466" yMax="2107">
      <component glyphName="C" x="0" y="0" flags="0x1204"/>
      <component glyphName="caron" x="512" y="387" flags="0x1004"/>
    </TTGlyph>
    <TTGlyph name="Ccedilla" xMin="100" yMin="-614" xMax="1464" yMax="1491">
      <contour>
        <pt x="831" y="-43" on="1"/>
        <pt x="776" y="-41" on="1"/>
        <pt x="741" y="-121" on="1"/>
        <pt x="780" y="-121" on="1"/>
        <pt x="900" y="-121" on="0"/>
        <pt x="980" y="-188" on="1"/>
        <pt x="1061" y="-256" on="0"/>
        <pt x="1061" y="-369" on="1"/>
        <pt x="1061" y="-486" on="0"/>
        <pt x="980" y="-552" on="1"/>
        <pt x="905" y="-614" on="0"/>
        <pt x="788" y="-614" on="1"/>
        <pt x="634" y="-614" on="0"/>
        <pt x="520" y="-514" on="1"/>
        <pt x="502" y="-498" on="0"/>
        <pt x="502" y="-453" on="0"/>
        <pt x="536" y="-422" on="0"/>
        <pt x="548" y="-422" on="1"/>
        <pt x="563" y="-422" on="0"/>
        <pt x="575" y="-426" on="1"/>
        <pt x="622" y="-444" on="0"/>
        <pt x="724" y="-444" on="0"/>
        <pt x="768" y="-398" on="0"/>
        <pt x="768" y="-328" on="0"/>
        <pt x="756" y="-289" on="0"/>
        <pt x="745" y="-273" on="1"/>
        <pt x="721" y="-238" on="0"/>
        <pt x="682" y="-238" on="1"/>
        <pt x="657" y="-240" on="1"/>
        <pt x="634" y="-240" on="0"/>
        <pt x="606" y="-206" on="0"/>
        <pt x="606" y="-194" on="1"/>
        <pt x="606" y="-176" on="0"/>
        <pt x="610" y="-166" on="1"/>
        <pt x="668" y="-27" on="1"/>
        <pt x="400" y="21" on="0"/>
        <pt x="250" y="208" on="1"/>
        <pt x="100" y="397" on="0"/>
        <pt x="100" y="684" on="1"/>
        <pt x="100" y="1107" on="0"/>
        <pt x="350" y="1316" on="1"/>
        <pt x="561" y="1491" on="0"/>
        <pt x="864" y="1491" on="1"/>
        <pt x="1143" y="1491" on="0"/>
        <pt x="1307" y="1296" on="1"/>
        <pt x="1362" y="1454" on="1"/>
        <pt x="1375" y="1491" on="0"/>
        <pt x="1433" y="1491" on="0"/>
        <pt x="1464" y="1458" on="0"/>
        <pt x="1464" y="1429" on="0"/>
        <pt x="1460" y="1421" on="1"/>
        <pt x="1300" y="956" on="1"/>
        <pt x="1290" y="922" on="0"/>
        <pt x="1228" y="922" on="0"/>
        <pt x="1198" y="956" on="0"/>
        <pt x="1198" y="981" on="0"/>
        <pt x="1202" y="989" on="1"/>
        <pt x="1266" y="1176" on="1"/>
        <pt x="1181" y="1312" on="0"/>
        <pt x="1039" y="1362" on="1"/>
        <pt x="992" y="1378" on="0"/>
        <pt x="853" y="1378" on="0"/>
        <pt x="710" y="1322" on="0"/>
        <pt x="603" y="1226" on="0"/>
        <pt x="527" y="1097" on="0"/>
        <pt x="504" y="1024" on="1"/>
        <pt x="459" y="886" on="0"/>
        <pt x="459" y="721" on="1"/>
        <pt x="459" y="478" on="0"/>
        <pt x="535" y="294" on="1"/>
        <pt x="632" y="61" on="0"/>
        <pt x="831" y="61" on="1"/>
        <pt x="1005" y="61" on="0"/>
        <pt x="1275" y="254" on="0"/>
        <pt x="1329" y="414" on="1"/>
        <pt x="1340" y="455" on="0"/>
        <pt x="1402" y="455" on="0"/>
        <pt x="1432" y="421" on="0"/>
        <pt x="1432" y="401" on="1"/>
        <pt x="1432" y="389" on="1"/>
        <pt x="1431" y="387" on="0"/>
        <pt x="1420" y="351" on="0"/>
        <pt x="1408" y="322" on="1"/>
        <pt x="1313" y="107" on="0"/>
        <pt x="1100" y="13" on="1"/>
        <pt x="972" y="-43" on="0"/>
      </contour>
      <contour>
        <pt x="549" y="1315" on="1"/>
        <pt x="205" y="1145" on="0"/>
        <pt x="205" y="684" on="1"/>
        <pt x="205" y="376" on="0"/>
        <pt x="384" y="217" on="1"/>
        <pt x="443" y="164" on="0"/>
        <pt x="524" y="121" on="1"/>
        <pt x="354" y="327" on="0"/>
        <pt x="354" y="721" on="1"/>
        <pt x="354" y="1112" on="0"/>
      </contour>
      <contour>
        <pt x="872" y="-348" on="1"/>
        <pt x="872" y="-453" on="0"/>
        <pt x="803" y="-508" on="1"/>
        <pt x="875" y="-502" on="0"/>
        <pt x="956" y="-429" on="0"/>
        <pt x="956" y="-312" on="0"/>
        <pt x="894" y="-241" on="0"/>
        <pt x="842" y="-231" on="1"/>
        <pt x="872" y="-284" on="0"/>
      </contour>
    </TTGlyph>
    <TTGlyph name="Ccircumflex" xMin="102" yMin="-42" xMax="1466" yMax="2107">
      <component glyphName="C" x="0" y="0" flags="0x1204"/>
      <component glyphName="circumflex" x="465" y="387" flags="0x1004"/>
    </TTGlyph>
    <TTGlyph name="Cdotaccent" xMin="102" yMin="-42" xMax="1466" yMax="1857">
      <component glyphName="C" x="0" y="0" flags="0x1204"/>
      <component glyphName="dotaccent" x="719" y="272" flags="0x1004"/>
    </TTGlyph>
    <TTGlyph name="D" xMin="78" yMin="-43" xMax="1446" yMax="1456">
      <contour>
        <pt x="389" y="74" on="1"/>
        <pt x="476" y="66" on="0"/>
        <pt x="530" y="63" on="1"/>
        <pt x="530" y="1350" on="1"/>
        <pt x="465" y="1345" on="0"/>
        <pt x="389" y="1333" on="1"/>
      </contour>
      <contour>
        <pt x="1316" y="529" on="1"/>
        <pt x="1341" y="615" on="0"/>
        <pt x="1341" y="870" on="0"/>
        <pt x="1233" y="1117" on="0"/>
        <pt x="1138" y="1200" on="1"/>
        <pt x="943" y="1370" on="0"/>
        <pt x="635" y="1352" on="1"/>
        <pt x="635" y="63" on="1"/>
        <pt x="927" y="54" on="0"/>
        <pt x="1132" y="239" on="1"/>
        <pt x="1265" y="358" on="0"/>
      </contour>
      <contour>
        <pt x="285" y="1315" on="1"/>
        <pt x="129" y="1276" on="1"/>
        <pt x="106" y="1276" on="0"/>
        <pt x="78" y="1309" on="0"/>
        <pt x="78" y="1328" on="1"/>
        <pt x="78" y="1368" on="0"/>
        <pt x="113" y="1378" on="1"/>
        <pt x="117" y="1379" on="0"/>
        <pt x="198" y="1404" on="0"/>
        <pt x="266" y="1418" on="1"/>
        <pt x="444" y="1456" on="0"/>
        <pt x="801" y="1456" on="0"/>
        <pt x="1101" y="1363" on="0"/>
        <pt x="1211" y="1270" on="1"/>
        <pt x="1446" y="1071" on="0"/>
        <pt x="1446" y="711" on="1"/>
        <pt x="1446" y="473" on="0"/>
        <pt x="1323" y="295" on="1"/>
        <pt x="1210" y="132" on="0"/>
        <pt x="1006" y="42" on="1"/>
        <pt x="809" y="-43" on="0"/>
        <pt x="571" y="-43" on="1"/>
        <pt x="329" y="-43" on="0"/>
        <pt x="131" y="23" on="1"/>
        <pt x="96" y="37" on="0"/>
        <pt x="96" y="95" on="0"/>
        <pt x="130" y="125" on="0"/>
        <pt x="150" y="125" on="1"/>
        <pt x="285" y="90" on="1"/>
      </contour>
    </TTGlyph>
    <TTGlyph name="Dcaron" xMin="78" yMin="-43" xMax="1446" yMax="2068">
      <component glyphName="D" x="0" y="0" flags="0x1204"/>
      <component glyphName="caron" x="379" y="348" flags="0x1004"/>
    </TTGlyph>
    <TTGlyph name="Dcroat" xMin="74" yMin="-43" xMax="1444" yMax="1456">
      <component glyphName="Eth" x="0" y="0" flags="0x1204"/>
    </TTGlyph>
    <TTGlyph name="E" xMin="94" yMin="-18" xMax="1276" yMax="1475">
      <contour>
        <pt x="520" y="1319" on="1"/>
        <pt x="450" y="1315" on="0"/>
        <pt x="377" y="1315" on="1"/>
        <pt x="377" y="100" on="1"/>
        <pt x="412" y="102" on="0"/>
        <pt x="485" y="102" on="0"/>
        <pt x="520" y="104" on="1"/>
      </contour>
      <contour>
        <pt x="653" y="104" on="1"/>
        <pt x="922" y="104" on="0"/>
        <pt x="1135" y="90" on="1"/>
        <pt x="1171" y="358" on="1"/>
        <pt x="1175" y="378" on="0"/>
        <pt x="1204" y="403" on="0"/>
        <pt x="1247" y="403" on="0"/>
        <pt x="1276" y="369" on="0"/>
        <pt x="1276" y="352" on="1"/>
        <pt x="1276" y="344" on="1"/>
        <pt x="1233" y="27" on="1"/>
        <pt x="1230" y="7" on="0"/>
        <pt x="1200" y="-18" on="0"/>
        <pt x="1180" y="-18" on="1"/>
        <pt x="1178" y="-18" on="1"/>
        <pt x="909" y="0" on="0"/>
        <pt x="393" y="0" on="0"/>
        <pt x="152" y="-18" on="1"/>
        <pt x="147" y="-18" on="1"/>
        <pt x="124" y="-16" on="0"/>
        <pt x="94" y="12" on="0"/>
        <pt x="94" y="55" on="0"/>
        <pt x="122" y="84" on="0"/>
        <pt x="175" y="89" on="0"/>
        <pt x="240" y="92" on="0"/>
        <pt x="272" y="94" on="1"/>
        <pt x="272" y="1313" on="1"/>
        <pt x="240" y="1315" on="0"/>
        <pt x="208" y="1315" on="1"/>
        <pt x="145" y="1315" on="1"/>
        <pt x="124" y="1317" on="0"/>
        <pt x="94" y="1346" on="0"/>
        <pt x="94" y="1368" on="1"/>
        <pt x="94" y="1390" on="0"/>
        <pt x="126" y="1421" on="0"/>
        <pt x="185" y="1419" on="0"/>
        <pt x="220" y="1419" on="1"/>
        <pt x="291" y="1419" on="1"/>
        <pt x="714" y="1419" on="0"/>
        <pt x="1130" y="1475" on="1"/>
        <pt x="1139" y="1475" on="1"/>
        <pt x="1159" y="1475" on="0"/>
        <pt x="1187" y="1448" on="0"/>
        <pt x="1190" y="1430" on="1"/>
        <pt x="1233" y="1092" on="1"/>
        <pt x="1233" y="1085" on="1"/>
        <pt x="1233" y="1062" on="0"/>
        <pt x="1200" y="1034" on="0"/>
        <pt x="1161" y="1034" on="0"/>
        <pt x="1132" y="1059" on="0"/>
        <pt x="1128" y="1079" on="1"/>
        <pt x="1092" y="1364" on="1"/>
        <pt x="894" y="1337" on="0"/>
        <pt x="625" y="1323" on="1"/>
        <pt x="625" y="664" on="1"/>
        <pt x="840" y="673" on="0"/>
        <pt x="961" y="696" on="1"/>
        <pt x="971" y="696" on="1"/>
        <pt x="992" y="696" on="0"/>
        <pt x="1024" y="665" on="0"/>
        <pt x="1024" y="645" on="1"/>
        <pt x="1024" y="603" on="0"/>
        <pt x="981" y="592" on="1"/>
        <pt x="863" y="569" on="0"/>
        <pt x="625" y="559" on="1"/>
        <pt x="625" y="104" on="1"/>
      </contour>
    </TTGlyph>
    <TTGlyph name="Eacute" xMin="94" yMin="-18" xMax="1276" yMax="2046">
      <component glyphName="E" x="0" y="0" flags="0x1204"/>
      <component glyphName="acute" x="598" y="324" flags="0x1004"/>
    </TTGlyph>
    <TTGlyph name="Ebreve" xMin="94" yMin="-18" xMax="1276" yMax="1962">
      <component glyphName="E" x="0" y="0" flags="0x1204"/>
      <component glyphName="breve" x="332" y="315" flags="0x1004"/>
    </TTGlyph>
    <TTGlyph name="Ecaron" xMin="94" yMin="-18" xMax="1276" yMax="2042">
      <component glyphName="E" x="0" y="0" flags="0x1204"/>
      <component glyphName="caron" x="281" y="322" flags="0x1004"/>
    </TTGlyph>
    <TTGlyph name="Ecircumflex" xMin="94" yMin="-18" xMax="1276" yMax="2054">
      <component glyphName="E" x="0" y="0" flags="0x1204"/>
      <component glyphName="circumflex" x="291" y="334" flags="0x1004"/>
    </TTGlyph>
    <TTGlyph name="Edieresis" xMin="94" yMin="-18" xMax="1276" yMax="1825">
      <component glyphName="E" x="0" y="0" flags="0x1204"/>
      <component glyphName="dieresis" x="313" y="240" flags="0x1004"/>
    </TTGlyph>
    <TTGlyph name="Edotaccent" xMin="94" yMin="-18" xMax="1276" yMax="1798">
      <component glyphName="E" x="0" y="0" flags="0x1204"/>
      <component glyphName="dotaccent" x="520" y="213" flags="0x1004"/>
    </TTGlyph>
    <TTGlyph name="Egrave" xMin="84" yMin="-18" xMax="1276" yMax="2056">
      <component glyphName="E" x="0" y="0" flags="0x1204"/>
      <component glyphName="grave" x="84" y="334" flags="0x1004"/>
    </TTGlyph>
    <TTGlyph name="Emacron" xMin="94" yMin="-18" xMax="1276" yMax="1810">
      <component glyphName="E" x="0" y="0" flags="0x1204"/>
      <component glyphName="macron" x="324" y="229" flags="0x1004"/>
    </TTGlyph>
    <TTGlyph name="Eng" xMin="80" yMin="-668" xMax="1595" yMax="1503">
      <contour>
        <pt x="549" y="1350" on="1"/>
        <pt x="549" y="1350" on="0"/>
        <pt x="476" y="1350" on="1"/>
        <pt x="441" y="1350" on="0"/>
        <pt x="403" y="1352" on="1"/>
        <pt x="381" y="102" on="1"/>
        <pt x="514" y="102" on="1"/>
      </contour>
      <contour>
        <pt x="1155" y="1473" on="1"/>
        <pt x="1204" y="1466" on="0"/>
        <pt x="1270" y="1466" on="1"/>
        <pt x="1400" y="1466" on="0"/>
        <pt x="1530" y="1501" on="1"/>
        <pt x="1534" y="1503" on="0"/>
        <pt x="1566" y="1503" on="0"/>
        <pt x="1595" y="1472" on="0"/>
        <pt x="1595" y="1454" on="1"/>
        <pt x="1595" y="1412" on="0"/>
        <pt x="1560" y="1402" on="1"/>
        <pt x="1484" y="1381" on="0"/>
        <pt x="1421" y="1372" on="1"/>
        <pt x="1468" y="1075" on="0"/>
        <pt x="1468" y="825" on="1"/>
        <pt x="1468" y="453" on="0"/>
        <pt x="1415" y="27" on="1"/>
        <pt x="1348" y="-504" on="0"/>
        <pt x="1080" y="-636" on="1"/>
        <pt x="1015" y="-668" on="0"/>
        <pt x="859" y="-668" on="0"/>
        <pt x="734" y="-613" on="0"/>
        <pt x="688" y="-566" on="1"/>
        <pt x="592" y="-468" on="0"/>
        <pt x="590" y="-330" on="1"/>
        <pt x="590" y="-308" on="0"/>
        <pt x="621" y="-276" on="0"/>
        <pt x="643" y="-276" on="1"/>
        <pt x="665" y="-276" on="0"/>
        <pt x="696" y="-308" on="0"/>
        <pt x="696" y="-377" on="0"/>
        <pt x="735" y="-461" on="0"/>
        <pt x="768" y="-493" on="1"/>
        <pt x="840" y="-563" on="0"/>
        <pt x="1005" y="-563" on="0"/>
        <pt x="1115" y="-490" on="0"/>
        <pt x="1197" y="-377" on="0"/>
        <pt x="1253" y="-238" on="0"/>
        <pt x="1270" y="-172" on="1"/>
        <pt x="1298" y="-71" on="0"/>
        <pt x="1309" y="27" on="1"/>
        <pt x="1244" y="181" on="0"/>
        <pt x="1044" y="553" on="0"/>
        <pt x="947" y="732" on="0"/>
        <pt x="849" y="908" on="0"/>
        <pt x="759" y="1067" on="0"/>
        <pt x="681" y="1205" on="0"/>
        <pt x="651" y="1257" on="1"/>
        <pt x="621" y="98" on="1"/>
        <pt x="678" y="94" on="0"/>
        <pt x="778" y="86" on="1"/>
        <pt x="825" y="76" on="0"/>
        <pt x="825" y="29" on="1"/>
        <pt x="823" y="7" on="0"/>
        <pt x="792" y="-18" on="0"/>
        <pt x="772" y="-18" on="1"/>
        <pt x="768" y="-18" on="1"/>
        <pt x="449" y="14" on="0"/>
        <pt x="137" y="-18" on="1"/>
        <pt x="133" y="-18" on="1"/>
        <pt x="111" y="-18" on="0"/>
        <pt x="80" y="13" on="0"/>
        <pt x="80" y="33" on="1"/>
        <pt x="80" y="53" on="0"/>
        <pt x="107" y="83" on="0"/>
        <pt x="164" y="89" on="0"/>
        <pt x="239" y="95" on="0"/>
        <pt x="276" y="98" on="1"/>
        <pt x="299" y="1360" on="1"/>
        <pt x="213" y="1366" on="0"/>
        <pt x="125" y="1378" on="1"/>
        <pt x="105" y="1381" on="0"/>
        <pt x="80" y="1412" on="0"/>
        <pt x="80" y="1456" on="0"/>
        <pt x="116" y="1483" on="0"/>
        <pt x="133" y="1483" on="1"/>
        <pt x="139" y="1483" on="1"/>
        <pt x="359" y="1454" on="0"/>
        <pt x="553" y="1454" on="1"/>
        <pt x="593" y="1454" on="0"/>
        <pt x="637" y="1454" on="0"/>
        <pt x="644" y="1452" on="1"/>
        <pt x="660" y="1447" on="0"/>
        <pt x="676" y="1423" on="0"/>
        <pt x="721" y="1348" on="0"/>
        <pt x="791" y="1226" on="0"/>
        <pt x="882" y="1066" on="0"/>
        <pt x="984" y="884" on="0"/>
        <pt x="1093" y="687" on="0"/>
        <pt x="1145" y="590" on="1"/>
        <pt x="1276" y="343" on="0"/>
        <pt x="1333" y="227" on="1"/>
        <pt x="1364" y="539" on="0"/>
        <pt x="1364" y="770" on="1"/>
        <pt x="1364" y="1071" on="0"/>
        <pt x="1317" y="1364" on="1"/>
        <pt x="1304" y="1362" on="0"/>
        <pt x="1292" y="1362" on="1"/>
        <pt x="1266" y="1362" on="1"/>
        <pt x="1130" y="1362" on="0"/>
        <pt x="1096" y="1401" on="0"/>
        <pt x="1096" y="1443" on="0"/>
        <pt x="1129" y="1473" on="0"/>
        <pt x="1149" y="1473" on="1"/>
      </contour>
    </TTGlyph>
    <TTGlyph name="Eogonek" xMin="94" yMin="-594" xMax="1276" yMax="1475">
      <contour>
        <pt x="1276" y="-311" on="1"/>
        <pt x="1268" y="-368" on="0"/>
        <pt x="1194" y="-482" on="0"/>
        <pt x="1152" y="-518" on="1"/>
        <pt x="1062" y="-594" on="0"/>
        <pt x="954" y="-594" on="1"/>
        <pt x="844" y="-594" on="0"/>
        <pt x="762" y="-504" on="1"/>
        <pt x="682" y="-417" on="0"/>
        <pt x="682" y="-309" on="1"/>
        <pt x="682" y="-145" on="0"/>
        <pt x="864" y="-2" on="1"/>
        <pt x="810" y="0" on="0"/>
        <pt x="758" y="0" on="1"/>
        <pt x="653" y="0" on="1"/>
        <pt x="393" y="0" on="0"/>
        <pt x="152" y="-18" on="1"/>
        <pt x="147" y="-18" on="1"/>
        <pt x="124" y="-16" on="0"/>
        <pt x="94" y="12" on="0"/>
        <pt x="94" y="55" on="0"/>
        <pt x="122" y="84" on="0"/>
        <pt x="175" y="89" on="0"/>
        <pt x="240" y="92" on="0"/>
        <pt x="272" y="94" on="1"/>
        <pt x="272" y="1313" on="1"/>
        <pt x="240" y="1315" on="0"/>
        <pt x="208" y="1315" on="1"/>
        <pt x="145" y="1315" on="1"/>
        <pt x="124" y="1317" on="0"/>
        <pt x="94" y="1346" on="0"/>
        <pt x="94" y="1368" on="1"/>
        <pt x="94" y="1390" on="0"/>
        <pt x="126" y="1421" on="0"/>
        <pt x="185" y="1419" on="0"/>
        <pt x="220" y="1419" on="1"/>
        <pt x="291" y="1419" on="1"/>
        <pt x="714" y="1419" on="0"/>
        <pt x="1130" y="1475" on="1"/>
        <pt x="1139" y="1475" on="1"/>
        <pt x="1159" y="1475" on="0"/>
        <pt x="1187" y="1448" on="0"/>
        <pt x="1190" y="1430" on="1"/>
        <pt x="1233" y="1092" on="1"/>
        <pt x="1233" y="1085" on="1"/>
        <pt x="1233" y="1062" on="0"/>
        <pt x="1200" y="1034" on="0"/>
        <pt x="1161" y="1034" on="0"/>
        <pt x="1132" y="1059" on="0"/>
        <pt x="1128" y="1079" on="1"/>
        <pt x="1092" y="1364" on="1"/>
        <pt x="894" y="1337" on="0"/>
        <pt x="625" y="1323" on="1"/>
        <pt x="625" y="664" on="1"/>
        <pt x="840" y="673" on="0"/>
        <pt x="961" y="696" on="1"/>
        <pt x="971" y="696" on="1"/>
        <pt x="992" y="696" on="0"/>
        <pt x="1024" y="665" on="0"/>
        <pt x="1024" y="645" on="1"/>
        <pt x="1024" y="603" on="0"/>
        <pt x="981" y="592" on="1"/>
        <pt x="863" y="569" on="0"/>
        <pt x="625" y="559" on="1"/>
        <pt x="625" y="104" on="1"/>
        <pt x="653" y="104" on="1"/>
        <pt x="922" y="104" on="0"/>
        <pt x="1135" y="90" on="1"/>
        <pt x="1171" y="358" on="1"/>
        <pt x="1175" y="378" on="0"/>
        <pt x="1204" y="403" on="0"/>
        <pt x="1247" y="403" on="0"/>
        <pt x="1276" y="369" on="0"/>
        <pt x="1276" y="352" on="1"/>
        <pt x="1276" y="344" on="1"/>
        <pt x="1233" y="27" on="1"/>
        <pt x="1230" y="7" on="0"/>
        <pt x="1200" y="-18" on="0"/>
        <pt x="1180" y="-18" on="1"/>
        <pt x="1178" y="-18" on="1"/>
        <pt x="1053" y="-10" on="1"/>
        <pt x="936" y="-83" on="0"/>
        <pt x="936" y="-193" on="1"/>
        <pt x="936" y="-247" on="0"/>
        <pt x="960" y="-285" on="1"/>
        <pt x="1005" y="-354" on="0"/>
        <pt x="1057" y="-354" on="1"/>
        <pt x="1106" y="-354" on="0"/>
        <pt x="1163" y="-300" on="1"/>
        <pt x="1176" y="-287" on="0"/>
        <pt x="1197" y="-260" on="0"/>
        <pt x="1246" y="-260" on="0"/>
        <pt x="1276" y="-294" on="0"/>
      </contour>
      <contour>
        <pt x="520" y="1319" on="1"/>
        <pt x="450" y="1315" on="0"/>
        <pt x="377" y="1315" on="1"/>
        <pt x="377" y="100" on="1"/>
        <pt x="520" y="104" on="1"/>
      </contour>
      <contour>
        <pt x="829" y="-186" on="1"/>
        <pt x="788" y="-250" on="0"/>
        <pt x="788" y="-344" on="0"/>
        <pt x="816" y="-408" on="0"/>
        <pt x="839" y="-434" on="1"/>
        <pt x="889" y="-489" on="0"/>
        <pt x="954" y="-489" on="1"/>
        <pt x="1004" y="-489" on="0"/>
        <pt x="1053" y="-459" on="1"/>
        <pt x="958" y="-453" on="0"/>
        <pt x="892" y="-368" on="1"/>
        <pt x="829" y="-289" on="0"/>
        <pt x="829" y="-193" on="1"/>
      </contour>
    </TTGlyph>
    <TTGlyph name="Eth" xMin="74" yMin="-43" xMax="1444" yMax="1456">
      <contour>
        <pt x="387" y="74" on="1"/>
        <pt x="474" y="66" on="0"/>
        <pt x="528" y="63" on="1"/>
        <pt x="528" y="1350" on="1"/>
        <pt x="461" y="1345" on="0"/>
        <pt x="387" y="1333" on="1"/>
      </contour>
      <contour>
        <pt x="635" y="702" on="1"/>
        <pt x="687" y="707" on="0"/>
        <pt x="829" y="731" on="1"/>
        <pt x="852" y="731" on="0"/>
        <pt x="881" y="698" on="0"/>
        <pt x="881" y="678" on="1"/>
        <pt x="881" y="638" on="0"/>
        <pt x="840" y="627" on="1"/>
        <pt x="737" y="603" on="0"/>
        <pt x="635" y="598" on="1"/>
        <pt x="635" y="63" on="1"/>
        <pt x="823" y="57" on="0"/>
        <pt x="990" y="142" on="1"/>
        <pt x="1236" y="267" on="0"/>
        <pt x="1314" y="530" on="1"/>
        <pt x="1339" y="616" on="0"/>
        <pt x="1339" y="870" on="0"/>
        <pt x="1232" y="1117" on="0"/>
        <pt x="1138" y="1200" on="1"/>
        <pt x="942" y="1370" on="0"/>
        <pt x="635" y="1352" on="1"/>
      </contour>
      <contour>
        <pt x="283" y="1315" on="1"/>
        <pt x="145" y="1280" on="1"/>
        <pt x="135" y="1276" on="0"/>
        <pt x="112" y="1276" on="0"/>
        <pt x="84" y="1296" on="0"/>
        <pt x="73" y="1322" on="0"/>
        <pt x="76" y="1343" on="0"/>
        <pt x="82" y="1352" on="1"/>
        <pt x="94" y="1374" on="0"/>
        <pt x="111" y="1378" on="1"/>
        <pt x="115" y="1379" on="0"/>
        <pt x="197" y="1404" on="0"/>
        <pt x="266" y="1418" on="1"/>
        <pt x="443" y="1456" on="0"/>
        <pt x="801" y="1456" on="0"/>
        <pt x="1101" y="1362" on="0"/>
        <pt x="1210" y="1269" on="1"/>
        <pt x="1444" y="1071" on="0"/>
        <pt x="1444" y="711" on="1"/>
        <pt x="1444" y="353" on="0"/>
        <pt x="1182" y="148" on="1"/>
        <pt x="938" y="-43" on="0"/>
        <pt x="571" y="-43" on="1"/>
        <pt x="334" y="-43" on="0"/>
        <pt x="166" y="12" on="1"/>
        <pt x="133" y="22" on="0"/>
        <pt x="114" y="29" on="0"/>
        <pt x="96" y="56" on="0"/>
        <pt x="96" y="96" on="0"/>
        <pt x="129" y="125" on="0"/>
        <pt x="156" y="125" on="0"/>
        <pt x="166" y="121" on="1"/>
        <pt x="166" y="121" on="0"/>
        <pt x="283" y="90" on="1"/>
        <pt x="283" y="604" on="1"/>
        <pt x="119" y="627" on="1"/>
        <pt x="100" y="630" on="0"/>
        <pt x="76" y="659" on="0"/>
        <pt x="76" y="691" on="0"/>
        <pt x="87" y="711" on="0"/>
        <pt x="95" y="718" on="1"/>
        <pt x="112" y="731" on="0"/>
        <pt x="129" y="731" on="1"/>
        <pt x="137" y="729" on="1"/>
        <pt x="283" y="711" on="1"/>
      </contour>
    </TTGlyph>
    <TTGlyph name="Euro" xMin="72" yMin="-37" xMax="1696" yMax="1487">
      <contour>
        <pt x="780" y="1313" on="1"/>
        <pt x="436" y="1141" on="0"/>
        <pt x="436" y="684" on="1"/>
        <pt x="436" y="392" on="0"/>
        <pt x="616" y="220" on="1"/>
        <pt x="676" y="162" on="0"/>
        <pt x="756" y="127" on="1"/>
        <pt x="626" y="285" on="0"/>
        <pt x="596" y="527" on="1"/>
        <pt x="586" y="614" on="0"/>
        <pt x="586" y="721" on="1"/>
        <pt x="586" y="1111" on="0"/>
      </contour>
      <contour>
        <pt x="1096" y="1487" on="1"/>
        <pt x="1372" y="1487" on="0"/>
        <pt x="1540" y="1294" on="1"/>
        <pt x="1593" y="1452" on="1"/>
        <pt x="1608" y="1487" on="0"/>
        <pt x="1667" y="1487" on="0"/>
        <pt x="1696" y="1452" on="0"/>
        <pt x="1696" y="1442" on="1"/>
        <pt x="1696" y="1426" on="1"/>
        <pt x="1696" y="1422" on="0"/>
        <pt x="1694" y="1417" on="1"/>
        <pt x="1532" y="952" on="1"/>
        <pt x="1521" y="918" on="0"/>
        <pt x="1458" y="918" on="0"/>
        <pt x="1432" y="952" on="0"/>
        <pt x="1432" y="963" on="1"/>
        <pt x="1432" y="978" on="1"/>
        <pt x="1432" y="982" on="0"/>
        <pt x="1434" y="987" on="1"/>
        <pt x="1497" y="1174" on="1"/>
        <pt x="1447" y="1256" on="0"/>
        <pt x="1358" y="1314" on="1"/>
        <pt x="1264" y="1376" on="0"/>
        <pt x="1069" y="1376" on="0"/>
        <pt x="902" y="1289" on="0"/>
        <pt x="842" y="1218" on="1"/>
        <pt x="724" y="1079" on="0"/>
        <pt x="698" y="874" on="1"/>
        <pt x="849" y="885" on="0"/>
        <pt x="969" y="901" on="1"/>
        <pt x="977" y="901" on="1"/>
        <pt x="999" y="901" on="0"/>
        <pt x="1028" y="870" on="0"/>
        <pt x="1028" y="850" on="1"/>
        <pt x="1028" y="830" on="0"/>
        <pt x="1003" y="800" on="0"/>
        <pt x="983" y="797" on="1"/>
        <pt x="829" y="776" on="0"/>
        <pt x="690" y="770" on="1"/>
        <pt x="690" y="721" on="1"/>
        <pt x="690" y="654" on="0"/>
        <pt x="694" y="592" on="1"/>
        <pt x="833" y="598" on="0"/>
        <pt x="971" y="618" on="0"/>
        <pt x="975" y="618" on="0"/>
        <pt x="1000" y="618" on="0"/>
        <pt x="1028" y="585" on="0"/>
        <pt x="1028" y="547" on="0"/>
        <pt x="1003" y="517" on="0"/>
        <pt x="958" y="510" on="1"/>
        <pt x="874" y="497" on="0"/>
        <pt x="707" y="487" on="1"/>
        <pt x="736" y="326" on="0"/>
        <pt x="821" y="212" on="1"/>
        <pt x="919" y="79" on="0"/>
        <pt x="1063" y="68" on="1"/>
        <pt x="1299" y="61" on="0"/>
        <pt x="1457" y="241" on="1"/>
        <pt x="1524" y="319" on="0"/>
        <pt x="1561" y="420" on="1"/>
        <pt x="1572" y="461" on="0"/>
        <pt x="1635" y="461" on="0"/>
        <pt x="1663" y="428" on="0"/>
        <pt x="1663" y="408" on="1"/>
        <pt x="1663" y="395" on="1"/>
        <pt x="1662" y="393" on="0"/>
        <pt x="1651" y="357" on="0"/>
        <pt x="1638" y="328" on="1"/>
        <pt x="1517" y="52" on="0"/>
        <pt x="1218" y="-18" on="1"/>
        <pt x="1139" y="-37" on="0"/>
        <pt x="915" y="-37" on="0"/>
        <pt x="682" y="39" on="0"/>
        <pt x="590" y="108" on="1"/>
        <pt x="392" y="257" on="0"/>
        <pt x="348" y="489" on="1"/>
        <pt x="221" y="498" on="0"/>
        <pt x="117" y="514" on="1"/>
        <pt x="97" y="517" on="0"/>
        <pt x="72" y="547" on="0"/>
        <pt x="72" y="591" on="0"/>
        <pt x="108" y="618" on="0"/>
        <pt x="129" y="618" on="0"/>
        <pt x="156" y="614" on="1"/>
        <pt x="236" y="602" on="0"/>
        <pt x="336" y="596" on="1"/>
        <pt x="332" y="640" on="0"/>
        <pt x="332" y="684" on="1"/>
        <pt x="332" y="730" on="0"/>
        <pt x="336" y="774" on="1"/>
        <pt x="176" y="788" on="0"/>
        <pt x="136" y="794" on="1"/>
        <pt x="72" y="804" on="0"/>
        <pt x="72" y="850" on="1"/>
        <pt x="72" y="875" on="0"/>
        <pt x="108" y="901" on="0"/>
        <pt x="125" y="901" on="1"/>
        <pt x="131" y="901" on="1"/>
        <pt x="238" y="885" on="0"/>
        <pt x="348" y="879" on="1"/>
        <pt x="416" y="1291" on="0"/>
        <pt x="780" y="1432" on="1"/>
        <pt x="924" y="1487" on="0"/>
      </contour>
    </TTGlyph>
    <TTGlyph name="F" xMin="78" yMin="-18" xMax="1300" yMax="1483">
      <contour>
        <pt x="385" y="115" on="1"/>
        <pt x="455" y="119" on="0"/>
        <pt x="526" y="119" on="1"/>
        <pt x="541" y="1333" on="1"/>
        <pt x="399" y="1333" on="1"/>
      </contour>
      <contour>
        <pt x="152" y="1446" on="1"/>
        <pt x="285" y="1438" on="0"/>
        <pt x="879" y="1438" on="0"/>
        <pt x="1243" y="1483" on="1"/>
        <pt x="1249" y="1483" on="1"/>
        <pt x="1272" y="1483" on="0"/>
        <pt x="1300" y="1452" on="0"/>
        <pt x="1300" y="1432" on="1"/>
        <pt x="1300" y="1425" on="1"/>
        <pt x="1260" y="999" on="1"/>
        <pt x="1258" y="979" on="0"/>
        <pt x="1228" y="952" on="0"/>
        <pt x="1184" y="952" on="0"/>
        <pt x="1155" y="987" on="0"/>
        <pt x="1155" y="1006" on="1"/>
        <pt x="1155" y="1010" on="1"/>
        <pt x="1190" y="1370" on="1"/>
        <pt x="905" y="1341" on="0"/>
        <pt x="647" y="1335" on="1"/>
        <pt x="639" y="696" on="1"/>
        <pt x="769" y="696" on="0"/>
        <pt x="940" y="727" on="0"/>
        <pt x="965" y="727" on="0"/>
        <pt x="994" y="703" on="0"/>
        <pt x="997" y="658" on="0"/>
        <pt x="973" y="626" on="0"/>
        <pt x="954" y="623" on="1"/>
        <pt x="788" y="592" on="0"/>
        <pt x="637" y="592" on="1"/>
        <pt x="633" y="117" on="1"/>
        <pt x="676" y="115" on="0"/>
        <pt x="770" y="111" on="0"/>
        <pt x="807" y="108" on="1"/>
        <pt x="868" y="102" on="0"/>
        <pt x="868" y="49" on="1"/>
        <pt x="866" y="29" on="0"/>
        <pt x="837" y="2" on="0"/>
        <pt x="817" y="2" on="1"/>
        <pt x="813" y="2" on="1"/>
        <pt x="659" y="14" on="0"/>
        <pt x="369" y="14" on="0"/>
        <pt x="137" y="-18" on="1"/>
        <pt x="131" y="-18" on="1"/>
        <pt x="108" y="-18" on="0"/>
        <pt x="78" y="13" on="0"/>
        <pt x="78" y="53" on="0"/>
        <pt x="103" y="83" on="0"/>
        <pt x="123" y="86" on="1"/>
        <pt x="205" y="98" on="0"/>
        <pt x="281" y="104" on="1"/>
        <pt x="295" y="1335" on="1"/>
        <pt x="258" y="1337" on="0"/>
        <pt x="184" y="1339" on="0"/>
        <pt x="154" y="1341" on="1"/>
        <pt x="96" y="1345" on="0"/>
        <pt x="96" y="1395" on="1"/>
        <pt x="96" y="1416" on="0"/>
        <pt x="128" y="1446" on="0"/>
        <pt x="150" y="1446" on="1"/>
      </contour>
    </TTGlyph>
    <TTGlyph name="G" xMin="102" yMin="-57" xMax="1565" yMax="1487">
      <contour>
        <pt x="514" y="113" on="1"/>
        <pt x="346" y="324" on="0"/>
        <pt x="346" y="721" on="1"/>
        <pt x="346" y="1100" on="0"/>
        <pt x="539" y="1307" on="1"/>
        <pt x="207" y="1132" on="0"/>
        <pt x="207" y="684" on="1"/>
        <pt x="207" y="371" on="0"/>
        <pt x="378" y="210" on="1"/>
        <pt x="436" y="156" on="0"/>
      </contour>
      <contour>
        <pt x="866" y="1487" on="1"/>
        <pt x="1147" y="1487" on="0"/>
        <pt x="1309" y="1294" on="1"/>
        <pt x="1364" y="1452" on="1"/>
        <pt x="1377" y="1487" on="0"/>
        <pt x="1438" y="1487" on="0"/>
        <pt x="1466" y="1452" on="0"/>
        <pt x="1466" y="1442" on="1"/>
        <pt x="1466" y="1427" on="0"/>
        <pt x="1462" y="1417" on="1"/>
        <pt x="1303" y="952" on="1"/>
        <pt x="1292" y="918" on="0"/>
        <pt x="1230" y="918" on="0"/>
        <pt x="1200" y="951" on="0"/>
        <pt x="1200" y="962" on="1"/>
        <pt x="1200" y="977" on="0"/>
        <pt x="1204" y="987" on="1"/>
        <pt x="1268" y="1174" on="1"/>
        <pt x="1182" y="1307" on="0"/>
        <pt x="1040" y="1359" on="1"/>
        <pt x="993" y="1376" on="0"/>
        <pt x="946" y="1376" on="1"/>
        <pt x="714" y="1376" on="0"/>
        <pt x="580" y="1184" on="1"/>
        <pt x="453" y="1002" on="0"/>
        <pt x="453" y="721" on="1"/>
        <pt x="453" y="488" on="0"/>
        <pt x="532" y="295" on="1"/>
        <pt x="592" y="145" on="0"/>
        <pt x="700" y="82" on="1"/>
        <pt x="756" y="49" on="0"/>
        <pt x="951" y="49" on="0"/>
        <pt x="1127" y="109" on="0"/>
        <pt x="1184" y="158" on="1"/>
        <pt x="1294" y="254" on="0"/>
        <pt x="1294" y="399" on="1"/>
        <pt x="1294" y="501" on="0"/>
        <pt x="1240" y="570" on="1"/>
        <pt x="1205" y="616" on="0"/>
        <pt x="1159" y="637" on="1"/>
        <pt x="1033" y="620" on="0"/>
        <pt x="950" y="580" on="1"/>
        <pt x="935" y="573" on="0"/>
        <pt x="923" y="565" on="0"/>
        <pt x="886" y="565" on="0"/>
        <pt x="856" y="598" on="0"/>
        <pt x="856" y="647" on="0"/>
        <pt x="883" y="664" on="1"/>
        <pt x="886" y="665" on="0"/>
        <pt x="944" y="693" on="0"/>
        <pt x="996" y="710" on="1"/>
        <pt x="1132" y="752" on="0"/>
        <pt x="1399" y="752" on="0"/>
        <pt x="1522" y="731" on="1"/>
        <pt x="1540" y="728" on="0"/>
        <pt x="1565" y="699" on="0"/>
        <pt x="1565" y="654" on="0"/>
        <pt x="1529" y="627" on="0"/>
        <pt x="1505" y="627" on="0"/>
        <pt x="1478" y="632" on="1"/>
        <pt x="1433" y="642" on="0"/>
        <pt x="1313" y="647" on="1"/>
        <pt x="1401" y="545" on="0"/>
        <pt x="1401" y="397" on="1"/>
        <pt x="1401" y="173" on="0"/>
        <pt x="1212" y="50" on="1"/>
        <pt x="1045" y="-57" on="0"/>
        <pt x="827" y="-57" on="1"/>
        <pt x="488" y="-47" on="0"/>
        <pt x="102" y="343" on="0"/>
        <pt x="102" y="684" on="1"/>
        <pt x="102" y="970" on="0"/>
        <pt x="222" y="1162" on="1"/>
        <pt x="324" y="1328" on="0"/>
        <pt x="512" y="1414" on="1"/>
        <pt x="673" y="1487" on="0"/>
      </contour>
    </TTGlyph>
    <TTGlyph name="Gbreve" xMin="102" yMin="-57" xMax="1565" yMax="2020">
      <component glyphName="G" x="0" y="0" flags="0x1204"/>
      <component glyphName="breve" x="516" y="373" flags="0x1004"/>
    </TTGlyph>
    <TTGlyph name="Gcircumflex" xMin="102" yMin="-57" xMax="1565" yMax="2099">
      <component glyphName="G" x="0" y="0" flags="0x1204"/>
      <component glyphName="circumflex" x="410" y="379" flags="0x1004"/>
    </TTGlyph>
    <TTGlyph name="Gcommaaccent" xMin="102" yMin="-604" xMax="1565" yMax="1487">
      <component glyphName="G" x="0" y="0" flags="0x1204"/>
      <component glyphName="uni0326" x="551" y="0" flags="0x1004"/>
    </TTGlyph>
    <TTGlyph name="Gdotaccent" xMin="102" yMin="-57" xMax="1565" yMax="1853">
      <component glyphName="G" x="0" y="0" flags="0x1204"/>
      <component glyphName="dotaccent" x="690" y="268" flags="0x1004"/>
    </TTGlyph>
    <TTGlyph name="H" xMin="80" yMin="-27" xMax="1683" yMax="1475">
      <contour>
        <pt x="549" y="1341" on="1"/>
        <pt x="549" y="1341" on="0"/>
        <pt x="476" y="1341" on="1"/>
        <pt x="441" y="1341" on="0"/>
        <pt x="403" y="1343" on="1"/>
        <pt x="381" y="94" on="1"/>
        <pt x="514" y="94" on="1"/>
      </contour>
      <contour>
        <pt x="1632" y="1475" on="1"/>
        <pt x="1672" y="1475" on="0"/>
        <pt x="1683" y="1434" on="1"/>
        <pt x="1683" y="1382" on="0"/>
        <pt x="1642" y="1370" on="1"/>
        <pt x="1538" y="1349" on="0"/>
        <pt x="1434" y="1341" on="1"/>
        <pt x="1378" y="837" on="0"/>
        <pt x="1378" y="186" on="1"/>
        <pt x="1378" y="88" on="1"/>
        <pt x="1473" y="88" on="0"/>
        <pt x="1579" y="78" on="1"/>
        <pt x="1626" y="68" on="0"/>
        <pt x="1626" y="20" on="1"/>
        <pt x="1624" y="-1" on="0"/>
        <pt x="1593" y="-27" on="0"/>
        <pt x="1573" y="-27" on="1"/>
        <pt x="1569" y="-27" on="1"/>
        <pt x="1444" y="-16" on="0"/>
        <pt x="1348" y="-16" on="1"/>
        <pt x="1249" y="-16" on="0"/>
        <pt x="1137" y="-27" on="1"/>
        <pt x="1130" y="-27" on="1"/>
        <pt x="1107" y="-27" on="0"/>
        <pt x="1077" y="5" on="0"/>
        <pt x="1077" y="25" on="1"/>
        <pt x="1077" y="45" on="0"/>
        <pt x="1104" y="75" on="0"/>
        <pt x="1133" y="78" on="1"/>
        <pt x="1184" y="83" on="0"/>
        <pt x="1274" y="88" on="1"/>
        <pt x="1274" y="186" on="1"/>
        <pt x="1274" y="405" on="0"/>
        <pt x="1280" y="596" on="1"/>
        <pt x="1136" y="582" on="0"/>
        <pt x="768" y="582" on="0"/>
        <pt x="633" y="596" on="1"/>
        <pt x="621" y="90" on="1"/>
        <pt x="678" y="86" on="0"/>
        <pt x="778" y="78" on="1"/>
        <pt x="798" y="75" on="0"/>
        <pt x="825" y="45" on="0"/>
        <pt x="825" y="2" on="0"/>
        <pt x="791" y="-27" on="0"/>
        <pt x="772" y="-27" on="1"/>
        <pt x="768" y="-27" on="1"/>
        <pt x="449" y="5" on="0"/>
        <pt x="137" y="-27" on="1"/>
        <pt x="133" y="-27" on="1"/>
        <pt x="110" y="-27" on="0"/>
        <pt x="80" y="5" on="0"/>
        <pt x="80" y="25" on="1"/>
        <pt x="80" y="45" on="0"/>
        <pt x="107" y="75" on="0"/>
        <pt x="164" y="81" on="0"/>
        <pt x="239" y="87" on="0"/>
        <pt x="276" y="90" on="1"/>
        <pt x="299" y="1352" on="1"/>
        <pt x="213" y="1358" on="0"/>
        <pt x="125" y="1370" on="1"/>
        <pt x="105" y="1373" on="0"/>
        <pt x="80" y="1403" on="0"/>
        <pt x="80" y="1447" on="0"/>
        <pt x="116" y="1475" on="0"/>
        <pt x="133" y="1475" on="1"/>
        <pt x="139" y="1475" on="1"/>
        <pt x="331" y="1446" on="0"/>
        <pt x="695" y="1446" on="0"/>
        <pt x="795" y="1456" on="1"/>
        <pt x="799" y="1456" on="1"/>
        <pt x="819" y="1456" on="0"/>
        <pt x="850" y="1429" on="0"/>
        <pt x="852" y="1384" on="0"/>
        <pt x="823" y="1354" on="0"/>
        <pt x="794" y="1352" on="1"/>
        <pt x="705" y="1344" on="0"/>
        <pt x="653" y="1341" on="1"/>
        <pt x="637" y="702" on="1"/>
        <pt x="769" y="686" on="0"/>
        <pt x="902" y="686" on="1"/>
        <pt x="1139" y="686" on="0"/>
        <pt x="1284" y="700" on="1"/>
        <pt x="1296" y="1046" on="0"/>
        <pt x="1329" y="1337" on="1"/>
        <pt x="1228" y="1342" on="0"/>
        <pt x="1192" y="1349" on="1"/>
        <pt x="1130" y="1359" on="0"/>
        <pt x="1130" y="1403" on="1"/>
        <pt x="1130" y="1428" on="0"/>
        <pt x="1165" y="1456" on="0"/>
        <pt x="1182" y="1456" on="1"/>
        <pt x="1190" y="1456" on="1"/>
        <pt x="1260" y="1442" on="0"/>
        <pt x="1480" y="1442" on="0"/>
        <pt x="1620" y="1475" on="1"/>
      </contour>
    </TTGlyph>
    <TTGlyph name="Hbar" xMin="80" yMin="-27" xMax="1683" yMax="1475">
      <contour>
        <pt x="549" y="1341" on="1"/>
        <pt x="549" y="1341" on="0"/>
        <pt x="476" y="1341" on="1"/>
        <pt x="441" y="1341" on="0"/>
        <pt x="403" y="1343" on="1"/>
        <pt x="381" y="94" on="1"/>
        <pt x="514" y="94" on="1"/>
      </contour>
      <contour>
        <pt x="1403" y="977" on="1"/>
        <pt x="1535" y="985" on="0"/>
        <pt x="1575" y="995" on="1"/>
        <pt x="1597" y="995" on="0"/>
        <pt x="1626" y="964" on="0"/>
        <pt x="1626" y="922" on="0"/>
        <pt x="1601" y="893" on="0"/>
        <pt x="1575" y="890" on="1"/>
        <pt x="1528" y="883" on="0"/>
        <pt x="1397" y="874" on="1"/>
        <pt x="1378" y="534" on="0"/>
        <pt x="1378" y="186" on="1"/>
        <pt x="1378" y="88" on="1"/>
        <pt x="1473" y="88" on="0"/>
        <pt x="1579" y="78" on="1"/>
        <pt x="1626" y="68" on="0"/>
        <pt x="1626" y="20" on="1"/>
        <pt x="1624" y="-1" on="0"/>
        <pt x="1593" y="-27" on="0"/>
        <pt x="1573" y="-27" on="1"/>
        <pt x="1569" y="-27" on="1"/>
        <pt x="1444" y="-16" on="0"/>
        <pt x="1348" y="-16" on="1"/>
        <pt x="1249" y="-16" on="0"/>
        <pt x="1137" y="-27" on="1"/>
        <pt x="1130" y="-27" on="1"/>
        <pt x="1107" y="-27" on="0"/>
        <pt x="1077" y="5" on="0"/>
        <pt x="1077" y="25" on="1"/>
        <pt x="1077" y="45" on="0"/>
        <pt x="1104" y="75" on="0"/>
        <pt x="1133" y="78" on="1"/>
        <pt x="1184" y="83" on="0"/>
        <pt x="1274" y="88" on="1"/>
        <pt x="1274" y="186" on="1"/>
        <pt x="1274" y="405" on="0"/>
        <pt x="1280" y="596" on="1"/>
        <pt x="1136" y="582" on="0"/>
        <pt x="768" y="582" on="0"/>
        <pt x="633" y="596" on="1"/>
        <pt x="621" y="90" on="1"/>
        <pt x="778" y="78" on="1"/>
        <pt x="798" y="75" on="0"/>
        <pt x="825" y="45" on="0"/>
        <pt x="825" y="2" on="0"/>
        <pt x="791" y="-27" on="0"/>
        <pt x="772" y="-27" on="1"/>
        <pt x="768" y="-27" on="1"/>
        <pt x="449" y="5" on="0"/>
        <pt x="137" y="-27" on="1"/>
        <pt x="133" y="-27" on="1"/>
        <pt x="110" y="-27" on="0"/>
        <pt x="80" y="5" on="0"/>
        <pt x="80" y="25" on="1"/>
        <pt x="80" y="45" on="0"/>
        <pt x="107" y="75" on="0"/>
        <pt x="127" y="78" on="1"/>
        <pt x="276" y="90" on="1"/>
        <pt x="291" y="877" on="1"/>
        <pt x="175" y="884" on="0"/>
        <pt x="148" y="889" on="1"/>
        <pt x="96" y="897" on="0"/>
        <pt x="96" y="942" on="1"/>
        <pt x="96" y="964" on="0"/>
        <pt x="127" y="995" on="0"/>
        <pt x="150" y="995" on="1"/>
        <pt x="170" y="988" on="0"/>
        <pt x="293" y="979" on="1"/>
        <pt x="299" y="1352" on="1"/>
        <pt x="213" y="1358" on="0"/>
        <pt x="125" y="1370" on="1"/>
        <pt x="105" y="1373" on="0"/>
        <pt x="80" y="1403" on="0"/>
        <pt x="80" y="1447" on="0"/>
        <pt x="116" y="1475" on="0"/>
        <pt x="133" y="1475" on="1"/>
        <pt x="139" y="1475" on="1"/>
        <pt x="331" y="1446" on="0"/>
        <pt x="695" y="1446" on="0"/>
        <pt x="795" y="1456" on="1"/>
        <pt x="799" y="1456" on="1"/>
        <pt x="819" y="1456" on="0"/>
        <pt x="850" y="1429" on="0"/>
        <pt x="852" y="1384" on="0"/>
        <pt x="823" y="1354" on="0"/>
        <pt x="794" y="1352" on="1"/>
        <pt x="705" y="1344" on="0"/>
        <pt x="653" y="1341" on="1"/>
        <pt x="643" y="963" on="1"/>
        <pt x="729" y="958" on="0"/>
        <pt x="890" y="958" on="0"/>
        <pt x="986" y="960" on="0"/>
        <pt x="1044" y="962" on="1"/>
        <pt x="1213" y="968" on="0"/>
        <pt x="1298" y="973" on="1"/>
        <pt x="1312" y="1200" on="0"/>
        <pt x="1329" y="1337" on="1"/>
        <pt x="1228" y="1342" on="0"/>
        <pt x="1192" y="1349" on="1"/>
        <pt x="1130" y="1359" on="0"/>
        <pt x="1130" y="1403" on="1"/>
        <pt x="1130" y="1428" on="0"/>
        <pt x="1165" y="1456" on="0"/>
        <pt x="1182" y="1456" on="1"/>
        <pt x="1190" y="1456" on="1"/>
        <pt x="1260" y="1442" on="0"/>
        <pt x="1480" y="1442" on="0"/>
        <pt x="1620" y="1475" on="1"/>
        <pt x="1632" y="1475" on="1"/>
        <pt x="1672" y="1475" on="0"/>
        <pt x="1683" y="1434" on="1"/>
        <pt x="1683" y="1382" on="0"/>
        <pt x="1642" y="1370" on="1"/>
        <pt x="1538" y="1349" on="0"/>
        <pt x="1434" y="1341" on="1"/>
        <pt x="1418" y="1203" on="0"/>
      </contour>
      <contour>
        <pt x="1292" y="870" on="1"/>
        <pt x="1082" y="860" on="0"/>
        <pt x="952" y="860" on="1"/>
        <pt x="764" y="860" on="1"/>
        <pt x="707" y="860" on="0"/>
        <pt x="641" y="862" on="1"/>
        <pt x="637" y="702" on="1"/>
        <pt x="769" y="686" on="0"/>
        <pt x="902" y="686" on="1"/>
        <pt x="1139" y="686" on="0"/>
        <pt x="1284" y="700" on="1"/>
        <pt x="1286" y="745" on="0"/>
        <pt x="1289" y="830" on="0"/>
      </contour>
    </TTGlyph>
    <TTGlyph name="Hcircumflex" xMin="80" yMin="-27" xMax="1683" yMax="2076">
      <component glyphName="H" x="0" y="0" flags="0x1204"/>
      <component glyphName="circumflex" x="551" y="356" flags="0x1004"/>
    </TTGlyph>
    <TTGlyph name="I" xMin="80" yMin="-14" xMax="852" yMax="1468">
      <contour>
        <pt x="549" y="1335" on="1"/>
        <pt x="549" y="1335" on="0"/>
        <pt x="476" y="1335" on="1"/>
        <pt x="441" y="1335" on="0"/>
        <pt x="403" y="1337" on="1"/>
        <pt x="381" y="106" on="1"/>
        <pt x="514" y="106" on="1"/>
      </contour>
      <contour>
        <pt x="139" y="1468" on="1"/>
        <pt x="337" y="1440" on="0"/>
        <pt x="695" y="1440" on="0"/>
        <pt x="795" y="1450" on="1"/>
        <pt x="799" y="1450" on="1"/>
        <pt x="822" y="1450" on="0"/>
        <pt x="852" y="1418" on="0"/>
        <pt x="852" y="1377" on="0"/>
        <pt x="824" y="1348" on="0"/>
        <pt x="795" y="1345" on="1"/>
        <pt x="743" y="1340" on="0"/>
        <pt x="653" y="1335" on="1"/>
        <pt x="621" y="102" on="1"/>
        <pt x="678" y="98" on="0"/>
        <pt x="778" y="90" on="1"/>
        <pt x="825" y="80" on="0"/>
        <pt x="825" y="33" on="1"/>
        <pt x="823" y="11" on="0"/>
        <pt x="792" y="-14" on="0"/>
        <pt x="772" y="-14" on="1"/>
        <pt x="768" y="-14" on="1"/>
        <pt x="449" y="18" on="0"/>
        <pt x="137" y="-14" on="1"/>
        <pt x="133" y="-14" on="1"/>
        <pt x="110" y="-14" on="0"/>
        <pt x="80" y="17" on="0"/>
        <pt x="80" y="37" on="1"/>
        <pt x="80" y="57" on="0"/>
        <pt x="107" y="87" on="0"/>
        <pt x="164" y="93" on="0"/>
        <pt x="239" y="99" on="0"/>
        <pt x="276" y="102" on="1"/>
        <pt x="299" y="1346" on="1"/>
        <pt x="213" y="1352" on="0"/>
        <pt x="125" y="1364" on="1"/>
        <pt x="105" y="1367" on="0"/>
        <pt x="80" y="1397" on="0"/>
        <pt x="80" y="1441" on="0"/>
        <pt x="116" y="1468" on="0"/>
        <pt x="133" y="1468" on="1"/>
      </contour>
    </TTGlyph>
    <TTGlyph name="IJ" xMin="80" yMin="-47" xMax="2183" yMax="1518">
      <component glyphName="I" x="0" y="0" flags="0x1004"/>
      <component glyphName="J" x="926" y="0" flags="0x1004"/>
    </TTGlyph>
    <TTGlyph name="Iacute" xMin="80" yMin="-14" xMax="1077" yMax="2072">
      <component glyphName="I" x="0" y="0" flags="0x1204"/>
      <component glyphName="acute" x="442" y="350" flags="0x1004"/>
    </TTGlyph>
    <TTGlyph name="Ibreve" xMin="80" yMin="-14" xMax="852" yMax="1975">
      <component glyphName="I" x="0" y="0" flags="0x1204"/>
      <component glyphName="breve" x="162" y="328" flags="0x1004"/>
    </TTGlyph>
    <TTGlyph name="Icircumflex" xMin="74" yMin="-14" xMax="860" yMax="2091">
      <component glyphName="I" x="0" y="0" flags="0x1204"/>
      <component glyphName="circumflex" x="74" y="371" flags="0x1004"/>
    </TTGlyph>
    <TTGlyph name="Idieresis" xMin="80" yMin="-14" xMax="852" yMax="1831">
      <component glyphName="I" x="0" y="0" flags="0x1204"/>
      <component glyphName="dieresis" x="94" y="246" flags="0x1004"/>
    </TTGlyph>
    <TTGlyph name="Idotaccent" xMin="80" yMin="-14" xMax="852" yMax="1827">
      <component glyphName="I" x="0" y="0" flags="0x1204"/>
      <component glyphName="dotaccent" x="334" y="242" flags="0x1004"/>
    </TTGlyph>
    <TTGlyph name="Igrave" xMin="-130" yMin="-14" xMax="852" yMax="2070">
      <component glyphName="I" x="0" y="0" flags="0x1204"/>
      <component glyphName="grave" x="-130" y="348" flags="0x1004"/>
    </TTGlyph>
    <TTGlyph name="Imacron" xMin="80" yMin="-14" xMax="852" yMax="1823">
      <component glyphName="I" x="0" y="0" flags="0x1204"/>
      <component glyphName="macron" x="111" y="242" flags="0x1004"/>
    </TTGlyph>
    <TTGlyph name="Iogonek" xMin="80" yMin="-590" xMax="852" yMax="1468">
      <contour>
        <pt x="717" y="-307" on="1"/>
        <pt x="709" y="-364" on="0"/>
        <pt x="635" y="-478" on="0"/>
        <pt x="592" y="-514" on="1"/>
        <pt x="503" y="-590" on="0"/>
        <pt x="395" y="-590" on="1"/>
        <pt x="284" y="-590" on="0"/>
        <pt x="202" y="-500" on="1"/>
        <pt x="123" y="-411" on="0"/>
        <pt x="123" y="-305" on="1"/>
        <pt x="123" y="-140" on="0"/>
        <pt x="301" y="0" on="1"/>
        <pt x="180" y="-9" on="0"/>
        <pt x="137" y="-14" on="1"/>
        <pt x="133" y="-14" on="1"/>
        <pt x="110" y="-14" on="0"/>
        <pt x="80" y="17" on="0"/>
        <pt x="80" y="37" on="1"/>
        <pt x="80" y="57" on="0"/>
        <pt x="107" y="87" on="0"/>
        <pt x="127" y="90" on="1"/>
        <pt x="276" y="102" on="1"/>
        <pt x="299" y="1346" on="1"/>
        <pt x="213" y="1352" on="0"/>
        <pt x="125" y="1364" on="1"/>
        <pt x="105" y="1367" on="0"/>
        <pt x="80" y="1397" on="0"/>
        <pt x="80" y="1441" on="0"/>
        <pt x="116" y="1468" on="0"/>
        <pt x="133" y="1468" on="1"/>
        <pt x="139" y="1468" on="1"/>
        <pt x="337" y="1440" on="0"/>
        <pt x="695" y="1440" on="0"/>
        <pt x="795" y="1450" on="1"/>
        <pt x="799" y="1450" on="1"/>
        <pt x="822" y="1450" on="0"/>
        <pt x="852" y="1418" on="0"/>
        <pt x="852" y="1377" on="0"/>
        <pt x="824" y="1348" on="0"/>
        <pt x="795" y="1345" on="1"/>
        <pt x="743" y="1340" on="0"/>
        <pt x="653" y="1335" on="1"/>
        <pt x="621" y="102" on="1"/>
        <pt x="778" y="90" on="1"/>
        <pt x="825" y="80" on="0"/>
        <pt x="825" y="33" on="1"/>
        <pt x="823" y="11" on="0"/>
        <pt x="792" y="-14" on="0"/>
        <pt x="772" y="-14" on="1"/>
        <pt x="768" y="-14" on="1"/>
        <pt x="637" y="-2" on="0"/>
        <pt x="502" y="2" on="1"/>
        <pt x="494" y="-6" on="1"/>
        <pt x="377" y="-79" on="0"/>
        <pt x="377" y="-188" on="1"/>
        <pt x="377" y="-243" on="0"/>
        <pt x="402" y="-281" on="1"/>
        <pt x="446" y="-350" on="0"/>
        <pt x="498" y="-350" on="1"/>
        <pt x="549" y="-350" on="0"/>
        <pt x="604" y="-295" on="1"/>
        <pt x="617" y="-282" on="0"/>
        <pt x="638" y="-256" on="0"/>
        <pt x="687" y="-256" on="0"/>
        <pt x="717" y="-290" on="0"/>
      </contour>
      <contour>
        <pt x="549" y="1335" on="1"/>
        <pt x="476" y="1335" on="1"/>
        <pt x="441" y="1335" on="0"/>
        <pt x="403" y="1337" on="1"/>
        <pt x="381" y="106" on="1"/>
        <pt x="514" y="106" on="1"/>
      </contour>
      <contour>
        <pt x="270" y="-182" on="1"/>
        <pt x="229" y="-246" on="0"/>
        <pt x="229" y="-340" on="0"/>
        <pt x="257" y="-404" on="0"/>
        <pt x="280" y="-430" on="1"/>
        <pt x="330" y="-485" on="0"/>
        <pt x="395" y="-485" on="1"/>
        <pt x="445" y="-485" on="0"/>
        <pt x="494" y="-455" on="1"/>
        <pt x="398" y="-449" on="0"/>
        <pt x="332" y="-364" on="1"/>
        <pt x="270" y="-286" on="0"/>
        <pt x="270" y="-188" on="1"/>
      </contour>
    </TTGlyph>
    <TTGlyph name="Itilde" xMin="74" yMin="-14" xMax="852" yMax="2098">
      <component glyphName="I" x="0" y="0" flags="0x1204"/>
      <component glyphName="tilde" x="74" y="369" flags="0x1004"/>
    </TTGlyph>
    <TTGlyph name="J" xMin="41" yMin="-47" xMax="1257" yMax="1518">
      <contour>
        <pt x="946" y="1356" on="1"/>
        <pt x="865" y="1342" on="0"/>
        <pt x="805" y="1337" on="1"/>
        <pt x="806" y="1286" on="0"/>
        <pt x="846" y="1028" on="0"/>
        <pt x="872" y="858" on="0"/>
        <pt x="883" y="773" on="1"/>
        <pt x="909" y="572" on="0"/>
        <pt x="909" y="468" on="1"/>
        <pt x="909" y="260" on="0"/>
        <pt x="817" y="143" on="1"/>
        <pt x="957" y="233" on="0"/>
        <pt x="1012" y="386" on="1"/>
        <pt x="1034" y="448" on="0"/>
        <pt x="1034" y="570" on="0"/>
        <pt x="1026" y="685" on="0"/>
        <pt x="1020" y="751" on="1"/>
        <pt x="997" y="1002" on="0"/>
      </contour>
      <contour>
        <pt x="698" y="1327" on="1"/>
        <pt x="624" y="1323" on="0"/>
        <pt x="577" y="1322" on="1"/>
        <pt x="498" y="1320" on="0"/>
        <pt x="498" y="1374" on="1"/>
        <pt x="498" y="1396" on="0"/>
        <pt x="527" y="1427" on="0"/>
        <pt x="549" y="1427" on="1"/>
        <pt x="880" y="1432" on="0"/>
        <pt x="1192" y="1516" on="1"/>
        <pt x="1195" y="1518" on="0"/>
        <pt x="1199" y="1518" on="1"/>
        <pt x="1206" y="1518" on="1"/>
        <pt x="1229" y="1518" on="0"/>
        <pt x="1257" y="1486" on="0"/>
        <pt x="1257" y="1467" on="1"/>
        <pt x="1257" y="1426" on="0"/>
        <pt x="1217" y="1414" on="1"/>
        <pt x="1147" y="1394" on="0"/>
        <pt x="1049" y="1374" on="1"/>
        <pt x="1141" y="751" on="0"/>
        <pt x="1141" y="532" on="1"/>
        <pt x="1141" y="293" on="0"/>
        <pt x="958" y="122" on="1"/>
        <pt x="778" y="-47" on="0"/>
        <pt x="535" y="-47" on="1"/>
        <pt x="342" y="-47" on="0"/>
        <pt x="195" y="80" on="1"/>
        <pt x="41" y="212" on="0"/>
        <pt x="41" y="401" on="1"/>
        <pt x="41" y="561" on="0"/>
        <pt x="158" y="690" on="1"/>
        <pt x="175" y="707" on="0"/>
        <pt x="220" y="707" on="0"/>
        <pt x="250" y="675" on="0"/>
        <pt x="250" y="633" on="0"/>
        <pt x="191" y="569" on="0"/>
        <pt x="147" y="458" on="0"/>
        <pt x="147" y="334" on="0"/>
        <pt x="199" y="220" on="0"/>
        <pt x="243" y="178" on="1"/>
        <pt x="337" y="88" on="0"/>
        <pt x="467" y="88" on="1"/>
        <pt x="632" y="88" on="0"/>
        <pt x="722" y="194" on="1"/>
        <pt x="805" y="291" on="0"/>
        <pt x="805" y="463" on="1"/>
        <pt x="805" y="629" on="0"/>
        <pt x="741" y="1027" on="0"/>
        <pt x="729" y="1101" on="1"/>
        <pt x="701" y="1272" on="0"/>
      </contour>
    </TTGlyph>
    <TTGlyph name="Jcircumflex" xMin="41" yMin="-47" xMax="1267" yMax="2123">
      <component glyphName="J" x="0" y="0" flags="0x1204"/>
      <component glyphName="circumflex" x="481" y="403" flags="0x1004"/>
    </TTGlyph>
    <TTGlyph name="K" xMin="72" yMin="-14" xMax="1712" yMax="1466">
      <contour>
        <pt x="518" y="1335" on="1"/>
        <pt x="483" y="1333" on="0"/>
        <pt x="446" y="1333" on="1"/>
        <pt x="375" y="1333" on="1"/>
        <pt x="410" y="106" on="1"/>
        <pt x="541" y="106" on="1"/>
      </contour>
      <contour>
        <pt x="899" y="846" on="1"/>
        <pt x="844" y="791" on="0"/>
        <pt x="811" y="764" on="1"/>
        <pt x="1089" y="477" on="0"/>
        <pt x="1198" y="96" on="1"/>
        <pt x="1325" y="115" on="1"/>
        <pt x="1240" y="460" on="0"/>
        <pt x="1018" y="724" on="1"/>
        <pt x="972" y="777" on="0"/>
      </contour>
      <contour>
        <pt x="129" y="1448" on="1"/>
        <pt x="229" y="1438" on="0"/>
        <pt x="588" y="1438" on="0"/>
        <pt x="784" y="1466" on="1"/>
        <pt x="791" y="1466" on="1"/>
        <pt x="814" y="1466" on="0"/>
        <pt x="844" y="1435" on="0"/>
        <pt x="844" y="1395" on="0"/>
        <pt x="819" y="1365" on="0"/>
        <pt x="786" y="1360" on="1"/>
        <pt x="732" y="1353" on="0"/>
        <pt x="625" y="1343" on="1"/>
        <pt x="635" y="754" on="1"/>
        <pt x="784" y="869" on="0"/>
        <pt x="869" y="957" on="1"/>
        <pt x="1050" y="1146" on="0"/>
        <pt x="1149" y="1348" on="1"/>
        <pt x="1008" y="1348" on="1"/>
        <pt x="986" y="1348" on="0"/>
        <pt x="954" y="1377" on="0"/>
        <pt x="954" y="1422" on="0"/>
        <pt x="986" y="1452" on="0"/>
        <pt x="1008" y="1452" on="1"/>
        <pt x="1456" y="1452" on="1"/>
        <pt x="1478" y="1452" on="0"/>
        <pt x="1509" y="1422" on="0"/>
        <pt x="1509" y="1377" on="0"/>
        <pt x="1478" y="1348" on="0"/>
        <pt x="1456" y="1348" on="1"/>
        <pt x="1266" y="1348" on="1"/>
        <pt x="1183" y="1164" on="0"/>
        <pt x="1052" y="1013" on="1"/>
        <pt x="1012" y="967" on="0"/>
        <pt x="971" y="922" on="1"/>
        <pt x="1221" y="706" on="0"/>
        <pt x="1364" y="341" on="1"/>
        <pt x="1403" y="243" on="0"/>
        <pt x="1430" y="129" on="1"/>
        <pt x="1653" y="162" on="1"/>
        <pt x="1659" y="162" on="1"/>
        <pt x="1682" y="162" on="0"/>
        <pt x="1712" y="130" on="0"/>
        <pt x="1712" y="90" on="0"/>
        <pt x="1687" y="60" on="0"/>
        <pt x="1667" y="57" on="1"/>
        <pt x="1165" y="-14" on="1"/>
        <pt x="1159" y="-14" on="1"/>
        <pt x="1141" y="-14" on="0"/>
        <pt x="1111" y="8" on="0"/>
        <pt x="1107" y="28" on="0"/>
        <pt x="1092" y="86" on="0"/>
        <pt x="1058" y="184" on="0"/>
        <pt x="1001" y="315" on="0"/>
        <pt x="960" y="389" on="1"/>
        <pt x="864" y="559" on="0"/>
        <pt x="731" y="694" on="1"/>
        <pt x="729" y="693" on="0"/>
        <pt x="637" y="625" on="1"/>
        <pt x="647" y="102" on="1"/>
        <pt x="684" y="99" on="0"/>
        <pt x="760" y="93" on="0"/>
        <pt x="817" y="87" on="0"/>
        <pt x="844" y="57" on="0"/>
        <pt x="844" y="12" on="0"/>
        <pt x="808" y="-14" on="0"/>
        <pt x="791" y="-14" on="1"/>
        <pt x="784" y="-14" on="1"/>
        <pt x="634" y="2" on="0"/>
        <pt x="316" y="2" on="0"/>
        <pt x="156" y="-14" on="1"/>
        <pt x="150" y="-14" on="1"/>
        <pt x="127" y="-14" on="0"/>
        <pt x="98" y="17" on="0"/>
        <pt x="98" y="37" on="1"/>
        <pt x="98" y="57" on="0"/>
        <pt x="125" y="87" on="0"/>
        <pt x="186" y="93" on="0"/>
        <pt x="265" y="99" on="0"/>
        <pt x="303" y="102" on="1"/>
        <pt x="270" y="1333" on="1"/>
        <pt x="197" y="1337" on="0"/>
        <pt x="119" y="1343" on="1"/>
        <pt x="99" y="1345" on="0"/>
        <pt x="72" y="1375" on="0"/>
        <pt x="72" y="1419" on="0"/>
        <pt x="106" y="1448" on="0"/>
        <pt x="125" y="1448" on="1"/>
      </contour>
    </TTGlyph>
    <TTGlyph name="Kcommaaccent" xMin="72" yMin="-604" xMax="1712" yMax="1466">
      <component glyphName="K" x="0" y="0" flags="0x1204"/>
      <component glyphName="uni0326" x="588" y="0" flags="0x1004"/>
    </TTGlyph>
    <TTGlyph name="L" xMin="78" yMin="-14" xMax="1307" yMax="1487">
      <contour>
        <pt x="547" y="1354" on="1"/>
        <pt x="547" y="1354" on="0"/>
        <pt x="474" y="1354" on="1"/>
        <pt x="439" y="1354" on="0"/>
        <pt x="401" y="1356" on="1"/>
        <pt x="379" y="102" on="1"/>
        <pt x="411" y="104" on="0"/>
        <pt x="478" y="104" on="0"/>
        <pt x="512" y="106" on="1"/>
      </contour>
      <contour>
        <pt x="1307" y="504" on="1"/>
        <pt x="1223" y="29" on="1"/>
        <pt x="1220" y="9" on="0"/>
        <pt x="1190" y="-14" on="0"/>
        <pt x="1171" y="-14" on="1"/>
        <pt x="1165" y="-14" on="1"/>
        <pt x="1001" y="2" on="0"/>
        <pt x="647" y="2" on="1"/>
        <pt x="291" y="2" on="0"/>
        <pt x="135" y="-14" on="1"/>
        <pt x="131" y="-14" on="1"/>
        <pt x="84" y="-14" on="0"/>
        <pt x="78" y="37" on="1"/>
        <pt x="78" y="57" on="0"/>
        <pt x="105" y="87" on="0"/>
        <pt x="154" y="93" on="0"/>
        <pt x="229" y="97" on="0"/>
        <pt x="274" y="100" on="1"/>
        <pt x="297" y="1364" on="1"/>
        <pt x="211" y="1370" on="0"/>
        <pt x="123" y="1382" on="1"/>
        <pt x="103" y="1385" on="0"/>
        <pt x="78" y="1415" on="0"/>
        <pt x="81" y="1460" on="0"/>
        <pt x="111" y="1487" on="0"/>
        <pt x="131" y="1487" on="1"/>
        <pt x="137" y="1487" on="1"/>
        <pt x="327" y="1458" on="0"/>
        <pt x="693" y="1458" on="0"/>
        <pt x="793" y="1468" on="1"/>
        <pt x="797" y="1468" on="1"/>
        <pt x="820" y="1468" on="0"/>
        <pt x="850" y="1437" on="0"/>
        <pt x="850" y="1395" on="0"/>
        <pt x="822" y="1366" on="0"/>
        <pt x="793" y="1364" on="1"/>
        <pt x="733" y="1358" on="0"/>
        <pt x="651" y="1354" on="1"/>
        <pt x="618" y="106" on="1"/>
        <pt x="647" y="106" on="1"/>
        <pt x="952" y="106" on="0"/>
        <pt x="1128" y="94" on="1"/>
        <pt x="1202" y="512" on="1"/>
        <pt x="1205" y="532" on="0"/>
        <pt x="1235" y="557" on="0"/>
        <pt x="1275" y="557" on="0"/>
        <pt x="1307" y="524" on="0"/>
      </contour>
    </TTGlyph>
    <TTGlyph name="Lacute" xMin="78" yMin="-14" xMax="1307" yMax="2115">
      <component glyphName="L" x="0" y="0" flags="0x1204"/>
      <component glyphName="acute" x="453" y="393" flags="0x1004"/>
    </TTGlyph>
    <TTGlyph name="Lcaron" xMin="78" yMin="-14" xMax="1307" yMax="1490">
      <component glyphName="L" x="0" y="0" flags="0x1204"/>
      <component glyphName="uni0315" x="848" y="-171" flags="0x1004"/>
    </TTGlyph>
    <TTGlyph name="Lcommaaccent" xMin="78" yMin="-604" xMax="1307" yMax="1487">
      <component glyphName="L" x="0" y="0" flags="0x1204"/>
      <component glyphName="uni0326" x="420" y="0" flags="0x1004"/>
    </TTGlyph>
    <TTGlyph name="Ldot" xMin="78" yMin="-14" xMax="1626" yMax="1487">
      <component glyphName="L" x="0" y="0" flags="0x1004"/>
      <component glyphName="periodcentered" x="1210" y="0" flags="0x1004"/>
    </TTGlyph>
    <TTGlyph name="Lslash" xMin="80" yMin="-25" xMax="1309" yMax="1473">
      <contour>
        <pt x="549" y="1339" on="1"/>
        <pt x="549" y="1339" on="0"/>
        <pt x="476" y="1339" on="1"/>
        <pt x="441" y="1339" on="0"/>
        <pt x="403" y="1341" on="1"/>
        <pt x="381" y="92" on="1"/>
        <pt x="413" y="94" on="0"/>
        <pt x="480" y="94" on="0"/>
        <pt x="514" y="96" on="1"/>
      </contour>
      <contour>
        <pt x="1309" y="494" on="1"/>
        <pt x="1225" y="18" on="1"/>
        <pt x="1222" y="-2" on="0"/>
        <pt x="1192" y="-25" on="0"/>
        <pt x="1174" y="-25" on="1"/>
        <pt x="1167" y="-25" on="1"/>
        <pt x="993" y="-8" on="0"/>
        <pt x="649" y="-8" on="1"/>
        <pt x="303" y="-8" on="0"/>
        <pt x="137" y="-25" on="1"/>
        <pt x="133" y="-25" on="1"/>
        <pt x="110" y="-25" on="0"/>
        <pt x="80" y="7" on="0"/>
        <pt x="80" y="27" on="1"/>
        <pt x="80" y="47" on="0"/>
        <pt x="107" y="77" on="0"/>
        <pt x="156" y="83" on="0"/>
        <pt x="231" y="87" on="0"/>
        <pt x="276" y="90" on="1"/>
        <pt x="285" y="512" on="1"/>
        <pt x="156" y="446" on="1"/>
        <pt x="147" y="440" on="0"/>
        <pt x="110" y="440" on="0"/>
        <pt x="80" y="474" on="0"/>
        <pt x="80" y="491" on="1"/>
        <pt x="80" y="524" on="0"/>
        <pt x="109" y="541" on="1"/>
        <pt x="287" y="631" on="1"/>
        <pt x="299" y="1350" on="1"/>
        <pt x="213" y="1356" on="0"/>
        <pt x="125" y="1368" on="1"/>
        <pt x="105" y="1371" on="0"/>
        <pt x="80" y="1401" on="0"/>
        <pt x="80" y="1445" on="0"/>
        <pt x="116" y="1473" on="0"/>
        <pt x="133" y="1473" on="1"/>
        <pt x="139" y="1473" on="1"/>
        <pt x="331" y="1444" on="0"/>
        <pt x="695" y="1444" on="0"/>
        <pt x="795" y="1454" on="1"/>
        <pt x="799" y="1454" on="1"/>
        <pt x="822" y="1454" on="0"/>
        <pt x="852" y="1423" on="0"/>
        <pt x="852" y="1381" on="0"/>
        <pt x="824" y="1352" on="0"/>
        <pt x="795" y="1350" on="1"/>
        <pt x="703" y="1342" on="0"/>
        <pt x="653" y="1339" on="1"/>
        <pt x="639" y="821" on="1"/>
        <pt x="860" y="938" on="1"/>
        <pt x="870" y="944" on="0"/>
        <pt x="908" y="944" on="0"/>
        <pt x="936" y="913" on="0"/>
        <pt x="936" y="862" on="0"/>
        <pt x="909" y="846" on="1"/>
        <pt x="637" y="700" on="1"/>
        <pt x="621" y="96" on="1"/>
        <pt x="649" y="96" on="1"/>
        <pt x="954" y="96" on="0"/>
        <pt x="1130" y="84" on="1"/>
        <pt x="1204" y="502" on="1"/>
        <pt x="1207" y="522" on="0"/>
        <pt x="1237" y="547" on="0"/>
        <pt x="1277" y="547" on="0"/>
        <pt x="1309" y="514" on="0"/>
      </contour>
    </TTGlyph>
    <TTGlyph name="M" xMin="31" yMin="-18" xMax="2144" yMax="1489">
      <contour>
        <pt x="489" y="1307" on="1"/>
        <pt x="474" y="1260" on="0"/>
        <pt x="461" y="1152" on="0"/>
        <pt x="455" y="1110" on="1"/>
        <pt x="938" y="166" on="1"/>
        <pt x="952" y="204" on="0"/>
        <pt x="968" y="254" on="1"/>
        <pt x="1004" y="360" on="1"/>
      </contour>
      <contour>
        <pt x="1667" y="121" on="1"/>
        <pt x="1743" y="127" on="0"/>
        <pt x="1821" y="131" on="1"/>
        <pt x="1793" y="543" on="0"/>
        <pt x="1686" y="1201" on="1"/>
        <pt x="1674" y="1275" on="0"/>
        <pt x="1667" y="1313" on="1"/>
        <pt x="1593" y="1307" on="0"/>
        <pt x="1503" y="1303" on="1"/>
        <pt x="1630" y="769" on="0"/>
      </contour>
      <contour>
        <pt x="1892" y="1442" on="1"/>
        <pt x="1901" y="1444" on="1"/>
        <pt x="1924" y="1444" on="0"/>
        <pt x="1954" y="1411" on="0"/>
        <pt x="1954" y="1391" on="1"/>
        <pt x="1954" y="1371" on="0"/>
        <pt x="1929" y="1342" on="0"/>
        <pt x="1911" y="1339" on="1"/>
        <pt x="1873" y="1333" on="0"/>
        <pt x="1774" y="1321" on="1"/>
        <pt x="1780" y="1279" on="0"/>
        <pt x="1805" y="1128" on="0"/>
        <pt x="1834" y="933" on="0"/>
        <pt x="1866" y="705" on="0"/>
        <pt x="1881" y="587" on="1"/>
        <pt x="1913" y="332" on="0"/>
        <pt x="1925" y="135" on="1"/>
        <pt x="1982" y="135" on="0"/>
        <pt x="2067" y="135" on="0"/>
        <pt x="2115" y="133" on="0"/>
        <pt x="2144" y="104" on="0"/>
        <pt x="2144" y="59" on="0"/>
        <pt x="2113" y="29" on="0"/>
        <pt x="2065" y="31" on="0"/>
        <pt x="2013" y="31" on="0"/>
        <pt x="1987" y="31" on="1"/>
        <pt x="1707" y="31" on="0"/>
        <pt x="1427" y="-18" on="1"/>
        <pt x="1417" y="-18" on="1"/>
        <pt x="1394" y="-18" on="0"/>
        <pt x="1366" y="13" on="0"/>
        <pt x="1366" y="51" on="0"/>
        <pt x="1389" y="81" on="0"/>
        <pt x="1418" y="86" on="1"/>
        <pt x="1484" y="99" on="0"/>
        <pt x="1563" y="109" on="1"/>
        <pt x="1521" y="742" on="0"/>
        <pt x="1419" y="1196" on="1"/>
        <pt x="1271" y="835" on="0"/>
        <pt x="1045" y="156" on="1"/>
        <pt x="1045" y="156" on="0"/>
        <pt x="1012" y="56" on="1"/>
        <pt x="999" y="18" on="0"/>
        <pt x="999" y="16" on="1"/>
        <pt x="989" y="-18" on="0"/>
        <pt x="950" y="-18" on="1"/>
        <pt x="916" y="-18" on="0"/>
        <pt x="903" y="8" on="1"/>
        <pt x="418" y="956" on="1"/>
        <pt x="340" y="369" on="0"/>
        <pt x="330" y="123" on="1"/>
        <pt x="512" y="115" on="0"/>
        <pt x="538" y="82" on="1"/>
        <pt x="549" y="68" on="0"/>
        <pt x="549" y="23" on="0"/>
        <pt x="513" y="-2" on="0"/>
        <pt x="498" y="-2" on="1"/>
        <pt x="487" y="-2" on="1"/>
        <pt x="371" y="20" on="0"/>
        <pt x="165" y="20" on="0"/>
        <pt x="92" y="6" on="1"/>
        <pt x="84" y="6" on="1"/>
        <pt x="61" y="6" on="0"/>
        <pt x="31" y="38" on="0"/>
        <pt x="31" y="58" on="1"/>
        <pt x="31" y="102" on="0"/>
        <pt x="74" y="111" on="1"/>
        <pt x="129" y="120" on="0"/>
        <pt x="223" y="125" on="1"/>
        <pt x="240" y="546" on="0"/>
        <pt x="344" y="1113" on="1"/>
        <pt x="366" y="1236" on="0"/>
        <pt x="393" y="1354" on="1"/>
        <pt x="274" y="1358" on="0"/>
        <pt x="174" y="1386" on="1"/>
        <pt x="135" y="1397" on="0"/>
        <pt x="135" y="1459" on="0"/>
        <pt x="168" y="1489" on="0"/>
        <pt x="180" y="1489" on="1"/>
        <pt x="195" y="1489" on="1"/>
        <pt x="198" y="1489" on="0"/>
        <pt x="228" y="1481" on="1"/>
        <pt x="312" y="1458" on="0"/>
        <pt x="422" y="1458" on="1"/>
        <pt x="494" y="1460" on="1"/>
        <pt x="523" y="1460" on="0"/>
        <pt x="541" y="1434" on="1"/>
        <pt x="1051" y="496" on="1"/>
        <pt x="1299" y="1223" on="0"/>
        <pt x="1391" y="1380" on="1"/>
        <pt x="1406" y="1405" on="0"/>
        <pt x="1436" y="1405" on="1"/>
      </contour>
    </TTGlyph>
    <TTGlyph name="N" xMin="80" yMin="-18" xMax="1595" yMax="1503">
      <contour>
        <pt x="549" y="1350" on="1"/>
        <pt x="549" y="1350" on="0"/>
        <pt x="476" y="1350" on="1"/>
        <pt x="441" y="1350" on="0"/>
        <pt x="403" y="1352" on="1"/>
        <pt x="381" y="102" on="1"/>
        <pt x="514" y="102" on="1"/>
      </contour>
      <contour>
        <pt x="1155" y="1473" on="1"/>
        <pt x="1204" y="1466" on="0"/>
        <pt x="1270" y="1466" on="1"/>
        <pt x="1400" y="1466" on="0"/>
        <pt x="1530" y="1501" on="1"/>
        <pt x="1534" y="1503" on="0"/>
        <pt x="1566" y="1503" on="0"/>
        <pt x="1595" y="1472" on="0"/>
        <pt x="1595" y="1454" on="1"/>
        <pt x="1595" y="1412" on="0"/>
        <pt x="1560" y="1402" on="1"/>
        <pt x="1484" y="1381" on="0"/>
        <pt x="1421" y="1372" on="1"/>
        <pt x="1468" y="1086" on="0"/>
        <pt x="1468" y="829" on="1"/>
        <pt x="1468" y="453" on="0"/>
        <pt x="1415" y="27" on="1"/>
        <pt x="1403" y="-18" on="0"/>
        <pt x="1328" y="-18" on="0"/>
        <pt x="1315" y="14" on="1"/>
        <pt x="1236" y="205" on="0"/>
        <pt x="934" y="756" on="0"/>
        <pt x="870" y="871" on="1"/>
        <pt x="759" y="1067" on="0"/>
        <pt x="651" y="1257" on="1"/>
        <pt x="621" y="98" on="1"/>
        <pt x="678" y="94" on="0"/>
        <pt x="778" y="86" on="1"/>
        <pt x="798" y="83" on="0"/>
        <pt x="825" y="53" on="0"/>
        <pt x="825" y="10" on="0"/>
        <pt x="791" y="-18" on="0"/>
        <pt x="772" y="-18" on="1"/>
        <pt x="768" y="-18" on="1"/>
        <pt x="449" y="14" on="0"/>
        <pt x="137" y="-18" on="1"/>
        <pt x="133" y="-18" on="1"/>
        <pt x="111" y="-18" on="0"/>
        <pt x="80" y="13" on="0"/>
        <pt x="80" y="33" on="1"/>
        <pt x="80" y="53" on="0"/>
        <pt x="107" y="83" on="0"/>
        <pt x="164" y="89" on="0"/>
        <pt x="239" y="95" on="0"/>
        <pt x="276" y="98" on="1"/>
        <pt x="299" y="1360" on="1"/>
        <pt x="213" y="1366" on="0"/>
        <pt x="125" y="1378" on="1"/>
        <pt x="105" y="1381" on="0"/>
        <pt x="80" y="1412" on="0"/>
        <pt x="80" y="1456" on="0"/>
        <pt x="116" y="1483" on="0"/>
        <pt x="133" y="1483" on="1"/>
        <pt x="139" y="1483" on="1"/>
        <pt x="361" y="1454" on="0"/>
        <pt x="553" y="1454" on="1"/>
        <pt x="627" y="1454" on="1"/>
        <pt x="656" y="1454" on="0"/>
        <pt x="676" y="1423" on="0"/>
        <pt x="720" y="1347" on="0"/>
        <pt x="790" y="1225" on="0"/>
        <pt x="881" y="1065" on="0"/>
        <pt x="984" y="883" on="0"/>
        <pt x="1092" y="687" on="0"/>
        <pt x="1144" y="590" on="1"/>
        <pt x="1269" y="358" on="0"/>
        <pt x="1333" y="227" on="1"/>
        <pt x="1364" y="539" on="0"/>
        <pt x="1364" y="770" on="1"/>
        <pt x="1364" y="1071" on="0"/>
        <pt x="1317" y="1364" on="1"/>
        <pt x="1304" y="1362" on="0"/>
        <pt x="1292" y="1362" on="1"/>
        <pt x="1266" y="1362" on="1"/>
        <pt x="1130" y="1362" on="0"/>
        <pt x="1096" y="1401" on="0"/>
        <pt x="1096" y="1443" on="0"/>
        <pt x="1129" y="1473" on="0"/>
        <pt x="1149" y="1473" on="1"/>
      </contour>
    </TTGlyph>
    <TTGlyph name="Nacute" xMin="80" yMin="-18" xMax="1595" yMax="2025">
      <component glyphName="N" x="0" y="0" flags="0x1204"/>
      <component glyphName="acute" x="834" y="303" flags="0x1004"/>
    </TTGlyph>
    <TTGlyph name="Ncaron" xMin="80" yMin="-18" xMax="1595" yMax="2027">
      <component glyphName="N" x="0" y="0" flags="0x1204"/>
      <component glyphName="caron" x="518" y="307" flags="0x1004"/>
    </TTGlyph>
    <TTGlyph name="Ncommaaccent" xMin="80" yMin="-604" xMax="1595" yMax="1503">
      <component glyphName="N" x="0" y="0" flags="0x1204"/>
      <component glyphName="uni0326" x="590" y="0" flags="0x1004"/>
    </TTGlyph>
    <TTGlyph name="Ntilde" xMin="80" yMin="-18" xMax="1595" yMax="2067">
      <component glyphName="N" x="0" y="0" flags="0x1204"/>
      <component glyphName="tilde" x="449" y="338" flags="0x1004"/>
    </TTGlyph>
    <TTGlyph name="O" xMin="94" yMin="-61" xMax="1542" yMax="1483">
      <contour>
        <pt x="510" y="133" on="1"/>
        <pt x="342" y="329" on="0"/>
        <pt x="342" y="727" on="1"/>
        <pt x="342" y="1117" on="0"/>
        <pt x="571" y="1317" on="1"/>
        <pt x="577" y="1323" on="0"/>
        <pt x="586" y="1329" on="1"/>
        <pt x="412" y="1252" on="0"/>
        <pt x="307" y="1086" on="1"/>
        <pt x="199" y="916" on="0"/>
        <pt x="199" y="711" on="1"/>
        <pt x="199" y="434" on="0"/>
        <pt x="383" y="237" on="1"/>
        <pt x="440" y="176" on="0"/>
      </contour>
      <contour>
        <pt x="1438" y="708" on="1"/>
        <pt x="1438" y="779" on="0"/>
        <pt x="1402" y="928" on="0"/>
        <pt x="1337" y="1071" on="0"/>
        <pt x="1246" y="1200" on="0"/>
        <pt x="1192" y="1248" on="1"/>
        <pt x="1073" y="1354" on="0"/>
        <pt x="948" y="1354" on="1"/>
        <pt x="702" y="1354" on="0"/>
        <pt x="566" y="1152" on="1"/>
        <pt x="446" y="973" on="0"/>
        <pt x="446" y="727" on="1"/>
        <pt x="446" y="547" on="0"/>
        <pt x="510" y="335" on="0"/>
        <pt x="581" y="206" on="0"/>
        <pt x="633" y="158" on="1"/>
        <pt x="744" y="57" on="0"/>
        <pt x="913" y="57" on="1"/>
        <pt x="1048" y="57" on="0"/>
        <pt x="1176" y="160" on="1"/>
        <pt x="1292" y="255" on="0"/>
        <pt x="1366" y="410" on="1"/>
        <pt x="1438" y="562" on="0"/>
      </contour>
      <contour>
        <pt x="1542" y="708" on="1"/>
        <pt x="1542" y="606" on="0"/>
        <pt x="1489" y="411" on="0"/>
        <pt x="1394" y="239" on="0"/>
        <pt x="1260" y="97" on="0"/>
        <pt x="1180" y="46" on="1"/>
        <pt x="1011" y="-61" on="0"/>
        <pt x="817" y="-61" on="1"/>
        <pt x="520" y="-61" on="0"/>
        <pt x="306" y="166" on="1"/>
        <pt x="172" y="308" on="0"/>
        <pt x="120" y="506" on="1"/>
        <pt x="94" y="605" on="0"/>
        <pt x="94" y="711" on="1"/>
        <pt x="94" y="920" on="0"/>
        <pt x="193" y="1100" on="1"/>
        <pt x="288" y="1273" on="0"/>
        <pt x="453" y="1378" on="1"/>
        <pt x="620" y="1483" on="0"/>
        <pt x="817" y="1483" on="1"/>
        <pt x="1020" y="1483" on="0"/>
        <pt x="1192" y="1370" on="1"/>
        <pt x="1353" y="1264" on="0"/>
        <pt x="1542" y="906" on="0"/>
      </contour>
    </TTGlyph>
    <TTGlyph name="OE" xMin="94" yMin="-61" xMax="2441" yMax="1483">
      <contour>
        <pt x="1819" y="104" on="1"/>
        <pt x="2086" y="104" on="0"/>
        <pt x="2300" y="90" on="1"/>
        <pt x="2337" y="358" on="1"/>
        <pt x="2340" y="378" on="0"/>
        <pt x="2369" y="403" on="0"/>
        <pt x="2413" y="403" on="0"/>
        <pt x="2441" y="369" on="0"/>
        <pt x="2441" y="352" on="1"/>
        <pt x="2441" y="344" on="1"/>
        <pt x="2398" y="27" on="1"/>
        <pt x="2395" y="7" on="0"/>
        <pt x="2365" y="-18" on="0"/>
        <pt x="2345" y="-18" on="1"/>
        <pt x="2343" y="-18" on="1"/>
        <pt x="2076" y="0" on="0"/>
        <pt x="1560" y="0" on="0"/>
        <pt x="1317" y="-18" on="1"/>
        <pt x="1313" y="-18" on="1"/>
        <pt x="1290" y="-16" on="0"/>
        <pt x="1260" y="12" on="0"/>
        <pt x="1260" y="55" on="0"/>
        <pt x="1287" y="84" on="0"/>
        <pt x="1341" y="89" on="0"/>
        <pt x="1406" y="92" on="0"/>
        <pt x="1438" y="94" on="1"/>
        <pt x="1438" y="319" on="1"/>
        <pt x="1340" y="147" on="0"/>
        <pt x="1177" y="44" on="1"/>
        <pt x="1010" y="-61" on="0"/>
        <pt x="817" y="-61" on="1"/>
        <pt x="520" y="-61" on="0"/>
        <pt x="306" y="166" on="1"/>
        <pt x="172" y="308" on="0"/>
        <pt x="120" y="506" on="1"/>
        <pt x="94" y="605" on="0"/>
        <pt x="94" y="711" on="1"/>
        <pt x="94" y="920" on="0"/>
        <pt x="193" y="1100" on="1"/>
        <pt x="288" y="1273" on="0"/>
        <pt x="453" y="1378" on="1"/>
        <pt x="620" y="1483" on="0"/>
        <pt x="817" y="1483" on="1"/>
        <pt x="1115" y="1483" on="0"/>
        <pt x="1326" y="1254" on="1"/>
        <pt x="1391" y="1184" on="0"/>
        <pt x="1438" y="1102" on="1"/>
        <pt x="1438" y="1313" on="1"/>
        <pt x="1406" y="1315" on="0"/>
        <pt x="1374" y="1315" on="1"/>
        <pt x="1311" y="1315" on="1"/>
        <pt x="1289" y="1317" on="0"/>
        <pt x="1260" y="1346" on="0"/>
        <pt x="1260" y="1368" on="1"/>
        <pt x="1260" y="1390" on="0"/>
        <pt x="1291" y="1421" on="0"/>
        <pt x="1350" y="1419" on="0"/>
        <pt x="1386" y="1419" on="1"/>
        <pt x="1456" y="1419" on="1"/>
        <pt x="1878" y="1419" on="0"/>
        <pt x="2296" y="1475" on="1"/>
        <pt x="2304" y="1475" on="1"/>
        <pt x="2324" y="1475" on="0"/>
        <pt x="2352" y="1448" on="0"/>
        <pt x="2355" y="1430" on="1"/>
        <pt x="2398" y="1092" on="1"/>
        <pt x="2398" y="1085" on="1"/>
        <pt x="2398" y="1062" on="0"/>
        <pt x="2365" y="1034" on="0"/>
        <pt x="2326" y="1034" on="0"/>
        <pt x="2297" y="1059" on="0"/>
        <pt x="2294" y="1079" on="1"/>
        <pt x="2257" y="1364" on="1"/>
        <pt x="2058" y="1336" on="0"/>
        <pt x="1790" y="1323" on="1"/>
        <pt x="1790" y="664" on="1"/>
        <pt x="2005" y="673" on="0"/>
        <pt x="2126" y="696" on="1"/>
        <pt x="2136" y="696" on="1"/>
        <pt x="2158" y="696" on="0"/>
        <pt x="2189" y="665" on="0"/>
        <pt x="2189" y="645" on="1"/>
        <pt x="2189" y="603" on="0"/>
        <pt x="2146" y="592" on="1"/>
        <pt x="2028" y="569" on="0"/>
        <pt x="1790" y="559" on="1"/>
        <pt x="1790" y="104" on="1"/>
      </contour>
      <contour>
        <pt x="1438" y="708" on="1"/>
        <pt x="1438" y="779" on="0"/>
        <pt x="1402" y="928" on="0"/>
        <pt x="1337" y="1071" on="0"/>
        <pt x="1246" y="1200" on="0"/>
        <pt x="1192" y="1248" on="1"/>
        <pt x="1073" y="1354" on="0"/>
        <pt x="948" y="1354" on="1"/>
        <pt x="702" y="1354" on="0"/>
        <pt x="566" y="1152" on="1"/>
        <pt x="446" y="973" on="0"/>
        <pt x="446" y="727" on="1"/>
        <pt x="446" y="547" on="0"/>
        <pt x="510" y="335" on="0"/>
        <pt x="581" y="206" on="0"/>
        <pt x="633" y="158" on="1"/>
        <pt x="744" y="57" on="0"/>
        <pt x="913" y="57" on="1"/>
        <pt x="1048" y="57" on="0"/>
        <pt x="1176" y="160" on="1"/>
        <pt x="1292" y="255" on="0"/>
        <pt x="1366" y="410" on="1"/>
        <pt x="1438" y="562" on="0"/>
      </contour>
      <contour>
        <pt x="1686" y="1319" on="1"/>
        <pt x="1614" y="1315" on="0"/>
        <pt x="1542" y="1315" on="1"/>
        <pt x="1542" y="100" on="1"/>
        <pt x="1686" y="104" on="1"/>
      </contour>
      <contour>
        <pt x="510" y="133" on="1"/>
        <pt x="342" y="329" on="0"/>
        <pt x="342" y="727" on="1"/>
        <pt x="342" y="1117" on="0"/>
        <pt x="571" y="1317" on="1"/>
        <pt x="584" y="1327" on="1"/>
        <pt x="412" y="1251" on="0"/>
        <pt x="306" y="1085" on="1"/>
        <pt x="199" y="917" on="0"/>
        <pt x="199" y="711" on="1"/>
        <pt x="199" y="434" on="0"/>
        <pt x="383" y="237" on="1"/>
        <pt x="440" y="176" on="0"/>
      </contour>
    </TTGlyph>
    <TTGlyph name="Oacute" xMin="94" yMin="-61" xMax="1542" yMax="2128">
      <component glyphName="O" x="0" y="0" flags="0x1204"/>
      <component glyphName="acute" x="840" y="406" flags="0x1004"/>
    </TTGlyph>
    <TTGlyph name="Obreve" xMin="94" yMin="-61" xMax="1542" yMax="2018">
      <component glyphName="O" x="0" y="0" flags="0x1204"/>
      <component glyphName="breve" x="508" y="371" flags="0x1004"/>
    </TTGlyph>
    <TTGlyph name="Ocircumflex" xMin="94" yMin="-61" xMax="1542" yMax="2095">
      <component glyphName="O" x="0" y="0" flags="0x1204"/>
      <component glyphName="circumflex" x="424" y="375" flags="0x1004"/>
    </TTGlyph>
    <TTGlyph name="Odieresis" xMin="94" yMin="-61" xMax="1542" yMax="1837">
      <component glyphName="O" x="0" y="0" flags="0x1204"/>
      <component glyphName="dieresis" x="446" y="252" flags="0x1004"/>
    </TTGlyph>
    <TTGlyph name="Ograve" xMin="94" yMin="-61" xMax="1542" yMax="2125">
      <component glyphName="O" x="0" y="0" flags="0x1204"/>
      <component glyphName="grave" x="215" y="403" flags="0x1004"/>
    </TTGlyph>
    <TTGlyph name="Ohungarumlaut" xMin="94" yMin="-61" xMax="1638" yMax="2107">
      <component glyphName="O" x="0" y="0" flags="0x1204"/>
      <component glyphName="hungarumlaut" x="532" y="385" flags="0x1004"/>
    </TTGlyph>
    <TTGlyph name="Omacron" xMin="94" yMin="-61" xMax="1542" yMax="1841">
      <component glyphName="O" x="0" y="0" flags="0x1204"/>
      <component glyphName="macron" x="473" y="260" flags="0x1004"/>
    </TTGlyph>
    <TTGlyph name="Oslash" xMin="94" yMin="-172" xMax="1542" yMax="1520">
      <contour>
        <pt x="510" y="133" on="1"/>
        <pt x="342" y="329" on="0"/>
        <pt x="342" y="727" on="1"/>
        <pt x="342" y="1117" on="0"/>
        <pt x="571" y="1317" on="1"/>
        <pt x="577" y="1323" on="0"/>
        <pt x="586" y="1329" on="1"/>
        <pt x="412" y="1252" on="0"/>
        <pt x="307" y="1086" on="1"/>
        <pt x="199" y="916" on="0"/>
        <pt x="199" y="711" on="1"/>
        <pt x="199" y="434" on="0"/>
        <pt x="383" y="237" on="1"/>
        <pt x="440" y="176" on="0"/>
      </contour>
      <contour>
        <pt x="520" y="6" on="1"/>
        <pt x="475" y="-83" on="0"/>
        <pt x="455" y="-137" on="1"/>
        <pt x="455" y="-154" on="0"/>
        <pt x="423" y="-172" on="0"/>
        <pt x="389" y="-172" on="0"/>
        <pt x="354" y="-145" on="0"/>
        <pt x="354" y="-96" on="0"/>
        <pt x="432" y="57" on="1"/>
        <pt x="193" y="220" on="0"/>
        <pt x="118" y="512" on="1"/>
        <pt x="94" y="608" on="0"/>
        <pt x="94" y="817" on="0"/>
        <pt x="146" y="1015" on="0"/>
        <pt x="240" y="1186" on="0"/>
        <pt x="373" y="1327" on="0"/>
        <pt x="453" y="1378" on="1"/>
        <pt x="620" y="1483" on="0"/>
        <pt x="1034" y="1483" on="0"/>
        <pt x="1198" y="1382" on="1"/>
        <pt x="1238" y="1448" on="0"/>
        <pt x="1274" y="1497" on="1"/>
        <pt x="1285" y="1520" on="0"/>
        <pt x="1340" y="1520" on="0"/>
        <pt x="1368" y="1486" on="0"/>
        <pt x="1368" y="1466" on="1"/>
        <pt x="1360" y="1438" on="1"/>
        <pt x="1282" y="1319" on="1"/>
        <pt x="1473" y="1152" on="0"/>
        <pt x="1526" y="883" on="1"/>
        <pt x="1542" y="798" on="0"/>
        <pt x="1542" y="606" on="0"/>
        <pt x="1489" y="411" on="0"/>
        <pt x="1394" y="239" on="0"/>
        <pt x="1260" y="97" on="0"/>
        <pt x="1180" y="46" on="1"/>
        <pt x="1011" y="-61" on="0"/>
        <pt x="662" y="-61" on="0"/>
      </contour>
      <contour>
        <pt x="610" y="182" on="1"/>
        <pt x="724" y="57" on="0"/>
        <pt x="913" y="57" on="1"/>
        <pt x="1048" y="57" on="0"/>
        <pt x="1176" y="160" on="1"/>
        <pt x="1292" y="255" on="0"/>
        <pt x="1366" y="410" on="1"/>
        <pt x="1438" y="562" on="0"/>
        <pt x="1438" y="711" on="1"/>
        <pt x="1438" y="949" on="0"/>
        <pt x="1314" y="1132" on="1"/>
        <pt x="1276" y="1189" on="0"/>
        <pt x="1229" y="1233" on="1"/>
        <pt x="824" y="584" on="0"/>
      </contour>
      <contour>
        <pt x="1145" y="1298" on="1"/>
        <pt x="1044" y="1354" on="0"/>
        <pt x="860" y="1354" on="0"/>
        <pt x="718" y="1302" on="0"/>
        <pt x="607" y="1213" on="0"/>
        <pt x="525" y="1091" on="0"/>
        <pt x="498" y="1022" on="1"/>
        <pt x="446" y="884" on="0"/>
        <pt x="446" y="744" on="1"/>
        <pt x="446" y="448" on="0"/>
        <pt x="545" y="272" on="1"/>
        <pt x="821" y="778" on="0"/>
      </contour>
    </TTGlyph>
    <TTGlyph name="Oslashacute" xMin="94" yMin="-172" xMax="1542" yMax="2121">
      <component glyphName="Oslash" x="0" y="0" flags="0x1204"/>
      <component glyphName="acute" x="815" y="399" flags="0x1004"/>
    </TTGlyph>
    <TTGlyph name="Otilde" xMin="94" yMin="-61" xMax="1542" yMax="2096">
      <component glyphName="O" x="0" y="0" flags="0x1204"/>
      <component glyphName="tilde" x="430" y="367" flags="0x1004"/>
    </TTGlyph>
    <TTGlyph name="P" xMin="80" yMin="-18" xMax="1405" yMax="1470">
      <contour>
        <pt x="549" y="1364" on="1"/>
        <pt x="465" y="1360" on="0"/>
        <pt x="403" y="1354" on="1"/>
        <pt x="381" y="102" on="1"/>
        <pt x="514" y="102" on="1"/>
      </contour>
      <contour>
        <pt x="631" y="520" on="1"/>
        <pt x="693" y="504" on="0"/>
        <pt x="879" y="504" on="0"/>
        <pt x="1070" y="559" on="0"/>
        <pt x="1142" y="613" on="1"/>
        <pt x="1300" y="730" on="0"/>
        <pt x="1300" y="936" on="1"/>
        <pt x="1300" y="1222" on="0"/>
        <pt x="991" y="1320" on="1"/>
        <pt x="877" y="1357" on="0"/>
        <pt x="723" y="1364" on="1"/>
        <pt x="653" y="1364" on="1"/>
      </contour>
      <contour>
        <pt x="768" y="-18" on="1"/>
        <pt x="449" y="14" on="0"/>
        <pt x="137" y="-18" on="1"/>
        <pt x="133" y="-18" on="1"/>
        <pt x="111" y="-18" on="0"/>
        <pt x="80" y="13" on="0"/>
        <pt x="80" y="33" on="1"/>
        <pt x="80" y="53" on="0"/>
        <pt x="107" y="83" on="0"/>
        <pt x="164" y="89" on="0"/>
        <pt x="239" y="95" on="0"/>
        <pt x="276" y="98" on="1"/>
        <pt x="299" y="1339" on="1"/>
        <pt x="225" y="1327" on="0"/>
        <pt x="154" y="1303" on="0"/>
        <pt x="140" y="1298" on="0"/>
        <pt x="111" y="1298" on="0"/>
        <pt x="80" y="1332" on="0"/>
        <pt x="80" y="1350" on="1"/>
        <pt x="80" y="1389" on="0"/>
        <pt x="113" y="1401" on="1"/>
        <pt x="320" y="1470" on="0"/>
        <pt x="633" y="1470" on="1"/>
        <pt x="678" y="1470" on="1"/>
        <pt x="702" y="1470" on="0"/>
        <pt x="812" y="1465" on="0"/>
        <pt x="980" y="1437" on="0"/>
        <pt x="1132" y="1380" on="0"/>
        <pt x="1259" y="1296" on="0"/>
        <pt x="1306" y="1238" on="1"/>
        <pt x="1405" y="1114" on="0"/>
        <pt x="1405" y="936" on="1"/>
        <pt x="1405" y="689" on="0"/>
        <pt x="1201" y="536" on="1"/>
        <pt x="1017" y="399" on="0"/>
        <pt x="774" y="399" on="1"/>
        <pt x="689" y="399" on="0"/>
        <pt x="629" y="414" on="1"/>
        <pt x="621" y="98" on="1"/>
        <pt x="678" y="94" on="0"/>
        <pt x="778" y="86" on="1"/>
        <pt x="798" y="83" on="0"/>
        <pt x="825" y="53" on="0"/>
        <pt x="825" y="10" on="0"/>
        <pt x="791" y="-18" on="0"/>
        <pt x="772" y="-18" on="1"/>
      </contour>
    </TTGlyph>
    <TTGlyph name="Q" xMin="94" yMin="-276" xMax="1585" yMax="1483">
      <contour>
        <pt x="1108" y="6" on="1"/>
        <pt x="870" y="-106" on="0"/>
        <pt x="626" y="-34" on="1"/>
        <pt x="443" y="21" on="0"/>
        <pt x="306" y="166" on="1"/>
        <pt x="172" y="308" on="0"/>
        <pt x="120" y="506" on="1"/>
        <pt x="94" y="605" on="0"/>
        <pt x="94" y="711" on="1"/>
        <pt x="94" y="920" on="0"/>
        <pt x="193" y="1100" on="1"/>
        <pt x="288" y="1273" on="0"/>
        <pt x="453" y="1378" on="1"/>
        <pt x="620" y="1483" on="0"/>
        <pt x="817" y="1483" on="1"/>
        <pt x="1020" y="1483" on="0"/>
        <pt x="1192" y="1370" on="1"/>
        <pt x="1353" y="1264" on="0"/>
        <pt x="1542" y="906" on="0"/>
        <pt x="1542" y="711" on="1"/>
        <pt x="1542" y="409" on="0"/>
        <pt x="1340" y="182" on="1"/>
        <pt x="1278" y="111" on="0"/>
        <pt x="1202" y="59" on="1"/>
        <pt x="1249" y="-100" on="0"/>
        <pt x="1354" y="-152" on="1"/>
        <pt x="1390" y="-170" on="0"/>
        <pt x="1420" y="-170" on="1"/>
        <pt x="1474" y="-170" on="0"/>
        <pt x="1493" y="-158" on="1"/>
        <pt x="1537" y="-128" on="0"/>
        <pt x="1568" y="-156" on="1"/>
        <pt x="1585" y="-170" on="0"/>
        <pt x="1585" y="-222" on="0"/>
        <pt x="1558" y="-239" on="1"/>
        <pt x="1501" y="-276" on="0"/>
        <pt x="1374" y="-276" on="0"/>
        <pt x="1274" y="-232" on="0"/>
        <pt x="1233" y="-194" on="1"/>
        <pt x="1153" y="-120" on="0"/>
      </contour>
      <contour>
        <pt x="897" y="360" on="1"/>
        <pt x="1094" y="360" on="0"/>
        <pt x="1174" y="158" on="1"/>
        <pt x="1291" y="255" on="0"/>
        <pt x="1364" y="407" on="1"/>
        <pt x="1438" y="561" on="0"/>
        <pt x="1438" y="711" on="1"/>
        <pt x="1438" y="849" on="0"/>
        <pt x="1370" y="1000" on="1"/>
        <pt x="1300" y="1152" on="0"/>
        <pt x="1192" y="1248" on="1"/>
        <pt x="1073" y="1354" on="0"/>
        <pt x="948" y="1354" on="1"/>
        <pt x="702" y="1354" on="0"/>
        <pt x="566" y="1152" on="1"/>
        <pt x="446" y="973" on="0"/>
        <pt x="446" y="727" on="1"/>
        <pt x="446" y="547" on="0"/>
        <pt x="510" y="335" on="0"/>
        <pt x="581" y="206" on="0"/>
        <pt x="633" y="158" on="1"/>
        <pt x="744" y="57" on="0"/>
        <pt x="913" y="57" on="1"/>
        <pt x="997" y="57" on="0"/>
        <pt x="1083" y="100" on="1"/>
        <pt x="1034" y="256" on="0"/>
        <pt x="897" y="256" on="1"/>
        <pt x="841" y="256" on="0"/>
        <pt x="768" y="225" on="0"/>
        <pt x="739" y="225" on="0"/>
        <pt x="705" y="256" on="0"/>
        <pt x="705" y="274" on="1"/>
        <pt x="705" y="314" on="0"/>
        <pt x="750" y="332" on="1"/>
        <pt x="817" y="360" on="0"/>
      </contour>
      <contour>
        <pt x="510" y="133" on="1"/>
        <pt x="342" y="329" on="0"/>
        <pt x="342" y="727" on="1"/>
        <pt x="342" y="1117" on="0"/>
        <pt x="571" y="1317" on="1"/>
        <pt x="584" y="1327" on="1"/>
        <pt x="412" y="1251" on="0"/>
        <pt x="306" y="1085" on="1"/>
        <pt x="199" y="917" on="0"/>
        <pt x="199" y="711" on="1"/>
        <pt x="199" y="434" on="0"/>
        <pt x="383" y="237" on="1"/>
        <pt x="440" y="176" on="0"/>
      </contour>
    </TTGlyph>
    <TTGlyph name="R" xMin="78" yMin="-18" xMax="1520" yMax="1468">
      <contour>
        <pt x="381" y="106" on="1"/>
        <pt x="431" y="111" on="0"/>
        <pt x="512" y="111" on="1"/>
        <pt x="547" y="1358" on="1"/>
        <pt x="463" y="1354" on="0"/>
        <pt x="401" y="1348" on="1"/>
      </contour>
      <contour>
        <pt x="1133" y="88" on="1"/>
        <pt x="1042" y="214" on="0"/>
        <pt x="1042" y="518" on="1"/>
        <pt x="1042" y="554" on="1"/>
        <pt x="1042" y="572" on="0"/>
        <pt x="1044" y="586" on="1"/>
        <pt x="943" y="568" on="0"/>
        <pt x="907" y="565" on="1"/>
        <pt x="903" y="537" on="0"/>
        <pt x="903" y="430" on="0"/>
        <pt x="922" y="296" on="0"/>
        <pt x="948" y="238" on="1"/>
        <pt x="1005" y="106" on="0"/>
      </contour>
      <contour>
        <pt x="633" y="682" on="1"/>
        <pt x="700" y="668" on="0"/>
        <pt x="868" y="668" on="0"/>
        <pt x="994" y="682" on="0"/>
        <pt x="1115" y="714" on="0"/>
        <pt x="1223" y="767" on="0"/>
        <pt x="1264" y="806" on="1"/>
        <pt x="1352" y="893" on="0"/>
        <pt x="1352" y="1024" on="1"/>
        <pt x="1352" y="1221" on="0"/>
        <pt x="1165" y="1300" on="1"/>
        <pt x="1052" y="1347" on="0"/>
        <pt x="812" y="1364" on="0"/>
        <pt x="759" y="1364" on="1"/>
        <pt x="687" y="1364" on="1"/>
        <pt x="668" y="1364" on="0"/>
        <pt x="651" y="1362" on="1"/>
      </contour>
      <contour>
        <pt x="1415" y="356" on="1"/>
        <pt x="1413" y="387" on="1"/>
        <pt x="1413" y="410" on="0"/>
        <pt x="1446" y="438" on="0"/>
        <pt x="1466" y="438" on="1"/>
        <pt x="1486" y="438" on="0"/>
        <pt x="1516" y="411" on="0"/>
        <pt x="1518" y="391" on="1"/>
        <pt x="1520" y="356" on="1"/>
        <pt x="1520" y="191" on="0"/>
        <pt x="1426" y="88" on="1"/>
        <pt x="1330" y="-18" on="0"/>
        <pt x="1174" y="-18" on="1"/>
        <pt x="1171" y="-18" on="1"/>
        <pt x="911" y="-11" on="0"/>
        <pt x="831" y="256" on="1"/>
        <pt x="799" y="362" on="0"/>
        <pt x="799" y="494" on="1"/>
        <pt x="801" y="561" on="1"/>
        <pt x="724" y="561" on="0"/>
        <pt x="631" y="575" on="1"/>
        <pt x="616" y="57" on="1"/>
        <pt x="616" y="33" on="0"/>
        <pt x="585" y="6" on="0"/>
        <pt x="563" y="6" on="1"/>
        <pt x="329" y="6" on="0"/>
        <pt x="137" y="-18" on="1"/>
        <pt x="131" y="-18" on="1"/>
        <pt x="108" y="-18" on="0"/>
        <pt x="78" y="13" on="0"/>
        <pt x="78" y="33" on="1"/>
        <pt x="78" y="53" on="0"/>
        <pt x="103" y="83" on="0"/>
        <pt x="160" y="91" on="0"/>
        <pt x="237" y="97" on="0"/>
        <pt x="274" y="100" on="1"/>
        <pt x="297" y="1333" on="1"/>
        <pt x="145" y="1303" on="1"/>
        <pt x="138" y="1298" on="0"/>
        <pt x="108" y="1298" on="0"/>
        <pt x="78" y="1330" on="0"/>
        <pt x="78" y="1350" on="1"/>
        <pt x="78" y="1390" on="0"/>
        <pt x="115" y="1401" on="1"/>
        <pt x="316" y="1468" on="0"/>
        <pt x="729" y="1468" on="1"/>
        <pt x="961" y="1456" on="0"/>
        <pt x="1172" y="1408" on="0"/>
        <pt x="1306" y="1347" on="0"/>
        <pt x="1354" y="1299" on="1"/>
        <pt x="1456" y="1199" on="0"/>
        <pt x="1456" y="1024" on="1"/>
        <pt x="1456" y="881" on="0"/>
        <pt x="1371" y="770" on="1"/>
        <pt x="1290" y="664" on="0"/>
        <pt x="1151" y="618" on="1"/>
        <pt x="1147" y="572" on="0"/>
        <pt x="1147" y="501" on="0"/>
        <pt x="1149" y="425" on="0"/>
        <pt x="1157" y="335" on="0"/>
        <pt x="1174" y="241" on="0"/>
        <pt x="1188" y="202" on="1"/>
        <pt x="1221" y="115" on="0"/>
        <pt x="1278" y="115" on="1"/>
        <pt x="1348" y="115" on="0"/>
        <pt x="1386" y="208" on="1"/>
        <pt x="1415" y="277" on="0"/>
      </contour>
    </TTGlyph>
    <TTGlyph name="Racute" xMin="78" yMin="-18" xMax="1520" yMax="2099">
      <component glyphName="R" x="0" y="0" flags="0x1204"/>
      <component glyphName="acute" x="795" y="377" flags="0x1004"/>
    </TTGlyph>
    <TTGlyph name="Rcaron" xMin="78" yMin="-18" xMax="1520" yMax="2101">
      <component glyphName="R" x="0" y="0" flags="0x1204"/>
      <component glyphName="caron" x="408" y="381" flags="0x1004"/>
    </TTGlyph>
    <TTGlyph name="Rcommaaccent" xMin="78" yMin="-604" xMax="1520" yMax="1468">
      <component glyphName="R" x="0" y="0" flags="0x1204"/>
      <component glyphName="uni0326" x="551" y="0" flags="0x1004"/>
    </TTGlyph>
    <TTGlyph name="S" xMin="117" yMin="-70" xMax="1356" yMax="1489">
      <contour>
        <pt x="268" y="1098" on="1"/>
        <pt x="252" y="1041" on="0"/>
        <pt x="252" y="921" on="0"/>
        <pt x="285" y="823" on="0"/>
        <pt x="336" y="778" on="1"/>
        <pt x="452" y="676" on="0"/>
        <pt x="739" y="616" on="1"/>
        <pt x="924" y="576" on="0"/>
        <pt x="1115" y="479" on="0"/>
        <pt x="1222" y="374" on="0"/>
        <pt x="1237" y="301" on="1"/>
        <pt x="1251" y="342" on="0"/>
        <pt x="1251" y="447" on="0"/>
        <pt x="1210" y="539" on="0"/>
        <pt x="1143" y="608" on="0"/>
        <pt x="1055" y="660" on="0"/>
        <pt x="1008" y="678" on="1"/>
        <pt x="944" y="703" on="0"/>
        <pt x="764" y="747" on="0"/>
        <pt x="638" y="779" on="0"/>
        <pt x="518" y="819" on="0"/>
        <pt x="410" y="871" on="0"/>
        <pt x="368" y="907" on="1"/>
        <pt x="279" y="984" on="0"/>
      </contour>
      <contour>
        <pt x="229" y="334" on="1"/>
        <pt x="462" y="35" on="0"/>
        <pt x="809" y="35" on="1"/>
        <pt x="1023" y="35" on="0"/>
        <pt x="1108" y="140" on="1"/>
        <pt x="1141" y="179" on="0"/>
        <pt x="1141" y="283" on="0"/>
        <pt x="1095" y="354" on="0"/>
        <pt x="1021" y="410" on="0"/>
        <pt x="928" y="453" on="0"/>
        <pt x="881" y="469" on="1"/>
        <pt x="806" y="495" on="0"/>
        <pt x="648" y="527" on="0"/>
        <pt x="508" y="564" on="0"/>
        <pt x="382" y="616" on="0"/>
        <pt x="274" y="686" on="0"/>
        <pt x="234" y="734" on="1"/>
        <pt x="150" y="835" on="0"/>
        <pt x="150" y="989" on="1"/>
        <pt x="150" y="1218" on="0"/>
        <pt x="320" y="1352" on="1"/>
        <pt x="476" y="1475" on="0"/>
        <pt x="698" y="1475" on="1"/>
        <pt x="823" y="1475" on="0"/>
        <pt x="974" y="1424" on="1"/>
        <pt x="1120" y="1374" on="0"/>
        <pt x="1176" y="1309" on="1"/>
        <pt x="1199" y="1371" on="0"/>
        <pt x="1241" y="1460" on="1"/>
        <pt x="1258" y="1489" on="0"/>
        <pt x="1311" y="1489" on="0"/>
        <pt x="1341" y="1456" on="0"/>
        <pt x="1341" y="1425" on="0"/>
        <pt x="1283" y="1305" on="0"/>
        <pt x="1216" y="1088" on="0"/>
        <pt x="1202" y="977" on="1"/>
        <pt x="1200" y="957" on="0"/>
        <pt x="1171" y="932" on="0"/>
        <pt x="1128" y="932" on="0"/>
        <pt x="1098" y="966" on="0"/>
        <pt x="1098" y="983" on="1"/>
        <pt x="1098" y="989" on="1"/>
        <pt x="1110" y="1095" on="0"/>
        <pt x="1141" y="1198" on="1"/>
        <pt x="1123" y="1253" on="0"/>
        <pt x="966" y="1312" on="1"/>
        <pt x="810" y="1372" on="0"/>
        <pt x="688" y="1372" on="1"/>
        <pt x="478" y="1372" on="0"/>
        <pt x="401" y="1242" on="1"/>
        <pt x="374" y="1197" on="0"/>
        <pt x="373" y="1133" on="1"/>
        <pt x="383" y="987" on="0"/>
        <pt x="559" y="916" on="1"/>
        <pt x="644" y="880" on="0"/>
        <pt x="810" y="845" on="0"/>
        <pt x="951" y="812" on="0"/>
        <pt x="1135" y="752" on="0"/>
        <pt x="1204" y="703" on="1"/>
        <pt x="1356" y="596" on="0"/>
        <pt x="1356" y="389" on="1"/>
        <pt x="1356" y="183" on="0"/>
        <pt x="1177" y="50" on="1"/>
        <pt x="1014" y="-70" on="0"/>
        <pt x="811" y="-70" on="1"/>
        <pt x="457" y="-70" on="0"/>
        <pt x="221" y="182" on="1"/>
        <pt x="221" y="158" on="1"/>
        <pt x="221" y="95" on="0"/>
        <pt x="225" y="33" on="1"/>
        <pt x="225" y="29" on="1"/>
        <pt x="225" y="9" on="0"/>
        <pt x="198" y="-21" on="0"/>
        <pt x="153" y="-23" on="0"/>
        <pt x="123" y="5" on="0"/>
        <pt x="121" y="32" on="1"/>
        <pt x="117" y="86" on="0"/>
        <pt x="117" y="172" on="1"/>
        <pt x="117" y="331" on="0"/>
        <pt x="154" y="516" on="1"/>
        <pt x="165" y="559" on="0"/>
        <pt x="205" y="559" on="1"/>
        <pt x="228" y="559" on="0"/>
        <pt x="258" y="524" on="0"/>
        <pt x="258" y="514" on="1"/>
        <pt x="258" y="502" on="1"/>
        <pt x="258" y="499" on="0"/>
        <pt x="251" y="473" on="0"/>
        <pt x="244" y="434" on="0"/>
        <pt x="240" y="416" on="1"/>
        <pt x="237" y="395" on="0"/>
      </contour>
    </TTGlyph>
    <TTGlyph name="Sacute" xMin="117" yMin="-70" xMax="1356" yMax="2117">
      <component glyphName="S" x="0" y="0" flags="0x1204"/>
      <component glyphName="acute" x="702" y="395" flags="0x1004"/>
    </TTGlyph>
    <TTGlyph name="Scaron" xMin="117" yMin="-70" xMax="1356" yMax="2076">
      <component glyphName="S" x="0" y="0" flags="0x1204"/>
      <component glyphName="caron" x="342" y="356" flags="0x1004"/>
    </TTGlyph>
    <TTGlyph name="Scedilla" xMin="117" yMin="-649" xMax="1356" yMax="1489">
      <contour>
        <pt x="1098" y="-8" on="0"/>
        <pt x="905" y="-70" on="0"/>
        <pt x="771" y="-70" on="0"/>
        <pt x="727" y="-66" on="1"/>
        <pt x="688" y="-156" on="1"/>
        <pt x="727" y="-156" on="1"/>
        <pt x="847" y="-156" on="0"/>
        <pt x="927" y="-223" on="1"/>
        <pt x="1008" y="-291" on="0"/>
        <pt x="1008" y="-403" on="1"/>
        <pt x="1008" y="-521" on="0"/>
        <pt x="927" y="-588" on="1"/>
        <pt x="852" y="-649" on="0"/>
        <pt x="735" y="-649" on="1"/>
        <pt x="583" y="-649" on="0"/>
        <pt x="467" y="-549" on="1"/>
        <pt x="449" y="-533" on="0"/>
        <pt x="449" y="-488" on="0"/>
        <pt x="483" y="-457" on="0"/>
        <pt x="495" y="-457" on="1"/>
        <pt x="510" y="-457" on="0"/>
        <pt x="522" y="-462" on="1"/>
        <pt x="569" y="-479" on="0"/>
        <pt x="670" y="-479" on="0"/>
        <pt x="715" y="-433" on="0"/>
        <pt x="715" y="-363" on="0"/>
        <pt x="703" y="-323" on="0"/>
        <pt x="692" y="-308" on="1"/>
        <pt x="667" y="-272" on="0"/>
        <pt x="629" y="-272" on="1"/>
        <pt x="604" y="-274" on="1"/>
        <pt x="581" y="-274" on="0"/>
        <pt x="553" y="-241" on="0"/>
        <pt x="553" y="-228" on="1"/>
        <pt x="553" y="-211" on="0"/>
        <pt x="557" y="-201" on="1"/>
        <pt x="621" y="-49" on="1"/>
        <pt x="388" y="3" on="0"/>
        <pt x="221" y="182" on="1"/>
        <pt x="221" y="158" on="1"/>
        <pt x="221" y="95" on="0"/>
        <pt x="225" y="33" on="1"/>
        <pt x="225" y="29" on="1"/>
        <pt x="225" y="9" on="0"/>
        <pt x="198" y="-21" on="0"/>
        <pt x="153" y="-23" on="0"/>
        <pt x="123" y="5" on="0"/>
        <pt x="121" y="32" on="1"/>
        <pt x="117" y="86" on="0"/>
        <pt x="117" y="172" on="1"/>
        <pt x="117" y="331" on="0"/>
        <pt x="154" y="516" on="1"/>
        <pt x="165" y="559" on="0"/>
        <pt x="205" y="559" on="1"/>
        <pt x="228" y="559" on="0"/>
        <pt x="258" y="524" on="0"/>
        <pt x="258" y="514" on="1"/>
        <pt x="258" y="502" on="1"/>
        <pt x="258" y="499" on="0"/>
        <pt x="251" y="473" on="0"/>
        <pt x="244" y="434" on="0"/>
        <pt x="240" y="416" on="1"/>
        <pt x="237" y="395" on="0"/>
        <pt x="229" y="334" on="1"/>
        <pt x="462" y="35" on="0"/>
        <pt x="809" y="35" on="1"/>
        <pt x="1023" y="35" on="0"/>
        <pt x="1108" y="140" on="1"/>
        <pt x="1141" y="179" on="0"/>
        <pt x="1141" y="283" on="0"/>
        <pt x="1095" y="354" on="0"/>
        <pt x="1021" y="410" on="0"/>
        <pt x="928" y="453" on="0"/>
        <pt x="881" y="469" on="1"/>
        <pt x="806" y="495" on="0"/>
        <pt x="648" y="527" on="0"/>
        <pt x="508" y="564" on="0"/>
        <pt x="382" y="616" on="0"/>
        <pt x="274" y="686" on="0"/>
        <pt x="234" y="734" on="1"/>
        <pt x="150" y="835" on="0"/>
        <pt x="150" y="989" on="1"/>
        <pt x="150" y="1218" on="0"/>
        <pt x="320" y="1352" on="1"/>
        <pt x="476" y="1475" on="0"/>
        <pt x="698" y="1475" on="1"/>
        <pt x="823" y="1475" on="0"/>
        <pt x="974" y="1424" on="1"/>
        <pt x="1120" y="1374" on="0"/>
        <pt x="1176" y="1309" on="1"/>
        <pt x="1199" y="1371" on="0"/>
        <pt x="1241" y="1460" on="1"/>
        <pt x="1258" y="1489" on="0"/>
        <pt x="1311" y="1489" on="0"/>
        <pt x="1341" y="1456" on="0"/>
        <pt x="1341" y="1425" on="0"/>
        <pt x="1283" y="1305" on="0"/>
        <pt x="1216" y="1088" on="0"/>
        <pt x="1202" y="977" on="1"/>
        <pt x="1200" y="957" on="0"/>
        <pt x="1171" y="932" on="0"/>
        <pt x="1128" y="932" on="0"/>
        <pt x="1098" y="966" on="0"/>
        <pt x="1098" y="983" on="1"/>
        <pt x="1098" y="989" on="1"/>
        <pt x="1110" y="1095" on="0"/>
        <pt x="1141" y="1198" on="1"/>
        <pt x="1123" y="1253" on="0"/>
        <pt x="966" y="1312" on="1"/>
        <pt x="810" y="1372" on="0"/>
        <pt x="688" y="1372" on="1"/>
        <pt x="478" y="1372" on="0"/>
        <pt x="401" y="1242" on="1"/>
        <pt x="374" y="1197" on="0"/>
        <pt x="373" y="1133" on="1"/>
        <pt x="383" y="987" on="0"/>
        <pt x="559" y="916" on="1"/>
        <pt x="644" y="880" on="0"/>
        <pt x="810" y="845" on="0"/>
        <pt x="951" y="812" on="0"/>
        <pt x="1135" y="752" on="0"/>
        <pt x="1204" y="703" on="1"/>
        <pt x="1356" y="596" on="0"/>
        <pt x="1356" y="389" on="1"/>
        <pt x="1356" y="183" on="0"/>
        <pt x="1177" y="50" on="1"/>
      </contour>
      <contour>
        <pt x="268" y="1098" on="1"/>
        <pt x="252" y="1041" on="0"/>
        <pt x="252" y="921" on="0"/>
        <pt x="285" y="823" on="0"/>
        <pt x="336" y="778" on="1"/>
        <pt x="452" y="676" on="0"/>
        <pt x="739" y="616" on="1"/>
        <pt x="924" y="576" on="0"/>
        <pt x="1115" y="479" on="0"/>
        <pt x="1222" y="374" on="0"/>
        <pt x="1237" y="301" on="1"/>
        <pt x="1251" y="342" on="0"/>
        <pt x="1251" y="447" on="0"/>
        <pt x="1210" y="539" on="0"/>
        <pt x="1143" y="608" on="0"/>
        <pt x="1055" y="660" on="0"/>
        <pt x="1008" y="678" on="1"/>
        <pt x="944" y="703" on="0"/>
        <pt x="764" y="747" on="0"/>
        <pt x="638" y="779" on="0"/>
        <pt x="518" y="819" on="0"/>
        <pt x="410" y="871" on="0"/>
        <pt x="368" y="907" on="1"/>
        <pt x="279" y="984" on="0"/>
      </contour>
      <contour>
        <pt x="819" y="-383" on="1"/>
        <pt x="819" y="-488" on="0"/>
        <pt x="750" y="-543" on="1"/>
        <pt x="822" y="-537" on="0"/>
        <pt x="903" y="-463" on="0"/>
        <pt x="903" y="-346" on="0"/>
        <pt x="841" y="-276" on="0"/>
        <pt x="788" y="-266" on="1"/>
        <pt x="819" y="-316" on="0"/>
      </contour>
    </TTGlyph>
    <TTGlyph name="Scircumflex" xMin="117" yMin="-70" xMax="1356" yMax="2087">
      <component glyphName="S" x="0" y="0" flags="0x1204"/>
      <component glyphName="circumflex" x="336" y="367" flags="0x1004"/>
    </TTGlyph>
    <TTGlyph name="T" xMin="31" yMin="-25" xMax="1321" yMax="1460">
      <contour>
        <pt x="752" y="1327" on="1"/>
        <pt x="752" y="1327" on="0"/>
        <pt x="608" y="1329" on="1"/>
        <pt x="586" y="96" on="1"/>
        <pt x="603" y="98" on="0"/>
        <pt x="620" y="98" on="1"/>
        <pt x="652" y="98" on="0"/>
        <pt x="702" y="98" on="0"/>
        <pt x="719" y="96" on="1"/>
      </contour>
      <contour>
        <pt x="178" y="1460" on="1"/>
        <pt x="386" y="1432" on="0"/>
        <pt x="1058" y="1432" on="0"/>
        <pt x="1182" y="1442" on="1"/>
        <pt x="1186" y="1442" on="1"/>
        <pt x="1204" y="1442" on="0"/>
        <pt x="1234" y="1417" on="0"/>
        <pt x="1237" y="1398" on="0"/>
        <pt x="1243" y="1366" on="0"/>
        <pt x="1253" y="1312" on="0"/>
        <pt x="1268" y="1242" on="0"/>
        <pt x="1277" y="1204" on="1"/>
        <pt x="1300" y="1110" on="0"/>
        <pt x="1319" y="1057" on="1"/>
        <pt x="1321" y="1040" on="1"/>
        <pt x="1321" y="1019" on="0"/>
        <pt x="1288" y="987" on="0"/>
        <pt x="1270" y="987" on="1"/>
        <pt x="1232" y="987" on="0"/>
        <pt x="1219" y="1024" on="1"/>
        <pt x="1167" y="1175" on="0"/>
        <pt x="1143" y="1333" on="1"/>
        <pt x="1029" y="1327" on="0"/>
        <pt x="856" y="1327" on="1"/>
        <pt x="823" y="92" on="1"/>
        <pt x="996" y="86" on="0"/>
        <pt x="1028" y="49" on="0"/>
        <pt x="1028" y="4" on="0"/>
        <pt x="995" y="-25" on="0"/>
        <pt x="977" y="-25" on="1"/>
        <pt x="971" y="-25" on="1"/>
        <pt x="833" y="-8" on="0"/>
        <pt x="473" y="-8" on="0"/>
        <pt x="342" y="-25" on="1"/>
        <pt x="336" y="-25" on="1"/>
        <pt x="314" y="-25" on="0"/>
        <pt x="283" y="9" on="0"/>
        <pt x="283" y="29" on="1"/>
        <pt x="283" y="49" on="0"/>
        <pt x="296" y="64" on="1"/>
        <pt x="317" y="85" on="0"/>
        <pt x="481" y="92" on="1"/>
        <pt x="504" y="1333" on="1"/>
        <pt x="346" y="1339" on="0"/>
        <pt x="211" y="1350" on="1"/>
        <pt x="205" y="1323" on="0"/>
        <pt x="188" y="1245" on="0"/>
        <pt x="178" y="1201" on="1"/>
        <pt x="146" y="1071" on="0"/>
        <pt x="137" y="1040" on="1"/>
        <pt x="121" y="987" on="0"/>
        <pt x="84" y="987" on="1"/>
        <pt x="61" y="987" on="0"/>
        <pt x="31" y="1020" on="0"/>
        <pt x="31" y="1032" on="1"/>
        <pt x="31" y="1048" on="1"/>
        <pt x="31" y="1052" on="0"/>
        <pt x="48" y="1108" on="0"/>
        <pt x="78" y="1234" on="0"/>
        <pt x="90" y="1289" on="1"/>
        <pt x="119" y="1414" on="0"/>
        <pt x="119" y="1419" on="1"/>
        <pt x="130" y="1460" on="0"/>
        <pt x="170" y="1460" on="1"/>
      </contour>
    </TTGlyph>
    <TTGlyph name="Tbar" xMin="31" yMin="-25" xMax="1321" yMax="1460">
      <contour>
        <pt x="752" y="1327" on="1"/>
        <pt x="752" y="1327" on="0"/>
        <pt x="608" y="1329" on="1"/>
        <pt x="586" y="96" on="1"/>
        <pt x="603" y="98" on="0"/>
        <pt x="620" y="98" on="1"/>
        <pt x="652" y="98" on="0"/>
        <pt x="702" y="98" on="0"/>
        <pt x="719" y="96" on="1"/>
      </contour>
      <contour>
        <pt x="922" y="758" on="1"/>
        <pt x="930" y="760" on="1"/>
        <pt x="951" y="760" on="0"/>
        <pt x="981" y="728" on="0"/>
        <pt x="981" y="708" on="1"/>
        <pt x="981" y="671" on="0"/>
        <pt x="936" y="655" on="1"/>
        <pt x="881" y="640" on="0"/>
        <pt x="838" y="635" on="1"/>
        <pt x="823" y="92" on="1"/>
        <pt x="996" y="86" on="0"/>
        <pt x="1028" y="49" on="0"/>
        <pt x="1028" y="4" on="0"/>
        <pt x="995" y="-25" on="0"/>
        <pt x="977" y="-25" on="1"/>
        <pt x="971" y="-25" on="1"/>
        <pt x="833" y="-8" on="0"/>
        <pt x="473" y="-8" on="0"/>
        <pt x="342" y="-25" on="1"/>
        <pt x="336" y="-25" on="1"/>
        <pt x="314" y="-25" on="0"/>
        <pt x="283" y="9" on="0"/>
        <pt x="283" y="29" on="1"/>
        <pt x="283" y="49" on="0"/>
        <pt x="296" y="64" on="1"/>
        <pt x="317" y="85" on="0"/>
        <pt x="481" y="92" on="1"/>
        <pt x="492" y="637" on="1"/>
        <pt x="472" y="642" on="0"/>
        <pt x="432" y="649" on="0"/>
        <pt x="412" y="654" on="1"/>
        <pt x="367" y="667" on="0"/>
        <pt x="367" y="707" on="1"/>
        <pt x="367" y="728" on="0"/>
        <pt x="397" y="760" on="0"/>
        <pt x="420" y="760" on="1"/>
        <pt x="426" y="758" on="1"/>
        <pt x="494" y="748" on="1"/>
        <pt x="504" y="1333" on="1"/>
        <pt x="346" y="1339" on="0"/>
        <pt x="211" y="1350" on="1"/>
        <pt x="205" y="1323" on="0"/>
        <pt x="188" y="1245" on="0"/>
        <pt x="178" y="1201" on="1"/>
        <pt x="146" y="1071" on="0"/>
        <pt x="137" y="1040" on="1"/>
        <pt x="121" y="987" on="0"/>
        <pt x="84" y="987" on="1"/>
        <pt x="61" y="987" on="0"/>
        <pt x="31" y="1020" on="0"/>
        <pt x="31" y="1032" on="1"/>
        <pt x="31" y="1048" on="1"/>
        <pt x="31" y="1052" on="0"/>
        <pt x="48" y="1108" on="0"/>
        <pt x="78" y="1234" on="0"/>
        <pt x="90" y="1289" on="1"/>
        <pt x="119" y="1414" on="0"/>
        <pt x="119" y="1419" on="1"/>
        <pt x="130" y="1460" on="0"/>
        <pt x="170" y="1460" on="1"/>
        <pt x="178" y="1460" on="1"/>
        <pt x="386" y="1432" on="0"/>
        <pt x="1058" y="1432" on="0"/>
        <pt x="1182" y="1442" on="1"/>
        <pt x="1186" y="1442" on="1"/>
        <pt x="1204" y="1442" on="0"/>
        <pt x="1234" y="1417" on="0"/>
        <pt x="1237" y="1398" on="0"/>
        <pt x="1243" y="1366" on="0"/>
        <pt x="1253" y="1312" on="0"/>
        <pt x="1268" y="1242" on="0"/>
        <pt x="1277" y="1204" on="1"/>
        <pt x="1300" y="1110" on="0"/>
        <pt x="1319" y="1057" on="1"/>
        <pt x="1321" y="1040" on="1"/>
        <pt x="1321" y="1019" on="0"/>
        <pt x="1288" y="987" on="0"/>
        <pt x="1270" y="987" on="1"/>
        <pt x="1232" y="987" on="0"/>
        <pt x="1219" y="1024" on="1"/>
        <pt x="1167" y="1175" on="0"/>
        <pt x="1143" y="1333" on="1"/>
        <pt x="1029" y="1327" on="0"/>
        <pt x="856" y="1327" on="1"/>
        <pt x="840" y="737" on="1"/>
        <pt x="887" y="744" on="0"/>
      </contour>
    </TTGlyph>
    <TTGlyph name="Tcaron" xMin="31" yMin="-25" xMax="1321" yMax="2068">
      <component glyphName="T" x="0" y="0" flags="0x1204"/>
      <component glyphName="caron" x="328" y="348" flags="0x1004"/>
    </TTGlyph>
    <TTGlyph name="Tcommaaccent" xMin="31" yMin="-604" xMax="1321" yMax="1460">
      <component glyphName="T" x="0" y="0" flags="0x1204"/>
      <component glyphName="uni0326" x="422" y="0" flags="0x1004"/>
    </TTGlyph>
    <TTGlyph name="Thorn" xMin="119" yMin="-18" xMax="1438" yMax="1468">
      <contour>
        <pt x="588" y="1350" on="1"/>
        <pt x="562" y="1348" on="0"/>
        <pt x="537" y="1348" on="1"/>
        <pt x="490" y="1348" on="0"/>
        <pt x="442" y="1348" on="1"/>
        <pt x="420" y="102" on="1"/>
        <pt x="553" y="102" on="1"/>
      </contour>
      <contour>
        <pt x="666" y="365" on="1"/>
        <pt x="731" y="360" on="0"/>
        <pt x="872" y="360" on="0"/>
        <pt x="1062" y="395" on="0"/>
        <pt x="1138" y="432" on="1"/>
        <pt x="1333" y="526" on="0"/>
        <pt x="1333" y="733" on="1"/>
        <pt x="1333" y="1002" on="0"/>
        <pt x="996" y="1087" on="1"/>
        <pt x="864" y="1120" on="0"/>
        <pt x="688" y="1120" on="1"/>
        <pt x="686" y="1120" on="1"/>
      </contour>
      <contour>
        <pt x="176" y="1468" on="1"/>
        <pt x="332" y="1452" on="0"/>
        <pt x="645" y="1452" on="0"/>
        <pt x="807" y="1468" on="1"/>
        <pt x="811" y="1468" on="1"/>
        <pt x="834" y="1466" on="0"/>
        <pt x="864" y="1438" on="0"/>
        <pt x="864" y="1395" on="0"/>
        <pt x="837" y="1366" on="0"/>
        <pt x="812" y="1364" on="1"/>
        <pt x="758" y="1358" on="0"/>
        <pt x="692" y="1354" on="1"/>
        <pt x="688" y="1225" on="1"/>
        <pt x="898" y="1223" on="0"/>
        <pt x="1134" y="1156" on="0"/>
        <pt x="1276" y="1082" on="0"/>
        <pt x="1328" y="1028" on="1"/>
        <pt x="1438" y="914" on="0"/>
        <pt x="1438" y="735" on="1"/>
        <pt x="1438" y="693" on="0"/>
        <pt x="1420" y="574" on="0"/>
        <pt x="1353" y="460" on="0"/>
        <pt x="1254" y="373" on="0"/>
        <pt x="1129" y="312" on="0"/>
        <pt x="1060" y="293" on="1"/>
        <pt x="927" y="256" on="0"/>
        <pt x="722" y="256" on="0"/>
        <pt x="664" y="260" on="1"/>
        <pt x="659" y="98" on="1"/>
        <pt x="737" y="92" on="0"/>
        <pt x="817" y="86" on="1"/>
        <pt x="864" y="76" on="0"/>
        <pt x="864" y="29" on="1"/>
        <pt x="862" y="7" on="0"/>
        <pt x="831" y="-18" on="0"/>
        <pt x="811" y="-18" on="1"/>
        <pt x="807" y="-18" on="1"/>
        <pt x="645" y="-2" on="0"/>
        <pt x="332" y="-2" on="0"/>
        <pt x="176" y="-18" on="1"/>
        <pt x="172" y="-18" on="1"/>
        <pt x="150" y="-18" on="0"/>
        <pt x="119" y="13" on="0"/>
        <pt x="119" y="33" on="1"/>
        <pt x="119" y="53" on="0"/>
        <pt x="146" y="83" on="0"/>
        <pt x="203" y="89" on="0"/>
        <pt x="278" y="95" on="0"/>
        <pt x="315" y="98" on="1"/>
        <pt x="319" y="324" on="1"/>
        <pt x="144" y="382" on="0"/>
        <pt x="128" y="408" on="1"/>
        <pt x="119" y="421" on="0"/>
        <pt x="119" y="459" on="0"/>
        <pt x="152" y="489" on="0"/>
        <pt x="164" y="489" on="1"/>
        <pt x="179" y="489" on="0"/>
        <pt x="228" y="470" on="0"/>
        <pt x="291" y="445" on="0"/>
        <pt x="322" y="434" on="1"/>
        <pt x="334" y="1085" on="1"/>
        <pt x="242" y="1064" on="0"/>
        <pt x="181" y="1036" on="0"/>
        <pt x="149" y="1036" on="0"/>
        <pt x="119" y="1070" on="0"/>
        <pt x="119" y="1087" on="1"/>
        <pt x="119" y="1123" on="0"/>
        <pt x="147" y="1137" on="1"/>
        <pt x="202" y="1165" on="0"/>
        <pt x="336" y="1192" on="1"/>
        <pt x="338" y="1352" on="1"/>
        <pt x="251" y="1355" on="0"/>
        <pt x="166" y="1364" on="1"/>
        <pt x="146" y="1366" on="0"/>
        <pt x="119" y="1397" on="0"/>
        <pt x="119" y="1440" on="0"/>
        <pt x="153" y="1468" on="0"/>
        <pt x="172" y="1468" on="1"/>
      </contour>
    </TTGlyph>
    <TTGlyph name="U" xMin="74" yMin="-68" xMax="1493" yMax="1460">
      <contour>
        <pt x="352" y="1319" on="1"/>
        <pt x="309" y="1061" on="0"/>
        <pt x="309" y="766" on="1"/>
        <pt x="309" y="379" on="0"/>
        <pt x="422" y="206" on="1"/>
        <pt x="500" y="89" on="0"/>
        <pt x="631" y="51" on="1"/>
        <pt x="476" y="234" on="0"/>
        <pt x="461" y="570" on="1"/>
        <pt x="457" y="662" on="0"/>
        <pt x="457" y="750" on="1"/>
        <pt x="457" y="1038" on="0"/>
        <pt x="496" y="1319" on="1"/>
      </contour>
      <contour>
        <pt x="1181" y="321" on="0"/>
        <pt x="1223" y="551" on="0"/>
        <pt x="1223" y="964" on="0"/>
        <pt x="1178" y="1333" on="1"/>
        <pt x="1010" y="1319" on="1"/>
        <pt x="1004" y="1319" on="1"/>
        <pt x="982" y="1319" on="0"/>
        <pt x="952" y="1352" on="0"/>
        <pt x="952" y="1372" on="1"/>
        <pt x="952" y="1392" on="0"/>
        <pt x="979" y="1422" on="0"/>
        <pt x="999" y="1425" on="1"/>
        <pt x="1438" y="1460" on="1"/>
        <pt x="1442" y="1460" on="1"/>
        <pt x="1463" y="1460" on="0"/>
        <pt x="1493" y="1429" on="0"/>
        <pt x="1493" y="1387" on="0"/>
        <pt x="1466" y="1358" on="0"/>
        <pt x="1446" y="1356" on="1"/>
        <pt x="1282" y="1343" on="1"/>
        <pt x="1326" y="954" on="0"/>
        <pt x="1329" y="682" on="1"/>
        <pt x="1315" y="205" on="0"/>
        <pt x="1092" y="34" on="1"/>
        <pt x="960" y="-68" on="0"/>
        <pt x="752" y="-68" on="1"/>
        <pt x="532" y="-68" on="0"/>
        <pt x="398" y="74" on="1"/>
        <pt x="203" y="280" on="0"/>
        <pt x="203" y="770" on="1"/>
        <pt x="203" y="1068" on="0"/>
        <pt x="246" y="1319" on="1"/>
        <pt x="127" y="1319" on="1"/>
        <pt x="104" y="1319" on="0"/>
        <pt x="74" y="1350" on="0"/>
        <pt x="74" y="1372" on="1"/>
        <pt x="74" y="1394" on="0"/>
        <pt x="104" y="1425" on="0"/>
        <pt x="127" y="1425" on="1"/>
        <pt x="754" y="1425" on="1"/>
        <pt x="775" y="1425" on="0"/>
        <pt x="807" y="1394" on="0"/>
        <pt x="807" y="1372" on="1"/>
        <pt x="807" y="1350" on="0"/>
        <pt x="775" y="1319" on="0"/>
        <pt x="754" y="1319" on="1"/>
        <pt x="602" y="1319" on="1"/>
        <pt x="561" y="1057" on="0"/>
        <pt x="561" y="745" on="1"/>
        <pt x="561" y="53" on="0"/>
        <pt x="866" y="53" on="1"/>
        <pt x="1044" y="53" on="0"/>
        <pt x="1138" y="236" on="1"/>
      </contour>
    </TTGlyph>
    <TTGlyph name="Uacute" xMin="76" yMin="-68" xMax="1495" yMax="2058">
      <component glyphName="U" x="2" y="0" flags="0x1004"/>
      <component glyphName="acute" x="838" y="336" flags="0x1004"/>
    </TTGlyph>
    <TTGlyph name="Ubreve" xMin="74" yMin="-68" xMax="1493" yMax="1944">
      <component glyphName="U" x="0" y="0" flags="0x1204"/>
      <component glyphName="breve" x="563" y="297" flags="0x1004"/>
    </TTGlyph>
    <TTGlyph name="Ucircumflex" xMin="76" yMin="-68" xMax="1495" yMax="2052">
      <component glyphName="U" x="2" y="0" flags="0x1004"/>
      <component glyphName="circumflex" x="424" y="332" flags="0x1004"/>
    </TTGlyph>
    <TTGlyph name="Udieresis" xMin="76" yMin="-68" xMax="1495" yMax="1788">
      <component glyphName="U" x="2" y="0" flags="0x1004"/>
      <component glyphName="dieresis" x="414" y="203" flags="0x1004"/>
    </TTGlyph>
    <TTGlyph name="Ugrave" xMin="76" yMin="-68" xMax="1495" yMax="2058">
      <component glyphName="U" x="2" y="0" flags="0x1004"/>
      <component glyphName="grave" x="281" y="336" flags="0x1004"/>
    </TTGlyph>
    <TTGlyph name="Uhungarumlaut" xMin="74" yMin="-68" xMax="1667" yMax="2074">
      <component glyphName="U" x="0" y="0" flags="0x1204"/>
      <component glyphName="hungarumlaut" x="561" y="352" flags="0x1004"/>
    </TTGlyph>
    <TTGlyph name="Umacron" xMin="74" yMin="-68" xMax="1493" yMax="1798">
      <component glyphName="U" x="0" y="0" flags="0x1204"/>
      <component glyphName="macron" x="492" y="217" flags="0x1004"/>
    </TTGlyph>
    <TTGlyph name="Uogonek" xMin="74" yMin="-631" xMax="1493" yMax="1460">
      <contour>
        <pt x="1114" y="-348" on="1"/>
        <pt x="1106" y="-406" on="0"/>
        <pt x="1032" y="-519" on="0"/>
        <pt x="990" y="-555" on="1"/>
        <pt x="901" y="-631" on="0"/>
        <pt x="793" y="-631" on="1"/>
        <pt x="681" y="-631" on="0"/>
        <pt x="600" y="-540" on="1"/>
        <pt x="520" y="-452" on="0"/>
        <pt x="520" y="-346" on="1"/>
        <pt x="520" y="-196" on="0"/>
        <pt x="674" y="-61" on="1"/>
        <pt x="486" y="-37" on="0"/>
        <pt x="372" y="105" on="1"/>
        <pt x="203" y="314" on="0"/>
        <pt x="203" y="770" on="1"/>
        <pt x="203" y="1068" on="0"/>
        <pt x="246" y="1319" on="1"/>
        <pt x="127" y="1319" on="1"/>
        <pt x="104" y="1319" on="0"/>
        <pt x="74" y="1350" on="0"/>
        <pt x="74" y="1372" on="1"/>
        <pt x="74" y="1394" on="0"/>
        <pt x="104" y="1425" on="0"/>
        <pt x="127" y="1425" on="1"/>
        <pt x="754" y="1425" on="1"/>
        <pt x="775" y="1425" on="0"/>
        <pt x="807" y="1394" on="0"/>
        <pt x="807" y="1372" on="1"/>
        <pt x="807" y="1350" on="0"/>
        <pt x="775" y="1319" on="0"/>
        <pt x="754" y="1319" on="1"/>
        <pt x="602" y="1319" on="1"/>
        <pt x="561" y="1057" on="0"/>
        <pt x="561" y="745" on="1"/>
        <pt x="561" y="53" on="0"/>
        <pt x="866" y="53" on="1"/>
        <pt x="1044" y="53" on="0"/>
        <pt x="1138" y="236" on="1"/>
        <pt x="1223" y="403" on="0"/>
        <pt x="1223" y="964" on="0"/>
        <pt x="1178" y="1333" on="1"/>
        <pt x="1010" y="1319" on="1"/>
        <pt x="1004" y="1319" on="1"/>
        <pt x="982" y="1319" on="0"/>
        <pt x="952" y="1352" on="0"/>
        <pt x="952" y="1372" on="1"/>
        <pt x="952" y="1392" on="0"/>
        <pt x="979" y="1422" on="0"/>
        <pt x="999" y="1425" on="1"/>
        <pt x="1438" y="1460" on="1"/>
        <pt x="1442" y="1460" on="1"/>
        <pt x="1463" y="1460" on="0"/>
        <pt x="1493" y="1429" on="0"/>
        <pt x="1493" y="1387" on="0"/>
        <pt x="1466" y="1358" on="0"/>
        <pt x="1446" y="1356" on="1"/>
        <pt x="1282" y="1343" on="1"/>
        <pt x="1326" y="954" on="0"/>
        <pt x="1329" y="682" on="1"/>
        <pt x="1318" y="367" on="0"/>
        <pt x="1223" y="192" on="1"/>
        <pt x="1109" y="-18" on="0"/>
        <pt x="872" y="-57" on="1"/>
        <pt x="774" y="-126" on="0"/>
        <pt x="774" y="-229" on="1"/>
        <pt x="774" y="-284" on="0"/>
        <pt x="798" y="-322" on="1"/>
        <pt x="843" y="-391" on="0"/>
        <pt x="895" y="-391" on="1"/>
        <pt x="946" y="-391" on="0"/>
        <pt x="1001" y="-336" on="1"/>
        <pt x="1014" y="-323" on="0"/>
        <pt x="1035" y="-297" on="0"/>
        <pt x="1084" y="-297" on="0"/>
        <pt x="1114" y="-331" on="0"/>
      </contour>
      <contour>
        <pt x="352" y="1319" on="1"/>
        <pt x="309" y="1061" on="0"/>
        <pt x="309" y="766" on="1"/>
        <pt x="309" y="379" on="0"/>
        <pt x="422" y="206" on="1"/>
        <pt x="500" y="89" on="0"/>
        <pt x="631" y="51" on="1"/>
        <pt x="476" y="234" on="0"/>
        <pt x="461" y="570" on="1"/>
        <pt x="457" y="662" on="0"/>
        <pt x="457" y="750" on="1"/>
        <pt x="457" y="1038" on="0"/>
        <pt x="496" y="1319" on="1"/>
      </contour>
      <contour>
        <pt x="668" y="-223" on="1"/>
        <pt x="627" y="-287" on="0"/>
        <pt x="627" y="-381" on="0"/>
        <pt x="655" y="-445" on="0"/>
        <pt x="678" y="-470" on="1"/>
        <pt x="728" y="-526" on="0"/>
        <pt x="793" y="-526" on="1"/>
        <pt x="842" y="-526" on="0"/>
        <pt x="891" y="-496" on="1"/>
        <pt x="796" y="-490" on="0"/>
        <pt x="730" y="-406" on="1"/>
        <pt x="668" y="-327" on="0"/>
        <pt x="668" y="-229" on="1"/>
      </contour>
    </TTGlyph>
    <TTGlyph name="Uring" xMin="74" yMin="-68" xMax="1493" yMax="2105">
      <component glyphName="U" x="0" y="0" flags="0x1204"/>
      <component glyphName="ring" x="545" y="354" flags="0x1004"/>
    </TTGlyph>
    <TTGlyph name="Utilde" xMin="74" yMin="-68" xMax="1493" yMax="2055">
      <component glyphName="U" x="0" y="0" flags="0x1204"/>
      <component glyphName="tilde" x="383" y="326" flags="0x1004"/>
    </TTGlyph>
    <TTGlyph name="V" xMin="-49" yMin="-76" xMax="1735" yMax="1444">
      <contour>
        <pt x="844" y="68" on="1"/>
        <pt x="920" y="188" on="1"/>
        <pt x="793" y="362" on="0"/>
        <pt x="680" y="612" on="1"/>
        <pt x="589" y="818" on="0"/>
        <pt x="466" y="1254" on="1"/>
        <pt x="456" y="1289" on="0"/>
        <pt x="451" y="1311" on="1"/>
        <pt x="431" y="1309" on="0"/>
        <pt x="410" y="1309" on="1"/>
        <pt x="372" y="1309" on="0"/>
        <pt x="320" y="1309" on="0"/>
        <pt x="303" y="1311" on="1"/>
        <pt x="481" y="554" on="0"/>
      </contour>
      <contour>
        <pt x="1212" y="1444" on="1"/>
        <pt x="1383" y="1413" on="0"/>
        <pt x="1452" y="1413" on="1"/>
        <pt x="1545" y="1413" on="0"/>
        <pt x="1669" y="1442" on="1"/>
        <pt x="1681" y="1444" on="1"/>
        <pt x="1703" y="1444" on="0"/>
        <pt x="1735" y="1411" on="0"/>
        <pt x="1735" y="1392" on="1"/>
        <pt x="1735" y="1350" on="0"/>
        <pt x="1694" y="1339" on="1"/>
        <pt x="1602" y="1317" on="0"/>
        <pt x="1509" y="1311" on="1"/>
        <pt x="1392" y="787" on="0"/>
        <pt x="1086" y="263" on="1"/>
        <pt x="992" y="103" on="0"/>
        <pt x="891" y="-51" on="1"/>
        <pt x="876" y="-71" on="0"/>
        <pt x="848" y="-76" on="1"/>
        <pt x="821" y="-76" on="0"/>
        <pt x="805" y="-55" on="1"/>
        <pt x="388" y="476" on="0"/>
        <pt x="195" y="1315" on="1"/>
        <pt x="145" y="1320" on="0"/>
        <pt x="45" y="1330" on="0"/>
        <pt x="10" y="1336" on="1"/>
        <pt x="-49" y="1346" on="0"/>
        <pt x="-49" y="1391" on="1"/>
        <pt x="-49" y="1415" on="0"/>
        <pt x="-13" y="1444" on="0"/>
        <pt x="4" y="1444" on="1"/>
        <pt x="50" y="1432" on="0"/>
        <pt x="280" y="1413" on="0"/>
        <pt x="562" y="1413" on="0"/>
        <pt x="717" y="1444" on="1"/>
        <pt x="740" y="1444" on="0"/>
        <pt x="768" y="1411" on="0"/>
        <pt x="768" y="1372" on="0"/>
        <pt x="744" y="1342" on="0"/>
        <pt x="683" y="1331" on="0"/>
        <pt x="600" y="1322" on="0"/>
        <pt x="557" y="1317" on="1"/>
        <pt x="633" y="1013" on="0"/>
        <pt x="704" y="832" on="1"/>
        <pt x="834" y="501" on="0"/>
        <pt x="979" y="287" on="1"/>
        <pt x="1137" y="552" on="0"/>
        <pt x="1216" y="743" on="1"/>
        <pt x="1344" y="1058" on="0"/>
        <pt x="1401" y="1311" on="1"/>
        <pt x="1199" y="1324" on="0"/>
        <pt x="1172" y="1357" on="1"/>
        <pt x="1159" y="1372" on="0"/>
        <pt x="1159" y="1412" on="0"/>
        <pt x="1192" y="1444" on="0"/>
      </contour>
    </TTGlyph>
    <TTGlyph name="W" xMin="-6" yMin="-92" xMax="1993" yMax="1460">
      <contour>
        <pt x="635" y="86" on="1"/>
        <pt x="678" y="170" on="0"/>
        <pt x="707" y="236" on="1"/>
        <pt x="470" y="660" on="0"/>
        <pt x="387" y="1327" on="1"/>
        <pt x="362" y="1325" on="0"/>
        <pt x="336" y="1325" on="1"/>
        <pt x="244" y="1325" on="1"/>
        <pt x="303" y="819" on="0"/>
        <pt x="508" y="341" on="1"/>
        <pt x="564" y="212" on="0"/>
      </contour>
      <contour>
        <pt x="1313" y="63" on="1"/>
        <pt x="1359" y="156" on="0"/>
        <pt x="1382" y="205" on="1"/>
        <pt x="1169" y="622" on="0"/>
        <pt x="1069" y="993" on="1"/>
        <pt x="1048" y="891" on="0"/>
        <pt x="1008" y="750" on="1"/>
        <pt x="1064" y="541" on="0"/>
        <pt x="1186" y="290" on="1"/>
        <pt x="1241" y="178" on="0"/>
      </contour>
      <contour>
        <pt x="1489" y="1452" on="1"/>
        <pt x="1589" y="1434" on="0"/>
        <pt x="1817" y="1434" on="0"/>
        <pt x="1927" y="1460" on="1"/>
        <pt x="1939" y="1460" on="1"/>
        <pt x="1961" y="1460" on="0"/>
        <pt x="1993" y="1429" on="0"/>
        <pt x="1993" y="1390" on="0"/>
        <pt x="1968" y="1361" on="0"/>
        <pt x="1935" y="1354" on="1"/>
        <pt x="1843" y="1334" on="0"/>
        <pt x="1757" y="1331" on="1"/>
        <pt x="1678" y="747" on="0"/>
        <pt x="1585" y="446" on="1"/>
        <pt x="1528" y="261" on="0"/>
        <pt x="1408" y="17" on="0"/>
        <pt x="1358" y="-77" on="0"/>
        <pt x="1335" y="-92" on="0"/>
        <pt x="1290" y="-92" on="0"/>
        <pt x="1274" y="-70" on="1"/>
        <pt x="1083" y="208" on="0"/>
        <pt x="952" y="575" on="1"/>
        <pt x="827" y="212" on="0"/>
        <pt x="682" y="-47" on="1"/>
        <pt x="668" y="-76" on="0"/>
        <pt x="608" y="-76" on="0"/>
        <pt x="592" y="-49" on="1"/>
        <pt x="312" y="406" on="0"/>
        <pt x="186" y="1022" on="1"/>
        <pt x="154" y="1181" on="0"/>
        <pt x="137" y="1329" on="1"/>
        <pt x="87" y="1333" on="0"/>
        <pt x="54" y="1336" on="1"/>
        <pt x="-6" y="1343" on="0"/>
        <pt x="-6" y="1391" on="1"/>
        <pt x="-3" y="1415" on="0"/>
        <pt x="27" y="1442" on="0"/>
        <pt x="47" y="1442" on="1"/>
        <pt x="51" y="1442" on="1"/>
        <pt x="165" y="1430" on="0"/>
        <pt x="482" y="1430" on="0"/>
        <pt x="662" y="1460" on="1"/>
        <pt x="670" y="1460" on="1"/>
        <pt x="693" y="1460" on="0"/>
        <pt x="723" y="1429" on="0"/>
        <pt x="723" y="1409" on="1"/>
        <pt x="723" y="1389" on="0"/>
        <pt x="698" y="1359" on="0"/>
        <pt x="666" y="1354" on="1"/>
        <pt x="559" y="1340" on="0"/>
        <pt x="494" y="1333" on="1"/>
        <pt x="537" y="932" on="0"/>
        <pt x="678" y="554" on="1"/>
        <pt x="714" y="455" on="0"/>
        <pt x="760" y="360" on="1"/>
        <pt x="978" y="875" on="0"/>
        <pt x="1006" y="1282" on="1"/>
        <pt x="1008" y="1302" on="0"/>
        <pt x="1035" y="1329" on="0"/>
        <pt x="1055" y="1330" on="1"/>
        <pt x="1098" y="1332" on="0"/>
        <pt x="1110" y="1288" on="1"/>
        <pt x="1192" y="836" on="0"/>
        <pt x="1436" y="332" on="1"/>
        <pt x="1560" y="650" on="0"/>
        <pt x="1651" y="1329" on="1"/>
        <pt x="1557" y="1333" on="0"/>
        <pt x="1470" y="1348" on="1"/>
        <pt x="1452" y="1351" on="0"/>
        <pt x="1427" y="1380" on="0"/>
        <pt x="1427" y="1425" on="0"/>
        <pt x="1462" y="1452" on="0"/>
        <pt x="1479" y="1452" on="1"/>
      </contour>
    </TTGlyph>
    <TTGlyph name="Wacute" xMin="-6" yMin="-92" xMax="1993" yMax="1974">
      <component glyphName="W" x="0" y="0" flags="0x1204"/>
      <component glyphName="acute" x="1030" y="252" flags="0x1004"/>
    </TTGlyph>
    <TTGlyph name="Wcircumflex" xMin="-6" yMin="-92" xMax="1993" yMax="2060">
      <component glyphName="W" x="0" y="0" flags="0x1204"/>
      <component glyphName="circumflex" x="676" y="340" flags="0x1004"/>
    </TTGlyph>
    <TTGlyph name="Wdieresis" xMin="-6" yMin="-92" xMax="1993" yMax="1763">
      <component glyphName="W" x="0" y="0" flags="0x1204"/>
      <component glyphName="dieresis" x="709" y="178" flags="0x1004"/>
    </TTGlyph>
    <TTGlyph name="Wgrave" xMin="-6" yMin="-92" xMax="1993" yMax="1982">
      <component glyphName="W" x="0" y="0" flags="0x1204"/>
      <component glyphName="grave" x="455" y="260" flags="0x1004"/>
    </TTGlyph>
    <TTGlyph name="X" xMin="-18" yMin="-35" xMax="1589" yMax="1462">
      <contour>
        <pt x="1245" y="111" on="1"/>
        <pt x="956" y="448" on="0"/>
        <pt x="639" y="1042" on="1"/>
        <pt x="551" y="1207" on="0"/>
        <pt x="498" y="1327" on="1"/>
        <pt x="424" y="1321" on="0"/>
        <pt x="354" y="1321" on="1"/>
        <pt x="537" y="917" on="0"/>
        <pt x="778" y="530" on="1"/>
        <pt x="937" y="272" on="0"/>
        <pt x="1085" y="102" on="1"/>
        <pt x="1126" y="105" on="0"/>
        <pt x="1205" y="111" on="0"/>
      </contour>
      <contour>
        <pt x="272" y="0" on="1"/>
        <pt x="115" y="0" on="0"/>
        <pt x="35" y="-20" on="1"/>
        <pt x="12" y="-20" on="0"/>
        <pt x="-18" y="11" on="0"/>
        <pt x="-18" y="51" on="0"/>
        <pt x="7" y="81" on="0"/>
        <pt x="42" y="87" on="1"/>
        <pt x="114" y="100" on="0"/>
        <pt x="227" y="104" on="1"/>
        <pt x="245" y="122" on="0"/>
        <pt x="327" y="202" on="0"/>
        <pt x="383" y="260" on="1"/>
        <pt x="522" y="405" on="0"/>
        <pt x="647" y="553" on="1"/>
        <pt x="376" y="1017" on="0"/>
        <pt x="238" y="1323" on="1"/>
        <pt x="206" y="1325" on="0"/>
        <pt x="141" y="1328" on="0"/>
        <pt x="87" y="1333" on="0"/>
        <pt x="59" y="1362" on="0"/>
        <pt x="59" y="1405" on="0"/>
        <pt x="93" y="1436" on="0"/>
        <pt x="113" y="1436" on="1"/>
        <pt x="117" y="1436" on="1"/>
        <pt x="231" y="1425" on="0"/>
        <pt x="528" y="1425" on="0"/>
        <pt x="752" y="1462" on="1"/>
        <pt x="760" y="1462" on="1"/>
        <pt x="783" y="1462" on="0"/>
        <pt x="813" y="1431" on="0"/>
        <pt x="813" y="1411" on="1"/>
        <pt x="813" y="1391" on="0"/>
        <pt x="789" y="1361" on="0"/>
        <pt x="728" y="1352" on="0"/>
        <pt x="649" y="1340" on="0"/>
        <pt x="608" y="1335" on="1"/>
        <pt x="750" y="1035" on="0"/>
        <pt x="883" y="801" on="1"/>
        <pt x="1089" y="1082" on="0"/>
        <pt x="1219" y="1335" on="1"/>
        <pt x="1140" y="1340" on="0"/>
        <pt x="1034" y="1363" on="0"/>
        <pt x="1012" y="1392" on="0"/>
        <pt x="1012" y="1436" on="0"/>
        <pt x="1047" y="1462" on="0"/>
        <pt x="1063" y="1462" on="1"/>
        <pt x="1075" y="1462" on="1"/>
        <pt x="1180" y="1438" on="0"/>
        <pt x="1405" y="1438" on="0"/>
        <pt x="1528" y="1462" on="1"/>
        <pt x="1538" y="1462" on="1"/>
        <pt x="1561" y="1462" on="0"/>
        <pt x="1589" y="1431" on="0"/>
        <pt x="1589" y="1412" on="1"/>
        <pt x="1589" y="1369" on="0"/>
        <pt x="1548" y="1358" on="1"/>
        <pt x="1428" y="1338" on="0"/>
        <pt x="1333" y="1333" on="1"/>
        <pt x="1187" y="1028" on="0"/>
        <pt x="938" y="700" on="1"/>
        <pt x="1117" y="396" on="0"/>
        <pt x="1386" y="111" on="1"/>
        <pt x="1501" y="105" on="0"/>
        <pt x="1532" y="102" on="1"/>
        <pt x="1589" y="95" on="0"/>
        <pt x="1589" y="49" on="1"/>
        <pt x="1589" y="26" on="0"/>
        <pt x="1558" y="-4" on="0"/>
        <pt x="1538" y="-4" on="1"/>
        <pt x="1532" y="-4" on="1"/>
        <pt x="1437" y="6" on="0"/>
        <pt x="1061" y="6" on="0"/>
        <pt x="852" y="-35" on="1"/>
        <pt x="844" y="-35" on="1"/>
        <pt x="822" y="-35" on="0"/>
        <pt x="791" y="-4" on="0"/>
        <pt x="791" y="16" on="1"/>
        <pt x="791" y="59" on="0"/>
        <pt x="834" y="68" on="1"/>
        <pt x="910" y="83" on="0"/>
        <pt x="961" y="88" on="1"/>
        <pt x="845" y="231" on="0"/>
        <pt x="705" y="457" on="1"/>
        <pt x="544" y="272" on="0"/>
        <pt x="375" y="100" on="1"/>
        <pt x="532" y="91" on="0"/>
        <pt x="552" y="66" on="1"/>
        <pt x="565" y="51" on="0"/>
        <pt x="565" y="11" on="0"/>
        <pt x="531" y="-20" on="0"/>
        <pt x="512" y="-20" on="1"/>
        <pt x="432" y="0" on="0"/>
      </contour>
    </TTGlyph>
    <TTGlyph name="Y" xMin="-78" yMin="-51" xMax="1579" yMax="1442">
      <contour>
        <pt x="770" y="90" on="1"/>
        <pt x="838" y="94" on="0"/>
        <pt x="905" y="94" on="1"/>
        <pt x="905" y="614" on="1"/>
        <pt x="652" y="846" on="0"/>
        <pt x="401" y="1313" on="1"/>
        <pt x="383" y="1311" on="0"/>
        <pt x="364" y="1311" on="1"/>
        <pt x="322" y="1311" on="0"/>
        <pt x="259" y="1311" on="0"/>
        <pt x="238" y="1313" on="1"/>
        <pt x="430" y="939" on="0"/>
        <pt x="640" y="692" on="1"/>
        <pt x="695" y="628" on="0"/>
        <pt x="754" y="575" on="1"/>
        <pt x="770" y="559" on="0"/>
        <pt x="770" y="537" on="1"/>
      </contour>
      <contour>
        <pt x="1288" y="1423" on="1"/>
        <pt x="1398" y="1423" on="0"/>
        <pt x="1518" y="1442" on="1"/>
        <pt x="1526" y="1442" on="1"/>
        <pt x="1547" y="1442" on="0"/>
        <pt x="1579" y="1409" on="0"/>
        <pt x="1579" y="1370" on="0"/>
        <pt x="1553" y="1340" on="0"/>
        <pt x="1534" y="1337" on="1"/>
        <pt x="1435" y="1322" on="0"/>
        <pt x="1337" y="1319" on="1"/>
        <pt x="1261" y="1047" on="0"/>
        <pt x="1146" y="830" on="1"/>
        <pt x="1079" y="703" on="0"/>
        <pt x="1010" y="618" on="1"/>
        <pt x="1010" y="92" on="1"/>
        <pt x="1096" y="89" on="0"/>
        <pt x="1184" y="80" on="1"/>
        <pt x="1204" y="77" on="0"/>
        <pt x="1231" y="47" on="0"/>
        <pt x="1231" y="2" on="0"/>
        <pt x="1195" y="-25" on="0"/>
        <pt x="1178" y="-25" on="1"/>
        <pt x="1171" y="-25" on="1"/>
        <pt x="1057" y="-10" on="0"/>
        <pt x="721" y="-10" on="0"/>
        <pt x="516" y="-51" on="1"/>
        <pt x="506" y="-51" on="1"/>
        <pt x="484" y="-51" on="0"/>
        <pt x="453" y="-20" on="0"/>
        <pt x="453" y="0" on="1"/>
        <pt x="453" y="42" on="0"/>
        <pt x="496" y="53" on="1"/>
        <pt x="596" y="72" on="0"/>
        <pt x="666" y="80" on="1"/>
        <pt x="666" y="514" on="1"/>
        <pt x="387" y="777" on="0"/>
        <pt x="115" y="1321" on="1"/>
        <pt x="16" y="1329" on="0"/>
        <pt x="-18" y="1334" on="1"/>
        <pt x="-78" y="1344" on="0"/>
        <pt x="-78" y="1389" on="1"/>
        <pt x="-78" y="1415" on="0"/>
        <pt x="-42" y="1442" on="0"/>
        <pt x="-25" y="1442" on="1"/>
        <pt x="-18" y="1442" on="1"/>
        <pt x="152" y="1415" on="0"/>
        <pt x="326" y="1415" on="1"/>
        <pt x="500" y="1415" on="0"/>
        <pt x="662" y="1442" on="1"/>
        <pt x="668" y="1442" on="1"/>
        <pt x="691" y="1442" on="0"/>
        <pt x="721" y="1410" on="0"/>
        <pt x="721" y="1370" on="0"/>
        <pt x="696" y="1340" on="0"/>
        <pt x="667" y="1336" on="1"/>
        <pt x="601" y="1325" on="0"/>
        <pt x="518" y="1319" on="1"/>
        <pt x="648" y="1078" on="0"/>
        <pt x="811" y="872" on="1"/>
        <pt x="878" y="787" on="0"/>
        <pt x="952" y="715" on="1"/>
        <pt x="1051" y="846" on="0"/>
        <pt x="1152" y="1096" on="1"/>
        <pt x="1192" y="1196" on="0"/>
        <pt x="1229" y="1321" on="1"/>
        <pt x="1103" y="1326" on="0"/>
        <pt x="1062" y="1333" on="1"/>
        <pt x="995" y="1344" on="0"/>
        <pt x="995" y="1389" on="1"/>
        <pt x="995" y="1413" on="0"/>
        <pt x="1030" y="1442" on="0"/>
        <pt x="1047" y="1442" on="1"/>
        <pt x="1055" y="1442" on="1"/>
        <pt x="1180" y="1423" on="0"/>
      </contour>
    </TTGlyph>
    <TTGlyph name="Yacute" xMin="-78" yMin="-51" xMax="1579" yMax="1937">
      <component glyphName="Y" x="0" y="0" flags="0x1204"/>
      <component glyphName="acute" x="780" y="215" flags="0x1004"/>
    </TTGlyph>
    <TTGlyph name="Ycircumflex" xMin="-78" yMin="-51" xMax="1579" yMax="2060">
      <component glyphName="Y" x="0" y="0" flags="0x1204"/>
      <component glyphName="circumflex" x="483" y="340" flags="0x1004"/>
    </TTGlyph>
    <TTGlyph name="Ydieresis" xMin="-78" yMin="-51" xMax="1579" yMax="1816">
      <component glyphName="Y" x="0" y="0" flags="0x1204"/>
      <component glyphName="dieresis" x="469" y="231" flags="0x1004"/>
    </TTGlyph>
    <TTGlyph name="Ygrave" xMin="-78" yMin="-51" xMax="1579" yMax="2003">
      <component glyphName="Y" x="0" y="0" flags="0x1204"/>
      <component glyphName="grave" x="285" y="281" flags="0x1004"/>
    </TTGlyph>
    <TTGlyph name="Z" xMin="68" yMin="-25" xMax="1276" yMax="1456">
      <contour>
        <pt x="397" y="98" on="1"/>
        <pt x="1110" y="1346" on="1"/>
        <pt x="1070" y="1344" on="0"/>
        <pt x="991" y="1341" on="0"/>
        <pt x="950" y="1339" on="1"/>
        <pt x="217" y="88" on="1"/>
        <pt x="307" y="94" on="0"/>
      </contour>
      <contour>
        <pt x="520" y="104" on="1"/>
        <pt x="612" y="109" on="0"/>
        <pt x="946" y="109" on="0"/>
        <pt x="1135" y="102" on="1"/>
        <pt x="1139" y="327" on="0"/>
        <pt x="1171" y="492" on="1"/>
        <pt x="1175" y="510" on="0"/>
        <pt x="1204" y="535" on="0"/>
        <pt x="1244" y="535" on="0"/>
        <pt x="1276" y="501" on="0"/>
        <pt x="1276" y="475" on="0"/>
        <pt x="1266" y="426" on="1"/>
        <pt x="1239" y="284" on="0"/>
        <pt x="1239" y="74" on="1"/>
        <pt x="1239" y="49" on="1"/>
        <pt x="1239" y="27" on="0"/>
        <pt x="1208" y="-4" on="0"/>
        <pt x="1188" y="-4" on="1"/>
        <pt x="1184" y="-4" on="1"/>
        <pt x="700" y="22" on="0"/>
        <pt x="125" y="-25" on="1"/>
        <pt x="121" y="-25" on="1"/>
        <pt x="99" y="-25" on="0"/>
        <pt x="68" y="7" on="0"/>
        <pt x="68" y="21" on="1"/>
        <pt x="68" y="37" on="0"/>
        <pt x="76" y="53" on="1"/>
        <pt x="825" y="1335" on="1"/>
        <pt x="700" y="1335" on="1"/>
        <pt x="470" y="1335" on="0"/>
        <pt x="279" y="1348" on="1"/>
        <pt x="261" y="1195" on="0"/>
        <pt x="211" y="1010" on="1"/>
        <pt x="198" y="973" on="0"/>
        <pt x="137" y="973" on="0"/>
        <pt x="106" y="1005" on="0"/>
        <pt x="106" y="1024" on="1"/>
        <pt x="109" y="1040" on="1"/>
        <pt x="161" y="1217" on="0"/>
        <pt x="178" y="1409" on="1"/>
        <pt x="181" y="1429" on="0"/>
        <pt x="211" y="1456" on="0"/>
        <pt x="231" y="1456" on="1"/>
        <pt x="236" y="1456" on="1"/>
        <pt x="464" y="1440" on="0"/>
        <pt x="940" y="1440" on="0"/>
        <pt x="1202" y="1456" on="1"/>
        <pt x="1204" y="1456" on="1"/>
        <pt x="1227" y="1454" on="0"/>
        <pt x="1257" y="1425" on="0"/>
        <pt x="1257" y="1411" on="1"/>
        <pt x="1257" y="1386" on="0"/>
        <pt x="1249" y="1376" on="1"/>
      </contour>
    </TTGlyph>
    <TTGlyph name="Zacute" xMin="68" yMin="-25" xMax="1294" yMax="2111">
      <component glyphName="Z" x="0" y="0" flags="0x1204"/>
      <component glyphName="acute" x="659" y="389" flags="0x1004"/>
    </TTGlyph>
    <TTGlyph name="Zcaron" xMin="68" yMin="-25" xMax="1276" yMax="2050">
      <component glyphName="Z" x="0" y="0" flags="0x1204"/>
      <component glyphName="caron" x="279" y="330" flags="0x1004"/>
    </TTGlyph>
    <TTGlyph name="Zdotaccent" xMin="68" yMin="-25" xMax="1276" yMax="1810">
      <component glyphName="Z" x="0" y="0" flags="0x1204"/>
      <component glyphName="dotaccent" x="553" y="225" flags="0x1004"/>
    </TTGlyph>
    <TTGlyph name="a" xMin="90" yMin="-63" xMax="1290" yMax="1022">
      <contour>
        <pt x="760" y="350" on="1"/>
        <pt x="756" y="384" on="0"/>
        <pt x="756" y="422" on="1"/>
        <pt x="719" y="422" on="1"/>
        <pt x="555" y="422" on="0"/>
        <pt x="397" y="362" on="1"/>
        <pt x="195" y="286" on="0"/>
        <pt x="195" y="145" on="1"/>
        <pt x="195" y="93" on="0"/>
        <pt x="242" y="64" on="1"/>
        <pt x="281" y="41" on="0"/>
        <pt x="407" y="41" on="0"/>
        <pt x="534" y="96" on="0"/>
        <pt x="588" y="140" on="1"/>
        <pt x="684" y="220" on="0"/>
      </contour>
      <contour>
        <pt x="1001" y="102" on="1"/>
        <pt x="1004" y="132" on="0"/>
        <pt x="1004" y="312" on="0"/>
        <pt x="997" y="475" on="0"/>
        <pt x="973" y="627" on="0"/>
        <pt x="925" y="761" on="0"/>
        <pt x="884" y="810" on="1"/>
        <pt x="793" y="918" on="0"/>
        <pt x="631" y="918" on="1"/>
        <pt x="628" y="918" on="0"/>
        <pt x="624" y="915" on="0"/>
        <pt x="621" y="915" on="1"/>
        <pt x="625" y="915" on="1"/>
        <pt x="786" y="828" on="0"/>
        <pt x="834" y="626" on="1"/>
        <pt x="861" y="515" on="0"/>
        <pt x="866" y="316" on="0"/>
        <pt x="866" y="259" on="1"/>
        <pt x="866" y="169" on="0"/>
        <pt x="858" y="78" on="1"/>
        <pt x="930" y="93" on="0"/>
      </contour>
      <contour>
        <pt x="1169" y="113" on="1"/>
        <pt x="1241" y="111" on="1"/>
        <pt x="1263" y="109" on="0"/>
        <pt x="1290" y="79" on="0"/>
        <pt x="1290" y="36" on="0"/>
        <pt x="1261" y="4" on="0"/>
        <pt x="1239" y="4" on="1"/>
        <pt x="1235" y="4" on="1"/>
        <pt x="1218" y="6" on="0"/>
        <pt x="1200" y="6" on="1"/>
        <pt x="1165" y="6" on="1"/>
        <pt x="982" y="6" on="0"/>
        <pt x="811" y="-43" on="1"/>
        <pt x="797" y="-45" on="1"/>
        <pt x="774" y="-45" on="0"/>
        <pt x="745" y="-10" on="0"/>
        <pt x="745" y="8" on="1"/>
        <pt x="745" y="16" on="1"/>
        <pt x="745" y="18" on="0"/>
        <pt x="755" y="95" on="0"/>
        <pt x="760" y="164" on="1"/>
        <pt x="557" y="-63" on="0"/>
        <pt x="338" y="-63" on="1"/>
        <pt x="237" y="-63" on="0"/>
        <pt x="166" y="-7" on="1"/>
        <pt x="90" y="52" on="0"/>
        <pt x="90" y="220" on="0"/>
        <pt x="155" y="334" on="0"/>
        <pt x="261" y="419" on="0"/>
        <pt x="396" y="476" on="0"/>
        <pt x="466" y="494" on="1"/>
        <pt x="596" y="526" on="0"/>
        <pt x="719" y="526" on="1"/>
        <pt x="743" y="526" on="1"/>
        <pt x="743" y="653" on="0"/>
        <pt x="662" y="748" on="1"/>
        <pt x="576" y="848" on="0"/>
        <pt x="453" y="848" on="1"/>
        <pt x="361" y="848" on="0"/>
        <pt x="281" y="754" on="1"/>
        <pt x="203" y="663" on="0"/>
        <pt x="203" y="563" on="1"/>
        <pt x="203" y="543" on="0"/>
        <pt x="170" y="516" on="0"/>
        <pt x="128" y="516" on="0"/>
        <pt x="96" y="549" on="0"/>
        <pt x="96" y="617" on="0"/>
        <pt x="130" y="722" on="0"/>
        <pt x="195" y="823" on="0"/>
        <pt x="288" y="913" on="0"/>
        <pt x="348" y="948" on="1"/>
        <pt x="476" y="1022" on="0"/>
        <pt x="741" y="1022" on="0"/>
        <pt x="900" y="952" on="0"/>
        <pt x="1007" y="832" on="0"/>
        <pt x="1069" y="674" on="0"/>
        <pt x="1085" y="586" on="1"/>
        <pt x="1110" y="448" on="0"/>
        <pt x="1110" y="233" on="1"/>
        <pt x="1108" y="111" on="1"/>
      </contour>
    </TTGlyph>
    <TTGlyph name="aacute" xMin="90" yMin="-63" xMax="1290" yMax="1625">
      <component glyphName="a" x="0" y="0" flags="0x1204"/>
      <component glyphName="acute" x="373" y="-97" flags="0x1004"/>
    </TTGlyph>
    <TTGlyph name="abreve" xMin="90" yMin="-63" xMax="1290" yMax="1558">
      <component glyphName="a" x="0" y="0" flags="0x1204"/>
      <component glyphName="breve" x="285" y="-89" flags="0x1004"/>
    </TTGlyph>
    <TTGlyph name="acircumflex" xMin="90" yMin="-63" xMax="1290" yMax="1637">
      <component glyphName="a" x="0" y="0" flags="0x1204"/>
      <component glyphName="circumflex" x="213" y="-83" flags="0x1004"/>
    </TTGlyph>
    <TTGlyph name="acute" xMin="0" yMin="1145" xMax="635" yMax="1722">
      <contour>
        <pt x="444" y="1618" on="1"/>
        <pt x="338" y="1618" on="1"/>
        <pt x="240" y="1434" on="1"/>
      </contour>
      <contour>
        <pt x="605" y="1722" on="0"/>
        <pt x="635" y="1691" on="0"/>
        <pt x="635" y="1645" on="0"/>
        <pt x="616" y="1630" on="1"/>
        <pt x="88" y="1157" on="1"/>
        <pt x="73" y="1145" on="0"/>
        <pt x="30" y="1145" on="0"/>
        <pt x="0" y="1176" on="0"/>
        <pt x="0" y="1210" on="0"/>
        <pt x="6" y="1221" on="1"/>
        <pt x="260" y="1696" on="1"/>
        <pt x="276" y="1722" on="0"/>
        <pt x="307" y="1722" on="1"/>
        <pt x="582" y="1722" on="1"/>
      </contour>
    </TTGlyph>
    <TTGlyph name="adieresis" xMin="90" yMin="-63" xMax="1290" yMax="1387">
      <component glyphName="a" x="0" y="0" flags="0x1204"/>
      <component glyphName="dieresis" x="184" y="-198" flags="0x1004"/>
    </TTGlyph>
    <TTGlyph name="ae" xMin="90" yMin="-63" xMax="1714" yMax="1030">
      <contour>
        <pt x="1071" y="502" on="1"/>
        <pt x="1183" y="467" on="0"/>
        <pt x="1473" y="467" on="0"/>
        <pt x="1610" y="528" on="1"/>
        <pt x="1610" y="545" on="1"/>
        <pt x="1610" y="787" on="0"/>
        <pt x="1455" y="879" on="1"/>
        <pt x="1401" y="911" on="0"/>
        <pt x="1325" y="922" on="1"/>
        <pt x="1146" y="902" on="0"/>
        <pt x="1092" y="674" on="1"/>
        <pt x="1076" y="606" on="0"/>
      </contour>
      <contour>
        <pt x="743" y="319" on="1"/>
        <pt x="732" y="379" on="0"/>
        <pt x="719" y="422" on="1"/>
        <pt x="555" y="422" on="0"/>
        <pt x="397" y="362" on="1"/>
        <pt x="195" y="286" on="0"/>
        <pt x="195" y="145" on="1"/>
        <pt x="195" y="93" on="0"/>
        <pt x="242" y="64" on="1"/>
        <pt x="281" y="41" on="0"/>
        <pt x="407" y="41" on="0"/>
        <pt x="529" y="87" on="0"/>
        <pt x="580" y="125" on="1"/>
        <pt x="670" y="193" on="0"/>
      </contour>
      <contour>
        <pt x="1073" y="391" on="1"/>
        <pt x="1091" y="167" on="0"/>
        <pt x="1225" y="84" on="1"/>
        <pt x="1273" y="55" on="0"/>
        <pt x="1366" y="55" on="0"/>
        <pt x="1430" y="68" on="0"/>
        <pt x="1461" y="80" on="1"/>
        <pt x="1531" y="109" on="0"/>
        <pt x="1559" y="150" on="1"/>
        <pt x="1576" y="170" on="0"/>
        <pt x="1621" y="170" on="0"/>
        <pt x="1653" y="137" on="0"/>
        <pt x="1653" y="96" on="0"/>
        <pt x="1640" y="84" on="1"/>
        <pt x="1597" y="17" on="0"/>
        <pt x="1480" y="-22" on="1"/>
        <pt x="1233" y="-103" on="0"/>
        <pt x="995" y="25" on="1"/>
        <pt x="856" y="100" on="0"/>
        <pt x="784" y="211" on="1"/>
        <pt x="712" y="92" on="0"/>
        <pt x="591" y="16" on="1"/>
        <pt x="465" y="-63" on="0"/>
        <pt x="338" y="-63" on="1"/>
        <pt x="237" y="-63" on="0"/>
        <pt x="166" y="-7" on="1"/>
        <pt x="90" y="52" on="0"/>
        <pt x="90" y="220" on="0"/>
        <pt x="155" y="334" on="0"/>
        <pt x="261" y="419" on="0"/>
        <pt x="396" y="476" on="0"/>
        <pt x="466" y="494" on="1"/>
        <pt x="596" y="526" on="0"/>
        <pt x="719" y="526" on="1"/>
        <pt x="721" y="526" on="1"/>
        <pt x="719" y="658" on="0"/>
        <pt x="647" y="750" on="1"/>
        <pt x="571" y="848" on="0"/>
        <pt x="453" y="848" on="1"/>
        <pt x="361" y="848" on="0"/>
        <pt x="281" y="754" on="1"/>
        <pt x="203" y="663" on="0"/>
        <pt x="203" y="563" on="1"/>
        <pt x="203" y="543" on="0"/>
        <pt x="170" y="516" on="0"/>
        <pt x="128" y="516" on="0"/>
        <pt x="96" y="549" on="0"/>
        <pt x="96" y="617" on="0"/>
        <pt x="130" y="722" on="0"/>
        <pt x="195" y="823" on="0"/>
        <pt x="288" y="913" on="0"/>
        <pt x="348" y="948" on="1"/>
        <pt x="476" y="1022" on="0"/>
        <pt x="629" y="1022" on="1"/>
        <pt x="816" y="1022" on="0"/>
        <pt x="897" y="901" on="1"/>
        <pt x="1041" y="1030" on="0"/>
        <pt x="1262" y="1030" on="1"/>
        <pt x="1714" y="1011" on="0"/>
        <pt x="1714" y="547" on="1"/>
        <pt x="1712" y="489" on="1"/>
        <pt x="1702" y="406" on="0"/>
        <pt x="1448" y="371" on="1"/>
        <pt x="1367" y="360" on="0"/>
        <pt x="1186" y="360" on="0"/>
      </contour>
      <contour>
        <pt x="1087" y="895" on="1"/>
        <pt x="959" y="847" on="0"/>
        <pt x="893" y="748" on="1"/>
        <pt x="848" y="824" on="0"/>
        <pt x="806" y="856" on="1"/>
        <pt x="726" y="918" on="0"/>
        <pt x="631" y="918" on="1"/>
        <pt x="629" y="918" on="0"/>
        <pt x="627" y="915" on="0"/>
        <pt x="625" y="915" on="1"/>
        <pt x="785" y="824" on="0"/>
        <pt x="816" y="628" on="1"/>
        <pt x="825" y="566" on="0"/>
        <pt x="825" y="433" on="0"/>
        <pt x="856" y="317" on="0"/>
        <pt x="886" y="267" on="1"/>
        <pt x="948" y="162" on="0"/>
        <pt x="1051" y="109" on="1"/>
        <pt x="965" y="237" on="0"/>
        <pt x="965" y="459" on="1"/>
        <pt x="965" y="616" on="0"/>
        <pt x="988" y="693" on="1"/>
        <pt x="1024" y="813" on="0"/>
      </contour>
    </TTGlyph>
    <TTGlyph name="aeacute" xMin="90" yMin="-63" xMax="1714" yMax="1590">
      <component glyphName="ae" x="0" y="0" flags="0x1204"/>
      <component glyphName="acute" x="870" y="-132" flags="0x1004"/>
    </TTGlyph>
    <TTGlyph name="agrave" xMin="6" yMin="-63" xMax="1290" yMax="1651">
      <component glyphName="a" x="0" y="0" flags="0x1204"/>
      <component glyphName="grave" x="6" y="-71" flags="0x1004"/>
    </TTGlyph>
    <TTGlyph name="amacron" xMin="90" yMin="-63" xMax="1290" yMax="1387">
      <component glyphName="a" x="0" y="0" flags="0x1204"/>
      <component glyphName="macron" x="274" y="-194" flags="0x1004"/>
    </TTGlyph>
    <TTGlyph name="ampersand" xMin="92" yMin="-59" xMax="1956" yMax="1380">
      <contour>
        <pt x="494" y="68" on="1"/>
        <pt x="332" y="188" on="0"/>
        <pt x="332" y="426" on="1"/>
        <pt x="332" y="662" on="0"/>
        <pt x="473" y="788" on="1"/>
        <pt x="344" y="762" on="0"/>
        <pt x="270" y="666" on="1"/>
        <pt x="197" y="569" on="0"/>
        <pt x="197" y="278" on="0"/>
        <pt x="353" y="97" on="0"/>
      </contour>
      <contour>
        <pt x="1665" y="856" on="1"/>
        <pt x="1638" y="864" on="0"/>
        <pt x="1547" y="864" on="0"/>
        <pt x="1450" y="839" on="0"/>
        <pt x="1403" y="814" on="1"/>
        <pt x="1304" y="763" on="0"/>
        <pt x="1235" y="683" on="1"/>
        <pt x="1117" y="547" on="0"/>
        <pt x="985" y="492" on="1"/>
        <pt x="1008" y="492" on="1"/>
        <pt x="1161" y="492" on="0"/>
        <pt x="1334" y="634" on="1"/>
        <pt x="1380" y="673" on="0"/>
        <pt x="1461" y="747" on="0"/>
        <pt x="1537" y="812" on="0"/>
        <pt x="1571" y="828" on="1"/>
        <pt x="1625" y="852" on="0"/>
      </contour>
      <contour>
        <pt x="999" y="1114" on="1"/>
        <pt x="999" y="1145" on="0"/>
        <pt x="957" y="1188" on="0"/>
        <pt x="926" y="1188" on="1"/>
        <pt x="895" y="1188" on="0"/>
        <pt x="852" y="1145" on="0"/>
        <pt x="852" y="1114" on="1"/>
        <pt x="852" y="1083" on="0"/>
        <pt x="895" y="1040" on="0"/>
        <pt x="926" y="1040" on="1"/>
        <pt x="957" y="1040" on="0"/>
        <pt x="999" y="1083" on="0"/>
      </contour>
      <contour>
        <pt x="1700" y="424" on="0"/>
        <pt x="1712" y="450" on="0"/>
        <pt x="1712" y="496" on="0"/>
        <pt x="1669" y="539" on="0"/>
        <pt x="1638" y="539" on="1"/>
        <pt x="1607" y="539" on="0"/>
        <pt x="1565" y="496" on="0"/>
        <pt x="1565" y="436" on="0"/>
        <pt x="1607" y="391" on="0"/>
        <pt x="1653" y="391" on="0"/>
        <pt x="1680" y="403" on="0"/>
      </contour>
      <contour>
        <pt x="717" y="563" on="1"/>
        <pt x="729" y="561" on="1"/>
        <pt x="735" y="555" on="0"/>
        <pt x="816" y="555" on="0"/>
        <pt x="897" y="568" on="0"/>
        <pt x="944" y="588" on="1"/>
        <pt x="1055" y="637" on="0"/>
        <pt x="1147" y="743" on="1"/>
        <pt x="1290" y="907" on="0"/>
        <pt x="1476" y="956" on="1"/>
        <pt x="1536" y="971" on="0"/>
        <pt x="1676" y="971" on="0"/>
        <pt x="1810" y="906" on="0"/>
        <pt x="1858" y="853" on="1"/>
        <pt x="1956" y="743" on="0"/>
        <pt x="1956" y="588" on="1"/>
        <pt x="1956" y="452" on="0"/>
        <pt x="1866" y="368" on="1"/>
        <pt x="1779" y="287" on="0"/>
        <pt x="1647" y="287" on="1"/>
        <pt x="1569" y="287" on="0"/>
        <pt x="1514" y="339" on="1"/>
        <pt x="1458" y="391" on="0"/>
        <pt x="1458" y="465" on="1"/>
        <pt x="1458" y="539" on="0"/>
        <pt x="1512" y="592" on="1"/>
        <pt x="1564" y="645" on="0"/>
        <pt x="1638" y="645" on="1"/>
        <pt x="1712" y="645" on="0"/>
        <pt x="1764" y="593" on="1"/>
        <pt x="1815" y="542" on="0"/>
        <pt x="1817" y="467" on="1"/>
        <pt x="1851" y="518" on="0"/>
        <pt x="1851" y="588" on="1"/>
        <pt x="1841" y="699" on="0"/>
        <pt x="1756" y="740" on="1"/>
        <pt x="1728" y="754" on="0"/>
        <pt x="1664" y="754" on="0"/>
        <pt x="1611" y="733" on="0"/>
        <pt x="1586" y="716" on="1"/>
        <pt x="1562" y="698" on="0"/>
        <pt x="1468" y="610" on="0"/>
        <pt x="1402" y="552" on="0"/>
        <pt x="1364" y="522" on="1"/>
        <pt x="1275" y="453" on="0"/>
        <pt x="1202" y="422" on="1"/>
        <pt x="1208" y="384" on="0"/>
        <pt x="1208" y="348" on="1"/>
        <pt x="1208" y="169" on="0"/>
        <pt x="1060" y="51" on="1"/>
        <pt x="921" y="-59" on="0"/>
        <pt x="739" y="-59" on="1"/>
        <pt x="286" y="-59" on="0"/>
        <pt x="144" y="197" on="1"/>
        <pt x="92" y="291" on="0"/>
        <pt x="92" y="511" on="0"/>
        <pt x="133" y="652" on="0"/>
        <pt x="172" y="709" on="1"/>
        <pt x="250" y="826" on="0"/>
        <pt x="393" y="874" on="1"/>
        <pt x="276" y="953" on="0"/>
        <pt x="276" y="1087" on="1"/>
        <pt x="276" y="1233" on="0"/>
        <pt x="412" y="1312" on="1"/>
        <pt x="528" y="1380" on="0"/>
        <pt x="709" y="1380" on="1"/>
        <pt x="992" y="1380" on="0"/>
        <pt x="1078" y="1218" on="1"/>
        <pt x="1104" y="1167" on="0"/>
        <pt x="1104" y="1077" on="0"/>
        <pt x="1076" y="1012" on="0"/>
        <pt x="1052" y="988" on="1"/>
        <pt x="1000" y="936" on="0"/>
        <pt x="926" y="936" on="1"/>
        <pt x="852" y="936" on="0"/>
        <pt x="748" y="1040" on="0"/>
        <pt x="748" y="1211" on="0"/>
        <pt x="825" y="1262" on="1"/>
        <pt x="777" y="1274" on="0"/>
        <pt x="650" y="1274" on="0"/>
        <pt x="533" y="1256" on="0"/>
        <pt x="486" y="1234" on="1"/>
        <pt x="383" y="1185" on="0"/>
        <pt x="383" y="1085" on="1"/>
        <pt x="383" y="1015" on="0"/>
        <pt x="443" y="968" on="1"/>
        <pt x="532" y="899" on="0"/>
        <pt x="709" y="899" on="1"/>
        <pt x="713" y="899" on="1"/>
        <pt x="733" y="899" on="0"/>
        <pt x="762" y="870" on="0"/>
        <pt x="764" y="848" on="1"/>
        <pt x="764" y="846" on="1"/>
        <pt x="764" y="826" on="0"/>
        <pt x="737" y="796" on="0"/>
        <pt x="714" y="793" on="0"/>
        <pt x="670" y="785" on="0"/>
        <pt x="608" y="760" on="0"/>
        <pt x="536" y="711" on="0"/>
        <pt x="506" y="670" on="1"/>
        <pt x="436" y="576" on="0"/>
        <pt x="436" y="426" on="1"/>
        <pt x="436" y="259" on="0"/>
        <pt x="544" y="164" on="1"/>
        <pt x="646" y="76" on="0"/>
        <pt x="809" y="76" on="1"/>
        <pt x="933" y="76" on="0"/>
        <pt x="1016" y="148" on="1"/>
        <pt x="1104" y="222" on="0"/>
        <pt x="1104" y="348" on="1"/>
        <pt x="1104" y="369" on="0"/>
        <pt x="1100" y="393" on="1"/>
        <pt x="1063" y="385" on="0"/>
        <pt x="944" y="385" on="0"/>
        <pt x="831" y="408" on="0"/>
        <pt x="788" y="422" on="1"/>
        <pt x="719" y="446" on="0"/>
        <pt x="698" y="458" on="1"/>
        <pt x="664" y="480" on="0"/>
        <pt x="664" y="535" on="0"/>
        <pt x="698" y="563" on="0"/>
      </contour>
    </TTGlyph>
    <TTGlyph name="aogonek" xMin="90" yMin="-586" xMax="1290" yMax="1022">
      <contour>
        <pt x="1270" y="-303" on="1"/>
        <pt x="1262" y="-361" on="0"/>
        <pt x="1188" y="-474" on="0"/>
        <pt x="1146" y="-510" on="1"/>
        <pt x="1056" y="-586" on="0"/>
        <pt x="948" y="-586" on="1"/>
        <pt x="837" y="-586" on="0"/>
        <pt x="756" y="-496" on="1"/>
        <pt x="676" y="-407" on="0"/>
        <pt x="676" y="-168" on="0"/>
        <pt x="799" y="-45" on="1"/>
        <pt x="797" y="-45" on="1"/>
        <pt x="774" y="-45" on="0"/>
        <pt x="745" y="-10" on="0"/>
        <pt x="745" y="8" on="1"/>
        <pt x="745" y="16" on="1"/>
        <pt x="745" y="18" on="0"/>
        <pt x="755" y="95" on="0"/>
        <pt x="760" y="164" on="1"/>
        <pt x="557" y="-63" on="0"/>
        <pt x="338" y="-63" on="1"/>
        <pt x="237" y="-63" on="0"/>
        <pt x="166" y="-7" on="1"/>
        <pt x="90" y="52" on="0"/>
        <pt x="90" y="220" on="0"/>
        <pt x="155" y="334" on="0"/>
        <pt x="261" y="419" on="0"/>
        <pt x="396" y="476" on="0"/>
        <pt x="466" y="494" on="1"/>
        <pt x="596" y="526" on="0"/>
        <pt x="719" y="526" on="1"/>
        <pt x="743" y="526" on="1"/>
        <pt x="743" y="653" on="0"/>
        <pt x="662" y="748" on="1"/>
        <pt x="576" y="848" on="0"/>
        <pt x="453" y="848" on="1"/>
        <pt x="361" y="848" on="0"/>
        <pt x="281" y="754" on="1"/>
        <pt x="203" y="663" on="0"/>
        <pt x="203" y="563" on="1"/>
        <pt x="203" y="543" on="0"/>
        <pt x="170" y="516" on="0"/>
        <pt x="128" y="516" on="0"/>
        <pt x="96" y="549" on="0"/>
        <pt x="96" y="617" on="0"/>
        <pt x="130" y="722" on="0"/>
        <pt x="195" y="823" on="0"/>
        <pt x="288" y="913" on="0"/>
        <pt x="348" y="948" on="1"/>
        <pt x="476" y="1022" on="0"/>
        <pt x="741" y="1022" on="0"/>
        <pt x="900" y="952" on="0"/>
        <pt x="1007" y="832" on="0"/>
        <pt x="1069" y="674" on="0"/>
        <pt x="1085" y="586" on="1"/>
        <pt x="1110" y="448" on="0"/>
        <pt x="1110" y="233" on="1"/>
        <pt x="1108" y="111" on="1"/>
        <pt x="1169" y="113" on="1"/>
        <pt x="1241" y="111" on="1"/>
        <pt x="1263" y="109" on="0"/>
        <pt x="1290" y="79" on="0"/>
        <pt x="1290" y="36" on="0"/>
        <pt x="1261" y="4" on="0"/>
        <pt x="1239" y="4" on="1"/>
        <pt x="1235" y="4" on="1"/>
        <pt x="1218" y="6" on="0"/>
        <pt x="1200" y="6" on="1"/>
        <pt x="1165" y="6" on="1"/>
        <pt x="1047" y="6" on="0"/>
        <pt x="1047" y="-2" on="1"/>
        <pt x="930" y="-75" on="0"/>
        <pt x="930" y="-184" on="1"/>
        <pt x="930" y="-239" on="0"/>
        <pt x="954" y="-277" on="1"/>
        <pt x="999" y="-346" on="0"/>
        <pt x="1051" y="-346" on="1"/>
        <pt x="1102" y="-346" on="0"/>
        <pt x="1157" y="-291" on="1"/>
        <pt x="1170" y="-278" on="0"/>
        <pt x="1191" y="-252" on="0"/>
        <pt x="1240" y="-252" on="0"/>
        <pt x="1270" y="-286" on="0"/>
      </contour>
      <contour>
        <pt x="760" y="350" on="1"/>
        <pt x="756" y="384" on="0"/>
        <pt x="756" y="422" on="1"/>
        <pt x="719" y="422" on="1"/>
        <pt x="555" y="422" on="0"/>
        <pt x="397" y="362" on="1"/>
        <pt x="195" y="286" on="0"/>
        <pt x="195" y="145" on="1"/>
        <pt x="195" y="93" on="0"/>
        <pt x="242" y="64" on="1"/>
        <pt x="281" y="41" on="0"/>
        <pt x="407" y="41" on="0"/>
        <pt x="534" y="96" on="0"/>
        <pt x="588" y="140" on="1"/>
        <pt x="684" y="220" on="0"/>
      </contour>
      <contour>
        <pt x="1001" y="102" on="1"/>
        <pt x="1004" y="132" on="0"/>
        <pt x="1004" y="312" on="0"/>
        <pt x="997" y="475" on="0"/>
        <pt x="973" y="627" on="0"/>
        <pt x="925" y="761" on="0"/>
        <pt x="884" y="810" on="1"/>
        <pt x="793" y="918" on="0"/>
        <pt x="631" y="918" on="1"/>
        <pt x="628" y="918" on="0"/>
        <pt x="626" y="916" on="0"/>
        <pt x="625" y="915" on="1"/>
        <pt x="786" y="828" on="0"/>
        <pt x="834" y="626" on="1"/>
        <pt x="861" y="515" on="0"/>
        <pt x="866" y="316" on="0"/>
        <pt x="866" y="259" on="1"/>
        <pt x="866" y="169" on="0"/>
        <pt x="858" y="78" on="1"/>
        <pt x="930" y="93" on="0"/>
      </contour>
      <contour>
        <pt x="823" y="-178" on="1"/>
        <pt x="782" y="-242" on="0"/>
        <pt x="782" y="-336" on="0"/>
        <pt x="810" y="-400" on="0"/>
        <pt x="833" y="-426" on="1"/>
        <pt x="883" y="-481" on="0"/>
        <pt x="948" y="-481" on="1"/>
        <pt x="998" y="-481" on="0"/>
        <pt x="1047" y="-451" on="1"/>
        <pt x="951" y="-445" on="0"/>
        <pt x="884" y="-360" on="1"/>
        <pt x="823" y="-282" on="0"/>
        <pt x="823" y="-184" on="1"/>
      </contour>
    </TTGlyph>
    <TTGlyph name="approxequal" xMin="164" yMin="86" xMax="1169" yMax="1335">
      <contour>
        <pt x="1053" y="997" on="1"/>
        <pt x="997" y="954" on="0"/>
        <pt x="871" y="954" on="0"/>
        <pt x="801" y="995" on="0"/>
        <pt x="747" y="1056" on="0"/>
        <pt x="699" y="1127" on="0"/>
        <pt x="666" y="1158" on="1"/>
        <pt x="589" y="1229" on="0"/>
        <pt x="465" y="1229" on="1"/>
        <pt x="355" y="1229" on="0"/>
        <pt x="301" y="1126" on="1"/>
        <pt x="333" y="1143" on="0"/>
        <pt x="447" y="1143" on="0"/>
        <pt x="542" y="1096" on="0"/>
        <pt x="611" y="1026" on="0"/>
        <pt x="664" y="944" on="0"/>
        <pt x="694" y="909" on="1"/>
        <pt x="764" y="827" on="0"/>
        <pt x="858" y="827" on="1"/>
        <pt x="968" y="827" on="0"/>
        <pt x="1027" y="934" on="1"/>
        <pt x="1044" y="964" on="0"/>
      </contour>
      <contour>
        <pt x="926" y="1061" on="1"/>
        <pt x="1042" y="1061" on="0"/>
        <pt x="1042" y="1167" on="1"/>
        <pt x="1042" y="1208" on="0"/>
        <pt x="1008" y="1264" on="0"/>
        <pt x="1008" y="1303" on="0"/>
        <pt x="1039" y="1331" on="0"/>
        <pt x="1055" y="1331" on="1"/>
        <pt x="1087" y="1331" on="0"/>
        <pt x="1114" y="1296" on="0"/>
        <pt x="1137" y="1254" on="0"/>
        <pt x="1147" y="1226" on="1"/>
        <pt x="1169" y="1166" on="0"/>
        <pt x="1169" y="1020" on="0"/>
        <pt x="1125" y="887" on="0"/>
        <pt x="1084" y="835" on="1"/>
        <pt x="994" y="721" on="0"/>
        <pt x="856" y="721" on="1"/>
        <pt x="709" y="721" on="0"/>
        <pt x="602" y="880" on="1"/>
        <pt x="538" y="975" on="0"/>
        <pt x="472" y="1014" on="1"/>
        <pt x="433" y="1038" on="0"/>
        <pt x="349" y="1038" on="0"/>
        <pt x="311" y="1008" on="0"/>
        <pt x="299" y="986" on="1"/>
        <pt x="276" y="944" on="0"/>
        <pt x="276" y="883" on="0"/>
        <pt x="281" y="859" on="0"/>
        <pt x="286" y="846" on="1"/>
        <pt x="299" y="813" on="0"/>
        <pt x="308" y="805" on="1"/>
        <pt x="322" y="791" on="0"/>
        <pt x="322" y="752" on="0"/>
        <pt x="288" y="721" on="0"/>
        <pt x="272" y="721" on="1"/>
        <pt x="241" y="721" on="0"/>
        <pt x="225" y="745" on="1"/>
        <pt x="193" y="777" on="0"/>
        <pt x="164" y="917" on="0"/>
        <pt x="164" y="1057" on="0"/>
        <pt x="209" y="1188" on="0"/>
        <pt x="248" y="1236" on="1"/>
        <pt x="331" y="1335" on="0"/>
        <pt x="465" y="1335" on="1"/>
        <pt x="671" y="1335" on="0"/>
        <pt x="772" y="1198" on="1"/>
        <pt x="841" y="1104" on="0"/>
        <pt x="891" y="1061" on="0"/>
      </contour>
      <contour>
        <pt x="301" y="492" on="1"/>
        <pt x="333" y="508" on="0"/>
        <pt x="447" y="508" on="0"/>
        <pt x="542" y="461" on="0"/>
        <pt x="611" y="391" on="0"/>
        <pt x="664" y="310" on="0"/>
        <pt x="694" y="275" on="1"/>
        <pt x="764" y="193" on="0"/>
        <pt x="858" y="193" on="1"/>
        <pt x="968" y="193" on="0"/>
        <pt x="1027" y="298" on="1"/>
        <pt x="1044" y="329" on="0"/>
        <pt x="1053" y="362" on="1"/>
        <pt x="997" y="319" on="0"/>
        <pt x="871" y="319" on="0"/>
        <pt x="801" y="360" on="0"/>
        <pt x="747" y="421" on="0"/>
        <pt x="699" y="492" on="0"/>
        <pt x="666" y="522" on="1"/>
        <pt x="589" y="594" on="0"/>
        <pt x="465" y="594" on="1"/>
        <pt x="355" y="594" on="0"/>
      </contour>
      <contour>
        <pt x="926" y="426" on="1"/>
        <pt x="1042" y="426" on="0"/>
        <pt x="1042" y="532" on="1"/>
        <pt x="1042" y="573" on="0"/>
        <pt x="1028" y="596" on="1"/>
        <pt x="1008" y="628" on="0"/>
        <pt x="1008" y="668" on="0"/>
        <pt x="1039" y="696" on="0"/>
        <pt x="1055" y="696" on="1"/>
        <pt x="1087" y="696" on="0"/>
        <pt x="1114" y="661" on="0"/>
        <pt x="1137" y="619" on="0"/>
        <pt x="1147" y="592" on="1"/>
        <pt x="1169" y="531" on="0"/>
        <pt x="1169" y="385" on="0"/>
        <pt x="1125" y="252" on="0"/>
        <pt x="1084" y="200" on="1"/>
        <pt x="994" y="86" on="0"/>
        <pt x="856" y="86" on="1"/>
        <pt x="709" y="86" on="0"/>
        <pt x="602" y="244" on="1"/>
        <pt x="538" y="340" on="0"/>
        <pt x="472" y="380" on="1"/>
        <pt x="433" y="403" on="0"/>
        <pt x="349" y="403" on="0"/>
        <pt x="311" y="373" on="0"/>
        <pt x="299" y="351" on="1"/>
        <pt x="276" y="309" on="0"/>
        <pt x="276" y="248" on="0"/>
        <pt x="281" y="225" on="0"/>
        <pt x="286" y="212" on="1"/>
        <pt x="299" y="179" on="0"/>
        <pt x="307" y="170" on="1"/>
        <pt x="322" y="156" on="0"/>
        <pt x="322" y="118" on="0"/>
        <pt x="288" y="86" on="0"/>
        <pt x="272" y="86" on="1"/>
        <pt x="240" y="86" on="0"/>
        <pt x="225" y="111" on="1"/>
        <pt x="213" y="117" on="0"/>
        <pt x="198" y="156" on="1"/>
        <pt x="164" y="240" on="0"/>
        <pt x="164" y="422" on="0"/>
        <pt x="209" y="553" on="0"/>
        <pt x="248" y="600" on="1"/>
        <pt x="331" y="700" on="0"/>
        <pt x="465" y="700" on="1"/>
        <pt x="671" y="700" on="0"/>
        <pt x="772" y="563" on="1"/>
        <pt x="841" y="469" on="0"/>
        <pt x="891" y="426" on="0"/>
      </contour>
    </TTGlyph>
    <TTGlyph name="aring" xMin="90" yMin="-63" xMax="1290" yMax="1711">
      <component glyphName="a" x="0" y="0" flags="0x1204"/>
      <component glyphName="ring" x="238" y="-40" flags="0x1004"/>
    </TTGlyph>
    <TTGlyph name="asciicircum" xMin="0" yMin="635" xMax="872" yMax="1477">
      <contour>
        <pt x="729" y="739" on="1"/>
        <pt x="406" y="1311" on="1"/>
        <pt x="334" y="1159" on="1"/>
        <pt x="567" y="739" on="1"/>
      </contour>
      <contour>
        <pt x="866" y="713" on="1"/>
        <pt x="872" y="701" on="0"/>
        <pt x="872" y="665" on="0"/>
        <pt x="838" y="635" on="0"/>
        <pt x="819" y="635" on="1"/>
        <pt x="537" y="635" on="1"/>
        <pt x="506" y="635" on="0"/>
        <pt x="489" y="662" on="1"/>
        <pt x="279" y="1042" on="1"/>
        <pt x="98" y="666" on="1"/>
        <pt x="86" y="635" on="0"/>
        <pt x="28" y="635" on="0"/>
        <pt x="0" y="668" on="0"/>
        <pt x="0" y="680" on="1"/>
        <pt x="0" y="702" on="0"/>
        <pt x="4" y="711" on="1"/>
        <pt x="354" y="1446" on="1"/>
        <pt x="367" y="1477" on="0"/>
        <pt x="432" y="1477" on="0"/>
        <pt x="449" y="1450" on="1"/>
      </contour>
    </TTGlyph>
</ttFont>
